<svg width="56" height="56" viewBox="0 0 56 56" fill="none" xmlns="http://www.w3.org/2000/svg">
<path d="M7.67718 41.2616L7.38147 40.8455L4.40977 42.9578L6.26855 45.5729L9.24025 43.4606L8.94453 43.0446L6.35322 44.8865L5.08587 43.1035L7.67718 41.2616Z" fill="white"/>
<path d="M6.17811 38.3703C5.72715 37.406 4.63524 36.9989 3.64445 37.4622C2.65366 37.9255 2.26598 39.0245 2.71694 39.9889C3.1679 40.9532 4.25981 41.3603 5.25061 40.897C6.2414 40.4337 6.62907 39.3347 6.17811 38.3703ZM5.75537 38.568C6.09514 39.2946 5.78122 40.0693 5.02821 40.4214C4.27521 40.7735 3.47944 40.5178 3.13968 39.7912C2.79992 39.0646 3.11384 38.2899 3.86684 37.9378C4.61984 37.5857 5.41561 37.8414 5.75537 38.568Z" fill="white"/>
<path d="M4.81171 34.7497C4.59318 33.9552 3.97918 33.3452 3.32533 33.525C2.91755 33.6372 2.66763 33.9933 2.67697 34.4672C2.44863 34.1594 2.15544 34.0283 1.78984 34.1289C1.1149 34.3146 0.941989 35.0881 1.13538 35.7912C1.27076 36.2833 1.59157 36.7623 1.98988 37.0006L2.25984 36.7449C1.94713 36.4603 1.71298 36.1315 1.59695 35.7096C1.45964 35.2104 1.5315 34.7293 1.92521 34.621C2.2205 34.5398 2.58348 34.7047 2.69371 35.1054L2.83682 35.6257L3.27272 35.5058L3.10834 34.9082C2.99424 34.4934 3.1162 34.1119 3.4607 34.0172C3.91066 33.8934 4.23218 34.4024 4.37142 34.9086C4.47005 35.2672 4.52493 35.7966 4.39102 36.2721L4.75452 36.3838C4.9046 35.9947 4.99931 35.4317 4.81171 34.7497Z" fill="white"/>
<path d="M4.10857 32.2744L3.89097 30.2663C3.80456 29.4689 3.29329 29.1502 2.75683 29.2084C2.14789 29.2744 1.97422 29.7699 1.93961 30.0597C1.7922 29.7823 1.56897 29.5498 1.13401 29.5969C0.554062 29.6598 0.2113 30.1516 0.289856 30.8766L0.483887 32.6672L4.10857 32.2744ZM1.98183 32.0061L0.879929 32.1255L0.739316 30.8279C0.691397 30.3857 0.862778 30.1397 1.189 30.1044C1.51522 30.069 1.79173 30.2518 1.84122 30.7085L1.98183 32.0061ZM3.60569 31.8301L2.43129 31.9574L2.26711 30.4423C2.21684 29.9783 2.46385 29.7535 2.81182 29.7158C3.15979 29.6781 3.39123 29.8511 3.44151 30.315L3.60569 31.8301Z" fill="white"/>
<path d="M3.93721 26.7025C4.00711 25.6402 3.24676 24.7573 2.15533 24.6858C1.06391 24.6142 0.194392 25.3903 0.124487 26.4526C0.0545829 27.5149 0.814932 28.3978 1.90636 28.4693C2.99779 28.5409 3.8673 27.7648 3.93721 26.7025ZM3.47153 26.672C3.41886 27.4724 2.77032 27.9998 1.94083 27.9455C1.11135 27.8911 0.537495 27.2835 0.590163 26.4831C0.64283 25.6827 1.29138 25.1553 2.12086 25.2097C2.95034 25.264 3.5242 25.8716 3.47153 26.672Z" fill="white"/>
<path d="M4.74627 21.4309L4.8704 20.9358L1.33396 20.0492L1.20983 20.5443L2.70928 20.9202L2.17729 23.0421L0.677841 22.6662L0.553711 23.1613L4.09016 24.0479L4.21429 23.5528L2.62996 23.1556L3.16194 21.0337L4.74627 21.4309Z" fill="white"/>
<path d="M5.1937 19.9073L5.34444 19.5753L3.7983 16.2785L6.32125 17.4241L6.53229 16.9594L3.21261 15.452L3.06187 15.7839L4.60802 19.0807L2.08506 17.9351L1.87402 18.3998L5.1937 19.9073Z" fill="white"/>
<path d="M7.59962 15.2136L7.88303 14.7891L5.23892 13.0238L5.98793 11.9019L5.59981 11.6428L3.81836 14.3112L4.20649 14.5703L4.9555 13.4483L7.59962 15.2136Z" fill="white"/>
<path d="M8.92114 13.2824L10.1625 11.9078C10.6756 11.3396 10.7793 10.6373 10.2111 10.1242C9.64284 9.61102 8.91146 9.74635 8.3983 10.3146L7.49906 11.3103L6.55744 10.4599L6.21533 10.8387L8.92114 13.2824ZM8.92772 12.6005L7.83458 11.6133L8.73382 10.6176C9.05149 10.2658 9.5172 10.1853 9.86896 10.503C10.2207 10.8207 10.1446 11.253 9.82697 11.6048L8.92772 12.6005Z" fill="white"/>
<path d="M48.3228 14.7384L48.6185 15.1544L51.5902 13.0422L49.7314 10.4271L46.7597 12.5393L47.0555 12.9554L49.6468 11.1135L50.9141 12.8965L48.3228 14.7384Z" fill="white"/>
<path d="M49.8219 17.6296C50.2728 18.594 51.3648 19.001 52.3555 18.5377C53.3463 18.0744 53.734 16.9755 53.2831 16.0111C52.8321 15.0467 51.7402 14.6396 50.7494 15.103C49.7586 15.5663 49.3709 16.6652 49.8219 17.6296ZM50.2446 17.4319C49.9049 16.7053 50.2188 15.9307 50.9718 15.5785C51.7248 15.2264 52.5206 15.4822 52.8603 16.2088C53.2001 16.9353 52.8862 17.71 52.1332 18.0621C51.3802 18.4142 50.5844 18.1585 50.2446 17.4319Z" fill="white"/>
<path d="M51.1883 21.2503C51.4068 22.0448 52.0208 22.6548 52.6747 22.475C53.0825 22.3628 53.3324 22.0067 53.323 21.5328C53.5514 21.8406 53.8446 21.9717 54.2102 21.8711C54.8851 21.6854 55.058 20.9119 54.8646 20.2088C54.7292 19.7167 54.4084 19.2377 54.0101 18.9994L53.7402 19.2551C54.0529 19.5397 54.287 19.8685 54.4031 20.2904C54.5404 20.7896 54.4685 21.2707 54.0748 21.379C53.7795 21.4602 53.4165 21.2953 53.3063 20.8946L53.1632 20.3743L52.7273 20.4942L52.8917 21.0918C53.0058 21.5066 52.8838 21.8881 52.5393 21.9828C52.0893 22.1066 51.7678 21.5976 51.6286 21.0914C51.5299 20.7328 51.4751 20.2034 51.609 19.7279L51.2455 19.6162C51.0954 20.0053 51.0007 20.5683 51.1883 21.2503Z" fill="white"/>
<path d="M51.8914 23.7256L52.109 25.7337C52.1954 26.5311 52.7067 26.8498 53.2432 26.7916C53.8521 26.7256 54.0258 26.2301 54.0604 25.9403C54.2078 26.2177 54.431 26.4502 54.866 26.4031C55.4459 26.3402 55.7887 25.8484 55.7101 25.1234L55.5161 23.3328L51.8914 23.7256ZM54.0182 23.9939L55.1201 23.8745L55.2607 25.1721C55.3086 25.6143 55.1372 25.8603 54.811 25.8956C54.4848 25.931 54.2083 25.7482 54.1588 25.2915L54.0182 23.9939ZM52.3943 24.1699L53.5687 24.0426L53.7329 25.5577C53.7832 26.0217 53.5361 26.2465 53.1882 26.2842C52.8402 26.3219 52.6088 26.1489 52.5585 25.685L52.3943 24.1699Z" fill="white"/>
<path d="M52.0631 29.297C51.9933 30.3593 52.7537 31.2423 53.8451 31.314C54.9366 31.3857 55.806 30.6097 55.8757 29.5474C55.9455 28.4851 55.1851 27.6021 54.0937 27.5304C53.0022 27.4587 52.1328 28.2347 52.0631 29.297ZM52.5287 29.3276C52.5813 28.5272 53.2298 27.9998 54.0592 28.0543C54.8887 28.1088 55.4626 28.7165 55.4101 29.5168C55.3575 30.3172 54.709 30.8446 53.8796 30.7901C53.0501 30.7357 52.4762 30.128 52.5287 29.3276Z" fill="white"/>
<path d="M51.2537 34.5691L51.1296 35.0642L54.666 35.9508L54.7902 35.4557L53.2907 35.0798L53.8227 32.9579L55.3222 33.3338L55.4463 32.8387L51.9098 31.9521L51.7857 32.4472L53.37 32.8444L52.8381 34.9663L51.2537 34.5691Z" fill="white"/>
<path d="M50.8063 36.0927L50.6556 36.4247L52.2017 39.7215L49.6787 38.5759L49.4677 39.0406L52.7874 40.548L52.9381 40.2161L51.392 36.9193L53.9149 38.0649L54.126 37.6002L50.8063 36.0927Z" fill="white"/>
<path d="M48.4004 40.7864L48.117 41.2109L50.7611 42.9762L50.0121 44.0981L50.4002 44.3572L52.1816 41.6888L51.7935 41.4297L51.0445 42.5517L48.4004 40.7864Z" fill="white"/>
<path d="M47.0789 42.7176L45.8375 44.0922C45.3244 44.6604 45.2207 45.3627 45.7889 45.8758C46.3572 46.389 47.0885 46.2536 47.6017 45.6854L48.5009 44.6897L49.4426 45.5401L49.7847 45.1613L47.0789 42.7176ZM47.0723 43.3995L48.1654 44.3867L47.2662 45.3824C46.9485 45.7342 46.4828 45.8147 46.131 45.497C45.7793 45.1793 45.8554 44.747 46.173 44.3952L47.0723 43.3995Z" fill="white"/>
<path d="M14.739 7.67724L15.1551 7.38153L13.0428 4.40983L10.4277 6.26862L12.54 9.24031L12.956 8.9446L11.1141 6.35328L12.8972 5.08593L14.739 7.67724Z" fill="white"/>
<path d="M17.6298 6.17818C18.5942 5.72722 19.0013 4.6353 18.538 3.64451C18.0746 2.65372 16.9757 2.26604 16.0113 2.717C15.0469 3.16796 14.6399 4.25987 15.1032 5.25067C15.5665 6.24146 16.6655 6.62914 17.6298 6.17818ZM17.4322 5.75544C16.7056 6.0952 15.9309 5.78128 15.5788 5.02828C15.2267 4.27527 15.4824 3.4795 16.209 3.13974C16.9356 2.79998 17.7103 3.1139 18.0624 3.8669C18.4145 4.6199 18.1587 5.41567 17.4322 5.75544Z" fill="white"/>
<path d="M21.2504 4.81153C22.0448 4.593 22.6549 3.979 22.475 3.32514C22.3629 2.91737 22.0067 2.66744 21.5329 2.67679C21.8406 2.44845 21.9717 2.15525 21.8712 1.78966C21.6855 1.11471 20.9119 0.941805 20.2089 1.1352C19.7167 1.27057 19.2378 1.59138 18.9994 1.98969L19.2552 2.25966C19.5398 1.94695 19.8686 1.7128 20.2904 1.59676C20.7896 1.45946 21.2707 1.53131 21.379 1.92503C21.4602 2.22032 21.2954 2.5833 20.8946 2.69353L20.3744 2.83664L20.4943 3.27254L21.0919 3.10816C21.5067 2.99406 21.8881 3.11602 21.9829 3.46052C22.1067 3.91048 21.5976 4.232 21.0914 4.37124C20.7329 4.46987 20.2035 4.52474 19.728 4.39084L19.6162 4.75434C20.0054 4.90442 20.5684 4.99912 21.2504 4.81153Z" fill="white"/>
<path d="M23.7263 4.10881L25.7343 3.89122C26.5318 3.80481 26.8504 3.29353 26.7923 2.75708C26.7263 2.14813 26.2308 1.97446 25.941 1.93986C26.2184 1.79244 26.4509 1.56922 26.4037 1.13425C26.3409 0.554306 25.849 0.211544 25.1241 0.2901L23.3335 0.484131L23.7263 4.10881ZM23.9946 1.98208L23.8752 0.880174L25.1728 0.73956C25.615 0.691641 25.8609 0.863022 25.8963 1.18924C25.9316 1.51547 25.7489 1.79197 25.2922 1.84146L23.9946 1.98208ZM24.1705 3.60594L24.0433 2.43154L25.5584 2.26736C26.0223 2.21708 26.2471 2.4641 26.2848 2.81207C26.3226 3.16004 26.1496 3.39148 25.6856 3.44176L24.1705 3.60594Z" fill="white"/>
<path d="M29.2976 3.93721C30.3599 4.00711 31.2428 3.24676 31.3143 2.15533C31.3859 1.06391 30.6098 0.194392 29.5475 0.124487C28.4852 0.0545829 27.6023 0.814933 27.5308 1.90636C27.4592 2.99779 28.2353 3.8673 29.2976 3.93721ZM29.3281 3.47153C28.5277 3.41886 28.0003 2.77032 28.0547 1.94083C28.109 1.11135 28.7166 0.537495 29.517 0.590163C30.3174 0.642831 30.8448 1.29138 30.7905 2.12086C30.7361 2.95035 30.1285 3.5242 29.3281 3.47153Z" fill="white"/>
<path d="M34.5692 4.74609L35.0643 4.87022L35.9509 1.33377L35.4558 1.20964L35.0799 2.7091L32.958 2.17711L33.334 0.677658L32.8389 0.553528L31.9522 4.08998L32.4473 4.21411L32.8445 2.62978L34.9664 3.16176L34.5692 4.74609Z" fill="white"/>
<path d="M36.0927 5.1937L36.4246 5.34445L39.7214 3.7983L38.5758 6.32126L39.0406 6.53229L40.548 3.21261L40.216 3.06187L36.9192 4.60802L38.0649 2.08506L37.6001 1.87402L36.0927 5.1937Z" fill="white"/>
<path d="M40.7865 7.59974L41.211 7.88316L42.9763 5.23904L44.0982 5.98806L44.3573 5.59993L41.689 3.81848L41.4298 4.20661L42.5518 4.95563L40.7865 7.59974Z" fill="white"/>
<path d="M42.7175 8.92102L44.0921 10.1624C44.6603 10.6755 45.3625 10.7792 45.8757 10.2109C46.3889 9.64272 46.2535 8.91134 45.6853 8.39818L44.6896 7.49894L45.5399 6.55731L45.1611 6.21521L42.7175 8.92102ZM43.3993 8.9276L44.3866 7.83446L45.3823 8.7337C45.7341 9.05137 45.8146 9.51708 45.4969 9.86884C45.1792 10.2206 44.7468 10.1445 44.3951 9.82685L43.3993 8.9276Z" fill="white"/>
<path d="M41.2614 48.3228L40.8454 48.6185L42.9577 51.5902L45.5728 49.7314L43.4605 46.7597L43.0445 47.0554L44.8863 49.6467L43.1033 50.9141L41.2614 48.3228Z" fill="white"/>
<path d="M38.3707 49.8218C37.4063 50.2728 36.9992 51.3647 37.4625 52.3555C37.9259 53.3463 39.0248 53.734 39.9892 53.283C40.9535 52.832 41.3606 51.7401 40.8973 50.7493C40.434 49.7585 39.335 49.3709 38.3707 49.8218ZM38.5683 50.2446C39.2949 49.9048 40.0696 50.2187 40.4217 50.9717C40.7738 51.7247 40.5181 52.5205 39.7915 52.8603C39.0649 53.2 38.2902 52.8861 37.9381 52.1331C37.586 51.3801 37.8418 50.5843 38.5683 50.2446Z" fill="white"/>
<path d="M34.7501 51.1885C33.9557 51.407 33.3456 52.021 33.5255 52.6749C33.6376 53.0826 33.9938 53.3326 34.4676 53.3232C34.1599 53.5516 34.0288 53.8447 34.1293 54.2103C34.315 54.8853 35.0886 55.0582 35.7916 54.8648C36.2838 54.7294 36.7627 54.4086 37.001 54.0103L36.7453 53.7403C36.4607 54.0531 36.1319 54.2872 35.71 54.4032C35.2109 54.5405 34.7298 54.4687 34.6215 54.075C34.5403 53.7797 34.7051 53.4167 35.1058 53.3065L35.6261 53.1634L35.5062 52.7275L34.9086 52.8918C34.4938 53.0059 34.1124 52.884 34.0176 52.5395C33.8938 52.0895 34.4028 51.768 34.9091 51.6288C35.2676 51.5301 35.797 51.4753 36.2725 51.6092L36.3843 51.2457C35.9951 51.0956 35.4321 51.0009 34.7501 51.1885Z" fill="white"/>
<path d="M32.2742 51.8912L30.2661 52.1088C29.4687 52.1952 29.1501 52.7065 29.2082 53.2429C29.2742 53.8519 29.7697 54.0255 30.0595 54.0601C29.7821 54.2076 29.5496 54.4308 29.5967 54.8657C29.6596 55.4457 30.1515 55.7885 30.8764 55.7099L32.667 55.5159L32.2742 51.8912ZM32.0059 54.0179L32.1253 55.1198L30.8277 55.2604C30.3855 55.3084 30.1395 55.137 30.1042 54.8108C30.0688 54.4845 30.2516 54.208 30.7083 54.1585L32.0059 54.0179ZM31.83 52.3941L31.9572 53.5685L30.4421 53.7326C29.9781 53.7829 29.7534 53.5359 29.7156 53.1879C29.6779 52.84 29.8509 52.6085 30.3148 52.5582L31.83 52.3941Z" fill="white"/>
<path d="M26.7029 52.0628C25.6406 51.9929 24.7577 52.7532 24.6861 53.8447C24.6146 54.9361 25.3906 55.8056 26.453 55.8755C27.5153 55.9454 28.3982 55.1851 28.4697 54.0936C28.5413 53.0022 27.7652 52.1327 26.7029 52.0628ZM26.6724 52.5285C27.4727 52.5811 28.0002 53.2297 27.9458 54.0592C27.8914 54.8887 27.2838 55.4625 26.4835 55.4098C25.6831 55.3572 25.1556 54.7086 25.21 53.8791C25.2644 53.0497 25.872 52.4758 26.6724 52.5285Z" fill="white"/>
<path d="M21.4313 51.254L20.9362 51.1298L20.0495 54.6663L20.5447 54.7904L20.9206 53.291L23.0425 53.823L22.6665 55.3224L23.1616 55.4465L24.0483 51.9101L23.5532 51.786L23.1559 53.3703L21.0341 52.8383L21.4313 51.254Z" fill="white"/>
<path d="M19.9078 50.8063L19.5758 50.6556L16.2791 52.2017L17.4247 49.6787L16.9599 49.4677L15.4525 52.7874L15.7845 52.9381L19.0813 51.392L17.9356 53.9149L18.4004 54.126L19.9078 50.8063Z" fill="white"/>
<path d="M15.214 48.4003L14.7895 48.1168L13.0242 50.761L11.9023 50.0119L11.6431 50.4001L14.3115 52.1815L14.5706 51.7934L13.4487 51.0444L15.214 48.4003Z" fill="white"/>
<path d="M13.283 47.079L11.9084 45.8376C11.3402 45.3245 10.6379 45.2208 10.1248 45.7891C9.61163 46.3573 9.74696 47.0887 10.3152 47.6018L11.3109 48.5011L10.4605 49.4427L10.8394 49.7848L13.283 47.079ZM12.6011 47.0724L11.6139 48.1655L10.6182 47.2663C10.2664 46.9486 10.1859 46.4829 10.5036 46.1312C10.8213 45.7794 11.2536 45.8555 11.6054 46.1732L12.6011 47.0724Z" fill="white"/>
</svg>
