<svg width="100" height="100" viewBox="0 0 100 100" fill="none" xmlns="http://www.w3.org/2000/svg">
<path d="M93.2825 42.3222C92.9772 40.7699 91.8891 39.5175 90.6126 39.7737C89.8165 39.9335 89.2877 40.5822 89.2383 41.4917C88.8451 40.8709 88.3028 40.58 87.589 40.7232C86.2713 40.9877 85.8306 42.4469 86.1008 43.8206C86.2899 44.7822 86.8356 45.7436 87.5639 46.2543L88.1167 45.8006C87.5588 45.2129 87.1575 44.5509 86.9954 43.7267C86.8036 42.7514 87.0094 41.8391 87.7781 41.6848C88.3546 41.5691 89.0257 41.9342 89.1797 42.7172L89.3796 43.7337L90.2306 43.5629L90.001 42.3953C89.8416 41.5848 90.1291 40.8703 90.8017 40.7353C91.6802 40.559 92.223 41.5781 92.4176 42.5672C92.5553 43.2677 92.5851 44.2898 92.2614 45.183L92.941 45.4464C93.2834 44.7209 93.5446 43.6546 93.2825 42.3222Z" fill="#F2CFBE"/>
<path d="M90.9615 34.1847C90.4857 33.0483 89.4068 32.1391 88.6117 32.0525L89.6931 31.5905L89.3255 30.7124L85.0255 32.5496C83.2489 33.3087 83.2422 34.7426 83.7829 36.034C84.2695 37.1962 85.0891 37.9574 85.8553 38.4825L86.3049 37.9251C85.5319 37.3114 84.9379 36.5452 84.6243 35.7962C84.235 34.8664 84.2731 33.9063 85.3932 33.4277L85.5734 33.3507L85.6254 33.5112C86.6819 36.7592 88.4927 37.858 89.9346 37.242C91.0289 36.7744 91.5454 35.5794 90.9615 34.1847ZM90.1038 34.3837C90.4499 35.2102 90.3672 35.9915 89.6076 36.316C88.552 36.7671 87.2313 35.8241 86.3721 33.1921L86.3201 33.0317C88.5345 32.0855 89.6821 33.3764 90.1038 34.3837Z" fill="#F2CFBE"/>
<path d="M85.216 24.0914L84.4784 23.0015L83.6566 28.2816L78.7733 27.0604L79.503 28.1386L84.0995 29.2858L81.496 31.0837L82.0452 31.8953L87.8053 27.9176L87.256 27.106L84.4336 29.055L85.216 24.0914Z" fill="#F2CFBE"/>
<path d="M81.3968 19.3861C80.5205 18.5201 79.1763 18.0969 78.4105 18.3242L79.2287 17.4794L78.5516 16.8102L75.2984 20.169C73.9542 21.5567 74.5006 22.8841 75.4963 23.8682C76.3924 24.754 77.4407 25.1406 78.349 25.3297L78.5483 24.6409C77.5998 24.3727 76.7574 23.8943 76.1798 23.3235C75.4629 22.6149 75.1281 21.7131 75.9755 20.8382L76.1118 20.6974L76.2216 20.8256C78.4464 23.4182 80.538 23.7337 81.6289 22.6074C82.4568 21.7526 82.4721 20.449 81.3968 19.3861ZM80.6833 19.9013C81.3206 20.5312 81.5455 21.285 80.9708 21.8783C80.1721 22.7029 78.5922 22.342 76.7865 20.2423L76.6768 20.1142C78.3521 18.3845 79.9067 19.1337 80.6833 19.9013Z" fill="#F2CFBE"/>
<path d="M74.1438 13.3807C72.8193 12.5156 71.1668 12.4227 70.4648 13.5193C70.027 14.2032 70.1253 15.0365 70.7429 15.7075C70.0252 15.5564 69.4404 15.7429 69.0479 16.356C68.3233 17.488 69.0636 18.8243 70.2357 19.59C71.0562 20.1259 72.1239 20.4053 72.9952 20.2387L73.0536 19.5243C72.2452 19.5147 71.4923 19.3406 70.7891 18.8813C69.9569 18.3377 69.4457 17.5523 69.8684 16.892C70.1854 16.3967 70.9126 16.1695 71.5807 16.6059L72.4481 17.1724L72.916 16.4414L71.9197 15.7906C71.2282 15.3389 70.9155 14.633 71.2853 14.0552C71.7683 13.3006 72.8754 13.6224 73.7194 14.1737C74.3171 14.5641 75.0705 15.2569 75.4861 16.1136L76.1464 15.8092C75.8639 15.0561 75.2808 14.1234 74.1438 13.3807Z" fill="#F2CFBE"/>
<path d="M66.8439 9.46213C65.6986 9.00811 64.2941 9.14407 63.6762 9.6521L64.102 8.55591L63.217 8.20508L61.5238 12.5637C60.8242 14.3646 61.8448 15.3716 63.1462 15.8875C64.3176 16.3519 65.4349 16.2978 66.3463 16.117L66.262 15.4059C65.2828 15.5297 64.3195 15.4189 63.5647 15.1197C62.6276 14.7482 61.9677 14.0499 62.4088 12.9146L62.4798 12.7319L62.6309 12.8068C65.692 14.3215 67.744 13.7947 68.3118 12.3331C68.7428 11.2239 68.2495 10.0193 66.8439 9.46213ZM66.3864 10.2145C67.2194 10.5447 67.7202 11.1498 67.4211 11.9198C67.0054 12.9898 65.4077 13.2751 62.9249 12.0499L62.7738 11.975C63.6458 9.7304 65.3713 9.81204 66.3864 10.2145Z" fill="#F2CFBE"/>
<path d="M58.634 7.1092L57.671 6.92751L56.5612 12.9298L54.0161 12.4496L53.8532 13.3306L59.9064 14.4727L60.0693 13.5917L57.5242 13.1115L58.634 7.1092Z" fill="#F2CFBE"/>
<path d="M52.426 6.21168L48.8701 6.23942C47.4002 6.25088 46.272 7.0157 46.2832 8.48566C46.2945 9.95562 47.4351 10.8147 48.905 10.8033L51.4809 10.7832L51.4996 13.2191L52.4795 13.2115L52.426 6.21168ZM51.4527 7.0873L51.4743 9.91522L48.8984 9.93531C47.9884 9.94241 47.2702 9.38799 47.2632 8.47802C47.2563 7.56804 47.9668 7.11449 48.8768 7.10739L51.4527 7.0873Z" fill="#F2CFBE"/>
<path d="M37.0181 7.97335C35.5111 8.45473 34.3842 9.68179 34.7732 10.9243C35.0157 11.6993 35.7149 12.152 36.622 12.0974C36.048 12.56 35.8168 13.1335 36.0343 13.8283C36.4358 15.1109 37.9293 15.3833 39.2629 14.9573C40.1965 14.6591 41.0921 14.0056 41.5216 13.2218L41.0133 12.7228C40.4895 13.3457 39.8755 13.8211 39.0753 14.0767C38.1284 14.3791 37.202 14.2782 36.9678 13.5301C36.7921 12.9689 37.0832 12.2587 37.8434 12.0158L38.8303 11.7006L38.571 10.8722L37.4374 11.2343C36.6506 11.4857 35.9116 11.2808 35.7067 10.6261C35.439 9.77105 36.3922 9.11386 37.3524 8.80713C38.0325 8.58987 39.0429 8.44348 39.9628 8.66403L40.1522 7.95688C39.3965 7.69857 38.3117 7.56013 37.0181 7.97335Z" fill="#F2CFBE"/>
<path d="M31.0652 10.3567L27.6846 12.257C26.3422 13.0116 26.1588 14.1585 26.6587 15.066C27.2261 16.096 28.2288 16.0303 28.7655 15.8731C28.3855 16.3437 28.1407 16.9149 28.546 17.6506C29.0864 18.6316 30.2078 18.8685 31.4282 18.1825L34.4426 16.488L31.0652 10.3567ZM32.1672 14.3303L33.1939 16.1943L31.0094 17.4222C30.2649 17.8407 29.7042 17.7222 29.4003 17.1704C29.0963 16.6186 29.2138 15.9905 29.9827 15.5583L32.1672 14.3303ZM30.6541 11.5835L31.7484 13.5701L29.1977 15.0038C28.4167 15.4429 27.8372 15.1744 27.513 14.5858C27.1888 13.9972 27.3224 13.4563 28.1034 13.0173L30.6541 11.5835Z" fill="#F2CFBE"/>
<path d="M20.9881 16.8843C19.4582 18.2398 19.2915 20.4822 20.6683 22.0679C22.045 23.6536 24.2676 23.7793 25.7975 22.4239C27.3275 21.0684 27.4941 18.826 26.1174 17.2403C24.7406 15.6545 22.518 15.5289 20.9881 16.8843ZM21.5755 17.5609C22.7282 16.5397 24.3165 16.7036 25.3629 17.9087C26.4092 19.1139 26.3628 20.726 25.2101 21.7473C24.0574 22.7685 22.4691 22.6046 21.4228 21.3995C20.3764 20.1943 20.4228 18.5821 21.5755 17.5609Z" fill="#F2CFBE"/>
<path d="M13.2476 25.9098L12.6749 26.7051L18.3157 30.8501L18.8884 30.0548L16.4967 28.2973L18.951 24.889L21.3427 26.6465L21.9154 25.8512L16.2745 21.7063L15.7019 22.5015L18.229 24.3585L15.7747 27.7668L13.2476 25.9098Z" fill="#F2CFBE"/>
<path d="M9.34683 32.808C8.55042 34.6905 9.36814 36.7818 11.2961 37.6142C13.2241 38.4465 15.2856 37.5981 16.082 35.7157C16.8784 33.8332 16.0607 31.7419 14.1327 30.9095C12.2047 30.0772 10.1432 30.9255 9.34683 32.808ZM10.1694 33.1631C10.7695 31.7448 12.2746 31.2053 13.7399 31.8378C15.2052 32.4704 15.8594 33.9423 15.2594 35.3605C14.6593 36.7788 13.1542 37.3184 11.6889 36.6858C10.2236 36.0532 9.56941 34.5814 10.1694 33.1631Z" fill="#F2CFBE"/>
<path d="M6.33783 43.8208L6.09366 45.114L10.3874 41.992L12.9854 46.342L13.227 45.0627L10.7799 40.9698L13.8868 41.5684L14.0686 40.6054L7.19502 39.281L7.01319 40.244L10.3812 40.893L6.33783 43.8208Z" fill="#F2CFBE"/>
<path d="M6.39813 57.0109C6.70341 58.5632 7.79153 59.8156 9.06808 59.5594C9.8642 59.3996 10.393 58.7509 10.4424 57.8414C10.8356 58.4621 11.3779 58.7531 12.0917 58.6099C13.4094 58.3454 13.8501 56.8862 13.5799 55.5125C13.3908 54.5509 12.845 53.5895 12.1168 53.0788L11.5639 53.5325C12.1218 54.1202 12.5231 54.7822 12.6852 55.6064C12.877 56.5817 12.6712 57.494 11.9025 57.6483C11.326 57.764 10.655 57.3989 10.501 56.6159L10.3011 55.5994L9.45004 55.7702L9.67968 56.9378C9.83907 57.7483 9.55155 58.4628 8.87897 58.5978C8.00048 58.7741 7.45762 57.755 7.26311 56.7659C7.12533 56.0654 7.09553 55.0432 7.41925 54.1501L6.73965 53.8867C6.39723 54.6122 6.13608 55.6785 6.39813 57.0109Z" fill="#F2CFBE"/>
<path d="M8.71919 65.1484C9.19501 66.2848 10.2738 67.194 11.069 67.2806L9.98753 67.7426L10.3552 68.6207L14.6552 66.7835C16.4318 66.0244 16.4385 64.5905 15.8978 63.2991C15.4111 62.1369 14.5916 61.3757 13.8253 60.8506L13.3758 61.408C14.1487 62.0217 14.7427 62.7879 15.0563 63.5369C15.4456 64.4667 15.4075 65.4268 14.2875 65.9054L14.1072 65.9824L14.0552 65.8219C12.9988 62.5739 11.1879 61.4751 9.74604 62.0911C8.65174 62.5587 8.13522 63.7537 8.71919 65.1484ZM9.57686 64.9494C9.23081 64.1229 9.31346 63.3416 10.073 63.0171C11.1287 62.566 12.4493 63.509 13.3085 66.141L13.3605 66.3014C11.1462 67.2475 9.99861 65.9567 9.57686 64.9494Z" fill="#F2CFBE"/>
<path d="M14.4647 75.2417L15.2023 76.3316L16.024 71.0515L20.9074 72.2727L20.1777 71.1945L15.5811 70.0473L18.1847 68.2494L17.6354 67.4378L11.8754 71.4155L12.4246 72.2271L15.2471 70.2781L14.4647 75.2417Z" fill="#F2CFBE"/>
<path d="M18.2839 79.947C19.1601 80.813 20.5043 81.2362 21.2701 81.0089L20.4519 81.8537L21.129 82.5229L24.3823 79.1641C25.7264 77.7764 25.1801 76.449 24.1844 75.4649C23.2882 74.5791 22.2399 74.1925 21.3317 74.0034L21.1323 74.6922C22.0808 74.9604 22.9233 75.4388 23.5008 76.0096C24.2177 76.7182 24.5526 77.62 23.7052 78.4949L23.5688 78.6357L23.4591 78.5075C21.2343 75.9149 19.1427 75.5994 18.0518 76.7257C17.2239 77.5805 17.2085 78.8841 18.2839 79.947ZM18.9973 79.4318C18.3601 78.8019 18.1351 78.0481 18.7098 77.4548C19.5085 76.6302 21.0884 76.9911 22.8942 79.0908L23.0039 79.2189C21.3286 80.9486 19.774 80.1994 18.9973 79.4318Z" fill="#F2CFBE"/>
<path d="M25.5369 85.9524C26.8613 86.8175 28.5139 86.9104 29.2158 85.8138C29.6536 85.1299 29.5554 84.2966 28.9377 83.6256C29.6555 83.7767 30.2403 83.5902 30.6328 82.9771C31.3574 81.8451 30.6171 80.5088 29.445 79.7431C28.6245 79.2072 27.5567 78.9278 26.6855 79.0944L26.6271 79.8088C27.4354 79.8184 28.1883 79.9925 28.8916 80.4518C29.7238 80.9954 30.235 81.7808 29.8123 82.4411C29.4953 82.9364 28.7681 83.1636 28.1 82.7272L27.2326 82.1607L26.7646 82.8917L27.7609 83.5425C28.4525 83.9942 28.7652 84.7001 28.3954 85.2779C27.9123 86.0325 26.8052 85.7107 25.9613 85.1594C25.3635 84.769 24.6102 84.0762 24.1945 83.2195L23.5342 83.5239C23.8168 84.277 24.3999 85.2097 25.5369 85.9524Z" fill="#F2CFBE"/>
<path d="M32.8368 89.871C33.9821 90.325 35.3866 90.189 36.0045 89.681L35.5786 90.7772L36.4636 91.128L38.1569 86.7694C38.8565 84.9685 37.8359 83.9615 36.5344 83.4456C35.3631 82.9812 34.2457 83.0353 33.3344 83.2161L33.4186 83.9272C34.3979 83.8034 35.3611 83.9142 36.116 84.2134C37.053 84.5849 37.7129 85.2832 37.2719 86.4185L37.2009 86.6012L37.0498 86.5263C33.9886 85.0116 31.9366 85.5384 31.3688 87C30.9379 88.1092 31.4312 89.3138 32.8368 89.871ZM33.2942 89.1186C32.4613 88.7884 31.9605 88.1833 32.2596 87.4133C32.6753 86.3433 34.273 86.058 36.7558 87.2832L36.9069 87.3581C36.0349 89.6027 34.3094 89.5211 33.2942 89.1186Z" fill="#F2CFBE"/>
<path d="M41.0467 92.2239L42.0097 92.4056L43.1195 86.4034L45.6646 86.8836L45.8275 86.0025L39.7743 84.8604L39.6114 85.7415L42.1565 86.2217L41.0467 92.2239Z" fill="#F2CFBE"/>
<path d="M47.2546 93.1214L50.8105 93.0937C52.2805 93.0822 53.4087 92.3174 53.3974 90.8474C53.3862 89.3775 52.2456 88.5184 50.7756 88.5298L48.1997 88.5499L48.1811 86.114L47.2011 86.1216L47.2546 93.1214ZM48.228 92.2458L48.2063 89.4179L50.7823 89.3978C51.6922 89.3907 52.4105 89.9451 52.4175 90.8551C52.4244 91.7651 51.7139 92.2186 50.8039 92.2257L48.228 92.2458Z" fill="#F2CFBE"/>
<path d="M62.6626 91.3597C64.1696 90.8784 65.2965 89.6513 64.9075 88.4088C64.6649 87.6338 63.9658 87.1811 63.0587 87.2357C63.6327 86.7731 63.8639 86.1996 63.6464 85.5048C63.2449 84.2222 61.7513 83.9498 60.4177 84.3758C59.4842 84.674 58.5885 85.3275 58.1591 86.1113L58.6674 86.6103C59.1912 85.9874 59.8052 85.512 60.6054 85.2564C61.5522 84.954 62.4787 85.0549 62.7129 85.803C62.8885 86.3642 62.5974 87.0744 61.8373 87.3173L60.8504 87.6325L61.1097 88.4609L62.2433 88.0988C63.0301 87.8474 63.769 88.0523 63.974 88.707C64.2416 89.562 63.2885 90.2192 62.3283 90.526C61.6481 90.7432 60.6377 90.8896 59.7178 90.6691L59.5285 91.3762C60.2841 91.6345 61.369 91.773 62.6626 91.3597Z" fill="#F2CFBE"/>
<path d="M68.6155 88.9764L71.996 87.0761C73.3385 86.3215 73.5218 85.1746 73.022 84.2671C72.4545 83.2371 71.4519 83.3028 70.9151 83.46C71.2952 82.9894 71.54 82.4182 71.1347 81.6825C70.5943 80.7015 69.4729 80.4646 68.2525 81.1506L65.2381 82.8451L68.6155 88.9764ZM67.5135 85.0028L66.4867 83.1388L68.6713 81.9109C69.4157 81.4924 69.9764 81.6109 70.2804 82.1627C70.5844 82.7145 70.4669 83.3426 69.698 83.7748L67.5135 85.0028ZM69.0266 87.7496L67.9323 85.763L70.4829 84.3293C71.264 83.8902 71.8434 84.1587 72.1677 84.7473C72.4919 85.3359 72.3583 85.8768 71.5772 86.3158L69.0266 87.7496Z" fill="#F2CFBE"/>
<path d="M78.6926 82.4488C80.2225 81.0933 80.3891 78.8509 79.0124 77.2652C77.6356 75.6795 75.4131 75.5538 73.8831 76.9092C72.3532 78.2647 72.1866 80.5071 73.5633 82.0928C74.94 83.6786 77.1626 83.8042 78.6926 82.4488ZM78.1051 81.7722C76.9525 82.7934 75.3641 82.6295 74.3178 81.4244C73.2715 80.2192 73.3179 78.6071 74.4705 77.5858C75.6232 76.5646 77.2116 76.7285 78.2579 77.9336C79.3042 79.1388 79.2578 80.751 78.1051 81.7722Z" fill="#F2CFBE"/>
<path d="M86.4331 73.4233L87.0058 72.628L81.3649 68.483L80.7923 69.2783L83.184 71.0358L80.7297 74.4441L78.338 72.6866L77.7653 73.4819L83.4061 77.6268L83.9788 76.8316L81.4517 74.9746L83.906 71.5663L86.4331 73.4233Z" fill="#F2CFBE"/>
<path d="M90.3338 66.5251C91.1302 64.6426 90.3125 62.5513 88.3845 61.7189C86.4565 60.8866 84.3951 61.735 83.5987 63.6174C82.8023 65.4999 83.62 67.5912 85.548 68.4236C87.476 69.2559 89.5374 68.4076 90.3338 66.5251ZM89.5112 66.17C88.9112 67.5883 87.406 68.1278 85.9407 67.4953C84.4755 66.8627 83.8213 65.3908 84.4213 63.9726C85.0213 62.5543 86.5265 62.0147 87.9918 62.6473C89.4571 63.2799 90.1113 64.7517 89.5112 66.17Z" fill="#F2CFBE"/>
<path d="M93.3428 55.5123L93.587 54.2191L89.2932 57.3411L86.6952 52.9911L86.4537 54.2704L88.9008 58.3633L85.7939 57.7647L85.6121 58.7277L92.4856 60.0521L92.6675 59.0891L89.2994 58.4401L93.3428 55.5123Z" fill="#F2CFBE"/>
</svg>
