<svg width="48" height="48" viewBox="0 0 48 48" fill="none" xmlns="http://www.w3.org/2000/svg">
<path d="M46.6909 41.3334H39.2727V35.1112H44.9455C45.1445 35.1112 45.3409 35.065 45.5198 34.9761C45.6986 34.8871 45.8552 34.7578 45.9777 34.598C46.1001 34.4382 46.1851 34.252 46.2263 34.0537C46.2675 33.8553 46.2637 33.65 46.2153 33.4534L39.2335 5.00919C39.1625 4.72089 38.999 4.46499 38.769 4.28215C38.5389 4.09931 38.2555 4 37.9636 4C37.6718 4 37.3884 4.09931 37.1583 4.28215C36.9282 4.46499 36.7648 4.72089 36.6938 5.00919L29.712 33.4534C29.6636 33.65 29.6598 33.8553 29.701 34.0537C29.7421 34.252 29.8272 34.4382 29.9496 34.598C30.072 34.7578 30.2286 34.8871 30.4075 34.9761C30.5864 35.065 30.7828 35.1112 30.9818 35.1112H36.6545V41.3334H21.8182V36.8889H24C24.3472 36.8889 24.6802 36.7485 24.9257 36.4984C25.1712 36.2484 25.3091 35.9092 25.3091 35.5556C25.3091 35.202 25.1712 34.8629 24.9257 34.6128C24.6802 34.3628 24.3472 34.2223 24 34.2223H21.8182V29.7779H24C24.3472 29.7779 24.6802 29.6374 24.9257 29.3874C25.1712 29.1373 25.3091 28.7982 25.3091 28.4446C25.3091 28.0909 25.1712 27.7518 24.9257 27.5018C24.6802 27.2517 24.3472 27.1112 24 27.1112H4.8C4.45281 27.1112 4.11983 27.2517 3.87433 27.5018C3.62883 27.7518 3.49091 28.0909 3.49091 28.4446C3.49091 28.7982 3.62883 29.1373 3.87433 29.3874C4.11983 29.6374 4.45281 29.7779 4.8 29.7779H6.98182V34.2223H4.8C4.45281 34.2223 4.11983 34.3628 3.87433 34.6128C3.62883 34.8629 3.49091 35.202 3.49091 35.5556C3.49091 35.9092 3.62883 36.2484 3.87433 36.4984C4.11983 36.7485 4.45281 36.8889 4.8 36.8889H6.98182V41.3334H1.30909C0.961898 41.3334 0.628926 41.4738 0.383424 41.7239C0.137922 41.9739 0 42.3131 0 42.6667C0 43.0203 0.137922 43.3594 0.383424 43.6095C0.628926 43.8595 0.961898 44 1.30909 44H46.6909C47.0381 44 47.3711 43.8595 47.6166 43.6095C47.8621 43.3594 48 43.0203 48 42.6667C48 42.3131 47.8621 41.9739 47.6166 41.7239C47.3711 41.4738 47.0381 41.3334 46.6909 41.3334ZM37.9636 10.8314L43.2698 32.4445H32.6575L37.9636 10.8314ZM9.6 29.7779H19.2V34.2223H9.6V29.7779ZM9.6 36.8889H19.2V41.3334H9.6V36.8889ZM21.3818 19.1113C22.5038 19.1113 23.6005 18.7724 24.5334 18.1376C25.4663 17.5027 26.1934 16.6004 26.6227 15.5446C27.0521 14.4889 27.1644 13.3272 26.9455 12.2064C26.7267 11.0856 26.1864 10.0561 25.393 9.24809C24.5997 8.44006 23.5889 7.88979 22.4885 7.66685C21.3881 7.44392 20.2475 7.55833 19.211 7.99564C18.1744 8.43294 17.2884 9.17349 16.6651 10.1236C16.0418 11.0738 15.7091 12.1908 15.7091 13.3336C15.7091 14.8659 16.3068 16.3355 17.3706 17.419C18.4344 18.5026 19.8773 19.1113 21.3818 19.1113ZM21.3818 10.2225C21.986 10.2225 22.5765 10.4049 23.0788 10.7468C23.5812 11.0886 23.9727 11.5745 24.2038 12.143C24.435 12.7115 24.4955 13.337 24.3777 13.9405C24.2598 14.544 23.9689 15.0983 23.5417 15.5334C23.1145 15.9685 22.5703 16.2648 21.9777 16.3849C21.3852 16.5049 20.771 16.4433 20.2129 16.2078C19.6547 15.9724 19.1777 15.5736 18.8421 15.062C18.5064 14.5504 18.3273 13.9489 18.3273 13.3336C18.3273 12.5085 18.6491 11.7171 19.2219 11.1337C19.7948 10.5503 20.5717 10.2225 21.3818 10.2225Z" fill="#2D2D39"/>
</svg>
