<svg width="48" height="48" viewBox="0 0 48 48" fill="none" xmlns="http://www.w3.org/2000/svg">
<path d="M24 12.6H18.3C17.7961 12.6 17.3128 12.8002 16.9565 13.1565C16.6002 13.5128 16.4 13.9961 16.4 14.5V33.5C16.4 34.0039 16.6002 34.4872 16.9565 34.8435C17.3128 35.1998 17.7961 35.4 18.3 35.4C18.8039 35.4 19.2872 35.1998 19.6435 34.8435C19.9998 34.4872 20.2 34.0039 20.2 33.5V27.8H24C26.0156 27.8 27.9487 26.9993 29.374 25.574C30.7993 24.1487 31.6 22.2156 31.6 20.2C31.6 18.1844 30.7993 16.2513 29.374 14.826C27.9487 13.4007 26.0156 12.6 24 12.6ZM24 24H20.2V16.4H24C25.0078 16.4 25.9744 16.8004 26.687 17.513C27.3996 18.2256 27.8 19.1922 27.8 20.2C27.8 21.2078 27.3996 22.1744 26.687 22.887C25.9744 23.5996 25.0078 24 24 24ZM37.3 5H10.7C9.18827 5 7.73845 5.60053 6.66949 6.66949C5.60053 7.73845 5 9.18827 5 10.7V37.3C5 38.8117 5.60053 40.2616 6.66949 41.3305C7.73845 42.3995 9.18827 43 10.7 43H37.3C38.8117 43 40.2616 42.3995 41.3305 41.3305C42.3995 40.2616 43 38.8117 43 37.3V10.7C43 9.18827 42.3995 7.73845 41.3305 6.66949C40.2616 5.60053 38.8117 5 37.3 5ZM40.15 37.3C40.15 38.25 39.5563 38.8437 39.2 39.2C38.8437 39.5563 38.25 40.15 37.3 40.15H10.7C9.75 40.15 9.15632 39.5563 8.8 39.2C8.44368 38.8437 7.85 38.25 7.85 37.3V10.7C7.85 9.75 8.44368 9.15632 8.8 8.8C9.15632 8.44368 9.75 7.85 10.7 7.85H37.3C38.25 7.85 38.8437 8.44368 39.2 8.8C39.5563 9.15632 40.15 9.75 40.15 10.7V37.3Z" fill="#2D2D39"/>
</svg>
