<svg width="360" height="380" viewBox="0 0 360 380" fill="none" xmlns="http://www.w3.org/2000/svg">
<path d="M360 189.966L359.741 220.011L359.03 237.56L357.865 252.241L356.183 265.146L354.049 276.823L351.461 287.612L348.356 297.513L344.798 306.731L340.787 315.335L336.259 323.324L331.278 330.699L325.779 337.596L319.828 343.878L313.294 349.682L306.307 354.94L298.739 359.72L290.588 363.953L281.854 367.709L272.474 370.987L262.253 373.718L251.191 375.971L238.965 377.747L225.057 378.976L208.431 379.727L179.968 380L151.569 379.727L134.943 378.976L121.035 377.747L108.809 375.971L97.7466 373.718L87.5256 370.987L78.1456 367.709L69.4124 363.953L61.2615 359.72L53.6927 354.94L46.7062 349.682L40.1725 343.878L34.221 337.596L28.7224 330.699L23.7412 323.324L19.2129 315.335L15.2022 306.731L11.6442 297.513L8.53908 287.612L5.95148 276.823L3.81671 265.146L2.13477 252.241L0.97035 237.56L0.25876 220.011L0 190.034L0.25876 159.989L0.97035 142.44L2.13477 127.759L3.81671 114.854L5.95148 103.177L8.53908 92.3881L11.6442 82.487L15.2022 73.2686L19.2129 64.6649L23.7412 56.6756L28.7224 49.301L34.221 42.4043L40.1725 36.1222L46.7062 30.3181L53.6927 25.0602L61.2615 20.2803L69.4124 16.0467L78.1456 12.2911L87.5256 9.01348L97.7466 6.28212L108.809 4.02875L121.035 2.25337L134.943 1.02426L151.569 0.273136L179.968 0L208.431 0.273136L225.057 1.02426L238.965 2.25337L251.191 4.02875L262.253 6.28212L272.474 9.01348L281.854 12.2911L290.588 16.0467L298.739 20.2803L306.307 25.0602L313.294 30.3181L319.828 36.1222L325.779 42.4043L331.278 49.301L336.259 56.6756L340.787 64.6649L344.798 73.2686L348.356 82.487L351.461 92.3881L354.049 103.177L356.183 114.854L357.865 127.759L359.03 142.44L359.741 159.989L360 189.966Z" fill="#FAFAFA"/>
</svg>
