<svg width="134" height="134" viewBox="0 0 134 134" fill="none" xmlns="http://www.w3.org/2000/svg">
<path fill-rule="evenodd" clip-rule="evenodd" d="M66.9882 0L77.4508 0.0951145L83.5839 0.357623L88.7305 0.788496L93.2665 1.41251L97.3772 2.2058L101.188 3.17043L104.693 4.33081L107.959 5.66136L111.016 7.16561L113.861 8.86763L116.488 10.7406L118.947 12.8103L121.19 15.0532L123.259 17.5124L125.132 20.1395L126.834 22.9843L128.339 26.0413L129.669 29.3072L130.83 32.8126L131.794 36.6228L132.588 40.7335L133.212 45.2696L133.642 50.4162L133.905 56.5493L134 66.9882L133.905 77.4508L133.642 83.5839L133.212 88.7305L132.588 93.2665L131.794 97.3772L130.83 101.188L129.669 104.693L128.339 107.959L126.834 111.016L125.132 113.861L123.259 116.488L121.19 118.947L118.947 121.19L116.488 123.259L113.861 125.132L111.016 126.834L107.959 128.339L104.693 129.669L101.188 130.83L97.3772 131.794L93.2665 132.588L88.7305 133.212L83.5839 133.642L77.4508 133.905L66.9882 134L56.5493 133.905L50.4162 133.642L45.2696 133.212L40.7335 132.588L36.6228 131.794L32.8126 130.83L29.3072 129.669L26.0413 128.339L22.9843 126.834L20.1395 125.132L17.5124 123.259L15.0532 121.19L12.8103 118.947L10.7406 116.488L8.86763 113.861L7.16561 111.016L5.66136 107.959L4.33081 104.693L3.17043 101.188L2.2058 97.3772L1.41251 93.2665L0.788496 88.7305L0.357623 83.5839L0.0951149 77.4508L0 67.0119L0.0951145 56.5493L0.357623 50.4162L0.788496 45.2696L1.41251 40.7335L2.2058 36.6228L3.17043 32.8126L4.33081 29.3072L5.66136 26.0413L7.16561 22.9843L8.86763 20.1395L10.7406 17.5124L12.8103 15.0532L15.0532 12.8103L17.5124 10.7406L20.1395 8.86763L22.9843 7.16561L26.0413 5.66136L29.3072 4.33081L32.8126 3.17043L36.6228 2.2058L40.7335 1.41251L45.2696 0.788496L50.4162 0.357623L56.5493 0.0951149L66.9882 0ZM66.9882 2.00008L56.6012 2.09473L50.5424 2.35405L45.4895 2.77709L41.0595 3.3865L37.0581 4.1587L33.373 5.09165L29.9996 6.20836L26.8612 7.48697L23.9408 8.92396L21.2352 10.5427L18.7389 12.3225L16.4067 14.2852L14.2852 16.4067L12.3225 18.7389L10.5427 21.2352L8.92396 23.9408L7.48697 26.8612L6.20836 29.9996L5.09165 33.373L4.1587 37.0581L3.3865 41.0595L2.77709 45.4895L2.35405 50.5424L2.09473 56.6012L2.00008 67.0119L2.09473 77.3989L2.35405 83.4577L2.77709 88.5106L3.3865 92.9405L4.15871 96.942L5.09165 100.627L6.20836 104L7.48696 107.139L8.92394 110.059L10.5427 112.765L12.3225 115.261L14.2852 117.593L16.4067 119.715L18.7388 121.678L21.2352 123.457L23.9408 125.076L26.8611 126.513L29.9996 127.792L33.373 128.908L37.0581 129.841L41.0595 130.614L45.4895 131.223L50.5422 131.646L56.6013 131.905L66.9791 132H66.9973L77.3988 131.905L83.4578 131.646L88.5106 131.223L92.9406 130.614L96.942 129.841L100.627 128.908L104 127.792L107.139 126.513L110.059 125.076L112.765 123.457L115.261 121.678L117.593 119.715L119.715 117.593L121.678 115.261L123.457 112.765L125.076 110.059L126.513 107.139L127.792 104L128.908 100.627L129.841 96.942L130.614 92.9406L131.223 88.5106L131.646 83.4578L131.905 77.3988L132 66.9973V66.9791L131.905 56.6013L131.646 50.5422L131.223 45.4895L130.614 41.0595L129.841 37.0581L128.908 33.373L127.792 29.9996L126.513 26.8611L125.076 23.9408L123.457 21.2352L121.678 18.7388L119.715 16.4067L117.593 14.2852L115.261 12.3225L112.765 10.5427L110.059 8.92394L107.139 7.48696L104 6.20836L100.627 5.09165L96.942 4.15871L92.9405 3.3865L88.5106 2.77709L83.4577 2.35405L77.3989 2.09473L66.9882 2.00008Z" fill="#F2CFBE"/>
<path d="M79.9595 81V83.25H92.0495L84.0095 102H86.5595L95.5595 81H79.9595Z" fill="#F2CFBE"/>
<path fill-rule="evenodd" clip-rule="evenodd" d="M25 25C25 23.8954 25.8954 23 27 23H40C41.1046 23 42 23.8954 42 25V50H27C25.8954 50 25 49.1046 25 48V25ZM40 25L27 25V48H40V25Z" fill="#F2CFBE"/>
<path fill-rule="evenodd" clip-rule="evenodd" d="M40 32H49C50.1046 32 51 32.8954 51 34V48C51 49.1046 50.1046 50 49 50H40V32ZM42 34V48H49V34H42Z" fill="#F2CFBE"/>
</svg>
