<svg width="18" height="30" viewBox="0 0 18 30" fill="none" xmlns="http://www.w3.org/2000/svg">
<path fill-rule="evenodd" clip-rule="evenodd" d="M12.875 1H15C16.1046 1 17 1.89543 17 3V27C17 28.1046 16.1046 29 15 29H3C1.89543 29 1 28.1046 1 27V3C1 1.89543 1.89543 1 3 1H5.12503V2.46154C5.12503 3.28997 5.7966 3.96154 6.62503 3.96154H11.375C12.2035 3.96154 12.875 3.28997 12.875 2.46154V1ZM11.875 0H12.875H15C16.6569 0 18 1.34315 18 3V27C18 28.6569 16.6569 30 15 30H3C1.34315 30 0 28.6569 0 27V3C0 1.34315 1.34315 0 3 0H5.12503H6.12503H11.875ZM6.12503 1H11.875V2.46154C11.875 2.73768 11.6512 2.96154 11.375 2.96154H6.62503C6.34889 2.96154 6.12503 2.73768 6.12503 2.46154V1ZM11.2494 27.0385H6.74943V26.0385H11.2494V27.0385Z" fill="white"/>
</svg>
