<svg width="74" height="74" viewBox="0 0 74 74" fill="none" xmlns="http://www.w3.org/2000/svg">
<path fill-rule="evenodd" clip-rule="evenodd" d="M16.6741 68.7024H13.6651L13.6651 7.59229H11.6651L11.6651 68.7024H8.65967V70.7024H16.6741V68.7024ZM59.7517 68.7024L59.7517 7.59229H61.7517L61.7517 68.7024H64.7608V70.7024H56.7463V68.7024H59.7517ZM36.6978 7.6889V7.68823H41.5601C44.0469 7.68823 46.1335 8.80607 47.5725 10.7248C48.9958 12.6225 49.7594 15.2606 49.7594 18.3187V23.4906H53.7151L53.7151 25.3022H49.7594V58.4329C49.7594 60.0157 48.7603 61.7769 46.9985 63.1066C45.2098 64.4566 42.58 65.4166 39.129 65.4166H36.6979H36.6978H34.2667C30.8157 65.4166 28.1859 64.4566 26.3972 63.1066C24.6354 61.7769 23.6363 60.0157 23.6363 58.4329V25.3023H19.6797V23.4908H23.6363V23.1805V22.5724V18.3187C23.6363 15.2606 24.3999 12.6225 25.8231 10.7248C27.2622 8.80607 29.3488 7.68823 31.8356 7.68823H36.6972L36.6978 7.6889ZM39.129 63.605H36.6979H36.6978H34.2667C31.1536 63.605 28.921 62.7417 27.4885 61.6606C26.029 60.5591 25.4479 59.2813 25.4479 58.4329V28.2173C26.3478 29.6949 27.4705 31.108 28.4986 32.0863V47.2867C28.0697 48.2154 27.7762 49.3492 27.5857 50.4186C27.3799 51.5746 27.283 52.7219 27.283 53.5706V54.1839L27.8524 54.4117C29.2034 54.952 32.6063 55.692 36.6975 55.692C40.7888 55.692 44.1917 54.952 45.5427 54.4117L46.2634 54.1234L46.0889 53.367C45.9752 52.8743 45.9029 52.2719 45.819 51.5719V51.5719C45.7772 51.2231 45.7324 50.8501 45.6782 50.4545C45.5362 49.4172 45.3294 48.2524 44.8971 47.2909V32.082C45.9258 31.1024 47.0484 29.6883 47.9478 28.2102V58.4329C47.9478 59.2813 47.3667 60.5591 45.9072 61.6606C44.4746 62.7417 42.242 63.605 39.129 63.605ZM43.0856 46.8664C41.8165 47.2823 39.3137 47.8027 36.6975 47.8027C34.0818 47.8027 31.5795 47.2825 30.3102 46.8666V32.2993C30.7905 32.1391 31.5067 31.9523 32.3936 31.7873C33.6555 31.5526 35.1791 31.3773 36.6937 31.3773L36.6978 31.3756V31.3772C38.2124 31.3772 39.7359 31.5525 40.9978 31.7872C41.8874 31.9527 42.6052 32.1401 43.0856 32.3007V46.8664ZM27.1439 21.6335C26.5489 21.7226 25.9729 21.8279 25.4479 21.9544V18.3187C25.4479 15.542 26.143 13.3177 27.2724 11.8118C28.3861 10.3269 29.9463 9.49982 31.8356 9.49982H36.6978H36.6979H41.5601C43.4494 9.49982 45.0096 10.3269 46.1233 11.8118C47.2527 13.3177 47.9478 15.542 47.9478 18.3187V21.9553C47.4217 21.8283 46.8442 21.7227 46.2475 21.6334C45.1117 21.4633 43.8437 21.3435 42.6075 21.2591C40.1344 21.0901 37.7428 21.0595 36.6978 21.0595V21.0625L36.6937 21.0596C35.6486 21.0596 33.257 21.0902 30.784 21.2591C29.5477 21.3436 28.2798 21.4634 27.1439 21.6335ZM36.6978 29.5656V29.5681L36.6937 29.5657C35.0489 29.5657 33.413 29.755 32.0623 30.0063C31.0971 30.1859 30.2308 30.4057 29.598 30.6289C28.7367 29.7775 27.7658 28.5474 26.9725 27.2377C26.2118 25.982 25.6835 24.7659 25.5099 23.8095C26.024 23.6653 26.6691 23.5364 27.4122 23.4251C28.4826 23.2648 29.6982 23.1491 30.9075 23.0665C33.3254 22.9013 35.673 22.8712 36.6937 22.8712L36.6978 22.8684V22.8711C37.7185 22.8711 40.066 22.9012 42.484 23.0664C43.6933 23.1491 44.9088 23.2647 45.9792 23.425C46.7224 23.5363 47.3675 23.6652 47.8815 23.8094C47.7079 24.7658 47.1797 25.9819 46.419 27.2376C45.6256 28.5473 44.6547 29.7774 43.7935 30.6288C43.1607 30.4056 42.2944 30.1858 41.3292 30.0062C39.9784 29.7549 38.3426 29.5656 36.6978 29.5656ZM29.3693 50.7362C29.5026 49.9876 29.6818 49.2603 29.9038 48.6379C31.4413 49.1185 34.0403 49.6143 36.6975 49.6143C39.3433 49.6143 41.9313 49.1227 43.4712 48.6442C43.6535 49.2386 43.7796 49.9423 43.8834 50.7003C43.9257 51.0087 43.9647 51.3328 44.0039 51.6582L44.0039 51.6583L44.0039 51.6585L44.0039 51.6588C44.0574 52.103 44.1112 52.5495 44.1738 52.9616C42.729 53.3787 39.9821 53.8804 36.6975 53.8804C33.3289 53.8804 30.5258 53.3527 29.1129 52.9298C29.1471 52.2865 29.2302 51.5172 29.3693 50.7362Z" fill="#2C2B38"/>
</svg>
