<svg width="200" height="25" viewBox="0 0 200 25" fill="none" xmlns="http://www.w3.org/2000/svg">
<path d="M72.488 0H62.9187V24.7642H66.9857V18.8679H72.488C75.1195 18.8679 77.5119 17.9245 79.4257 16.0377C81.3396 13.9151 82.2965 12.2642 82.2965 9.43396C82.2965 6.83962 81.3396 4.71698 79.4257 2.83019C77.5119 0.943396 75.3588 0 72.488 0ZM76.7942 13.2075C75.598 14.3868 74.1626 14.8585 72.7272 14.8585H66.9857V3.77358H72.488C74.1626 3.77358 75.598 4.24528 76.5549 5.42453C77.7511 6.60377 78.2296 7.78302 78.2296 9.43396C78.4688 11.0849 77.7511 12.0283 76.7942 13.2075Z" fill="#1C2B42"/>
<path d="M12.9185 13.2075L1.67463 0H0V24.7642H3.82772V8.72641L12.9185 19.1038L22.0094 8.72641V24.7642H25.8371V0H24.1625L12.9185 13.2075Z" fill="#1C2B42"/>
<path d="M45.4545 0H43.5406L31.8182 24.7642H36.1244L38.9952 18.8679H49.7607L52.6314 25H56.9376L45.4545 0ZM40.9091 14.8585L44.4976 7.31132L48.086 14.8585H40.9091Z" fill="#1C2B42"/>
<path d="M102.393 13.2075L91.149 0H89.4744V24.7642H93.3021V8.72641L102.393 19.1038L111.244 8.72641V24.7642H115.311V0H113.637L102.393 13.2075Z" fill="#1C2B42"/>
<path d="M133.012 0L121.289 24.7642H125.595L128.466 18.8679H139.232L142.103 25H146.409L134.926 0H133.012ZM130.38 14.8585L133.969 7.31132L137.557 14.8585H130.38Z" fill="#1C2B42"/>
<path d="M195.694 17.9245C195.455 18.1604 195.215 18.3962 195.215 18.3962C193.541 20.0472 191.388 20.9906 188.995 20.9906C186.603 20.9906 184.45 20.0472 182.775 18.3962C181.101 16.7453 180.144 14.6226 180.144 12.2641C180.144 9.90566 181.101 7.78302 182.775 6.13207C184.45 4.48113 186.603 3.53774 188.995 3.53774C191.388 3.53774 193.541 4.48113 195.215 6.13207C195.215 6.13207 195.694 6.60377 195.933 6.83962C196.172 7.07547 196.651 7.78302 196.651 7.78302L200 5.89623C200 5.89623 199.282 4.48113 198.565 4.00943L198.086 3.53774C195.694 1.17925 192.584 0 189.234 0C185.646 0 182.775 1.17925 180.383 3.53774C177.991 5.89623 176.794 8.96226 176.794 12.2641C176.794 15.8019 177.991 18.6321 180.383 20.9906C182.775 23.3491 185.885 24.5283 189.234 24.5283C192.584 24.5283 195.694 23.3491 198.086 20.9906C198.086 20.9906 198.565 20.5189 198.804 20.283C199.043 20.0472 199.521 19.3396 199.521 19.3396L196.411 16.9811C196.172 17.217 195.933 17.6887 195.694 17.9245Z" fill="#1C2B42"/>
<path d="M169.137 0L160.047 10.3774H156.219V0H152.152V24.7642H156.219V14.3868H160.047L169.137 24.7642H174.4L163.635 12.5L174.4 0H169.137Z" fill="#1C2B42"/>
</svg>
