<svg width="250" height="56" viewBox="0 0 250 56" fill="none" xmlns="http://www.w3.org/2000/svg">
<path d="M20.8167 0.838623V30.1639H24.1665V3.98015H40.9023V30.1639H44.2521V0.838623H20.8167Z" fill="#F2CFBE"/>
<path d="M71.0106 27.4484C67.3817 27.4484 64.4971 26.3568 62.3436 24.1738C60.1636 21.9907 59.0736 19.1021 59.0736 15.4946C59.0736 11.8872 60.1636 8.9986 62.3436 6.81551C64.4971 4.63242 67.3817 3.54087 71.0106 3.54087C74.6396 3.54087 77.5242 4.63242 79.6776 6.81551C81.8577 8.9986 82.9477 11.8872 82.9477 15.4946C82.9477 19.1021 81.8577 21.9907 79.6776 24.1738C77.5242 26.3568 74.6396 27.4484 71.0106 27.4484ZM71.0106 0.412659C66.3847 0.412659 62.6893 1.78375 59.9243 4.51261C57.1328 7.25479 55.7371 10.9155 55.7371 15.4946C55.7371 20.0738 57.1328 23.7345 59.9243 26.4767C62.6893 29.2188 66.3847 30.5766 71.0106 30.5766C75.6366 30.5766 79.332 29.2055 82.0969 26.4767C84.8884 23.7345 86.2842 20.0738 86.2842 15.4946C86.2842 10.9155 84.8884 7.25479 82.0969 4.51261C79.332 1.78375 75.6366 0.412659 71.0106 0.412659Z" fill="#F2CFBE"/>
<path d="M121.178 30.1639L107.792 0L94.4062 30.1639H97.9555L107.792 8.00024L117.629 30.1639H121.178Z" fill="#F2CFBE"/>
<path d="M150.463 15.7076H140.838C139.057 15.7076 137.635 15.1752 136.571 14.1102C135.508 13.0453 134.976 11.621 134.976 9.83722C134.976 8.05348 135.508 6.62914 136.571 5.56422C137.635 4.4993 139.057 3.96683 140.838 3.96683H150.463V15.7076ZM131.214 30.1639H135.069L141.184 21.9108C142.075 20.7128 142.965 19.8874 143.869 19.4348C144.68 19.0488 145.81 18.8491 147.259 18.8491H150.476V30.1639H153.826V0.838623H140.852C138.06 0.838623 135.827 1.66394 134.152 3.31457C132.477 4.92527 131.64 7.10836 131.64 9.85054C131.64 12.5927 132.477 14.7625 134.152 16.3865C135.827 18.0371 138.06 18.8624 140.852 18.8624H142.394C140.187 19.315 138.432 20.4332 137.116 22.217L131.214 30.1639Z" fill="#F2CFBE"/>
<path d="M188.121 0.838623V13.8307H171.385V0.838623H168.036V30.1639H171.385V16.9722H188.121V30.1639H191.471V0.838623H188.121Z" fill="#F2CFBE"/>
<path d="M229.183 30.1639L215.797 0L202.411 30.1639H203.754H205.708H205.987L207.649 26.3968C208.592 24.2536 210.121 22.4166 212.088 21.152C212.102 21.1387 212.115 21.1387 212.128 21.1254C214.627 19.5014 217.552 18.9423 220.888 19.4348L225.634 30.1506H229.183V30.1639ZM210.626 19.6611L215.797 7.9603L220.569 18.7293C216.768 18.1436 213.444 18.4631 210.626 19.6611Z" fill="#F2CFBE"/>
<path d="M3.58909 45.7502C4.41325 45.7502 5.0779 46.0031 5.58303 46.4956C6.07487 47.0015 6.32743 47.667 6.32743 48.4924C6.32743 49.3177 6.07487 49.9832 5.58303 50.4891C5.0779 50.9816 4.41325 51.2345 3.58909 51.2345H0.970383V54.2829H0V45.7502H3.58909ZM3.58909 50.3294C4.12081 50.3294 4.54618 50.1563 4.86521 49.8235C5.18424 49.4907 5.35705 49.0514 5.35705 48.4924C5.35705 47.9333 5.19753 47.494 4.86521 47.1612C4.54618 46.8284 4.12081 46.6554 3.58909 46.6554H0.970383V50.316L3.58909 50.3294Z" fill="#F2CFBE"/>
<path d="M14.9678 45.7502V46.6687H10.0893V49.5307H14.5956V50.4492H10.0893V53.3777H14.9678V54.2829H9.1189V45.7502H14.9678Z" fill="#F2CFBE"/>
<path d="M22.1858 48.6254C22.9967 48.7585 23.6347 49.078 24.1133 49.5705C24.5785 50.0764 24.8178 50.7153 24.8178 51.4741C24.8178 52.366 24.4988 53.0715 23.874 53.5906C23.2492 54.1231 22.4118 54.3893 21.3484 54.3893C20.2982 54.3893 19.4608 54.1364 18.8227 53.6439C18.1846 53.1514 17.8789 52.5124 17.8789 51.7004C17.8789 50.3959 18.7031 49.6371 20.3514 49.3975L22.7042 46.642H18.3043V45.7235H24.6317L22.1858 48.6254ZM21.3484 53.4974C22.1061 53.4974 22.7042 53.3111 23.1695 52.9517C23.6214 52.5923 23.8474 52.0997 23.8474 51.4874C23.8474 50.8751 23.6214 50.3959 23.1695 50.0231C22.7175 49.6637 22.1061 49.4774 21.3484 49.4774C20.5907 49.4774 19.9925 49.6637 19.5272 50.0231C19.0753 50.3825 18.8493 50.8751 18.8493 51.4874C18.8493 52.0997 19.0753 52.579 19.5272 52.9517C19.9792 53.3111 20.5907 53.4974 21.3484 53.4974Z" fill="#F2CFBE"/>
<path d="M34.5351 45.5105V54.2828H33.5647V48.053L27.7158 54.5358V45.7501H28.6862V51.9799L34.5351 45.5105Z" fill="#F2CFBE"/>
<path d="M44.7307 53.3776H45.5017V56H44.5313V54.2961H37.9513V56H36.981V53.3776H37.7519L41.248 45.5105L44.7307 53.3776ZM38.7755 53.3776H43.6939L41.2347 47.84L38.7755 53.3776Z" fill="#F2CFBE"/>
<path d="M53.7832 45.7502V46.6687H48.9047V49.5307H53.411V50.4492H48.9047V53.3777H53.7832V54.2829H47.9343V45.7502H53.7832Z" fill="#F2CFBE"/>
<path d="M63.6201 45.7502V54.2829H62.6364V50.4492H57.7712V54.2829H56.8008V45.7502H57.7712V49.5307H62.6364V45.7502H63.6201Z" fill="#F2CFBE"/>
<path d="M73.9485 45.7502V53.3777H74.9189V56.0001H73.9485V54.2829H67.116V45.7502H68.0996V53.3777H72.9649V45.7502H73.9485Z" fill="#F2CFBE"/>
<path d="M84.6891 45.5105V54.2828H83.7188V48.053L77.8699 54.5358V45.7501H78.8536V51.9799L84.6891 45.5105Z" fill="#F2CFBE"/>
<path d="M89.4747 51.9667C89.8602 51.4475 90.3653 51.1147 91.0033 50.9949H90.5514C89.7405 50.9949 89.0892 50.7553 88.5973 50.2761C88.1055 49.8102 87.8662 49.1712 87.8662 48.3726C87.8662 47.5739 88.1055 46.9349 88.5973 46.469C89.0892 45.9898 89.7272 45.7502 90.5514 45.7502H94.3266V54.2829H93.3562V50.9949H92.4124C91.987 50.9949 91.668 51.0482 91.4287 51.168C91.1629 51.3011 90.9103 51.5407 90.6444 51.8868L88.8632 54.2829H87.7466L89.4747 51.9667ZM93.3562 46.6687H90.5514C90.033 46.6687 89.6209 46.8284 89.3152 47.1346C89.0094 47.4407 88.8499 47.8534 88.8499 48.3726C88.8499 48.8917 89.0094 49.3044 89.3152 49.6105C89.6209 49.9167 90.033 50.0764 90.5514 50.0764H93.3562V46.6687Z" fill="#F2CFBE"/>
<path d="M105.759 48.6254C106.569 48.7585 107.207 49.078 107.686 49.5705C108.151 50.0764 108.391 50.7153 108.391 51.4741C108.391 52.366 108.072 53.0715 107.447 53.5906C106.822 54.1231 105.985 54.3893 104.921 54.3893C103.871 54.3893 103.034 54.1364 102.395 53.6439C101.757 53.1514 101.452 52.5124 101.452 51.7004C101.452 50.3959 102.276 49.6371 103.924 49.3975L106.277 46.642H101.877V45.7235H108.204L105.759 48.6254ZM104.921 53.4974C105.679 53.4974 106.277 53.3111 106.742 52.9517C107.194 52.5923 107.42 52.0997 107.42 51.4874C107.42 50.8751 107.194 50.3959 106.742 50.0231C106.29 49.6637 105.679 49.4774 104.921 49.4774C104.163 49.4774 103.565 49.6637 103.1 50.0231C102.648 50.3825 102.422 50.8751 102.422 51.4874C102.422 52.0997 102.648 52.579 103.1 52.9517C103.565 53.3111 104.163 53.4974 104.921 53.4974Z" fill="#F2CFBE"/>
<path d="M117.616 54.2828H116.579L115.649 52.2062H111.78L110.85 54.2828H109.813L113.708 45.4972L117.616 54.2828ZM112.179 51.3011H115.25L113.721 47.8401L112.179 51.3011Z" fill="#F2CFBE"/>
<path d="M125.259 45.7502V46.6686H120.62V54.2828H119.65V45.7502H125.259Z" fill="#F2CFBE"/>
<path d="M130.39 45.6303C131.733 45.6303 132.81 46.0297 133.621 46.8283C134.431 47.627 134.844 48.692 134.844 50.0231C134.844 51.3543 134.431 52.4192 133.621 53.2179C132.823 54.0166 131.746 54.4159 130.39 54.4159C129.048 54.4159 127.971 54.0166 127.16 53.2179C126.349 52.4192 125.937 51.3543 125.937 50.0231C125.937 48.692 126.349 47.627 127.16 46.8283C127.958 46.0297 129.035 45.6303 130.39 45.6303ZM130.39 53.4974C131.441 53.4974 132.291 53.178 132.916 52.5523C133.554 51.9134 133.86 51.0747 133.86 50.0231C133.86 48.9715 133.541 48.1329 132.916 47.4939C132.291 46.855 131.454 46.5488 130.39 46.5488C129.34 46.5488 128.489 46.8683 127.865 47.4939C127.227 48.1329 126.921 48.9715 126.921 50.0231C126.921 51.0747 127.24 51.9134 127.865 52.5523C128.489 53.178 129.327 53.4974 130.39 53.4974Z" fill="#F2CFBE"/>
<path d="M140.759 45.7502C141.583 45.7502 142.248 46.0031 142.753 46.4956C143.245 47.0014 143.497 47.667 143.497 48.4923C143.497 49.3176 143.245 49.9832 142.753 50.4891C142.248 50.9816 141.583 51.2345 140.759 51.2345H138.14V54.2828H137.17V45.7502H140.759ZM140.759 50.3293C141.29 50.3293 141.716 50.1563 142.035 49.8235C142.354 49.4907 142.527 49.0514 142.527 48.4923C142.527 47.9332 142.367 47.494 142.035 47.1612C141.716 46.8284 141.29 46.6553 140.759 46.6553H138.14V50.316L140.759 50.3293Z" fill="#F2CFBE"/>
<path d="M149.678 45.6303C151.021 45.6303 152.098 46.0297 152.909 46.8283C153.72 47.627 154.132 48.692 154.132 50.0231C154.132 51.3543 153.72 52.4192 152.909 53.2179C152.111 54.0166 151.034 54.4159 149.678 54.4159C148.336 54.4159 147.259 54.0166 146.448 53.2179C145.637 52.4192 145.225 51.3543 145.225 50.0231C145.225 48.692 145.637 47.627 146.448 46.8283C147.259 46.0297 148.336 45.6303 149.678 45.6303ZM149.678 53.4974C150.729 53.4974 151.579 53.178 152.204 52.5523C152.842 51.9134 153.148 51.0747 153.148 50.0231C153.148 48.9715 152.829 48.1329 152.204 47.4939C151.579 46.855 150.742 46.5488 149.678 46.5488C148.628 46.5488 147.778 46.8683 147.153 47.4939C146.515 48.1329 146.209 48.9715 146.209 50.0231C146.209 51.0747 146.528 51.9134 147.153 52.5523C147.791 53.178 148.628 53.4974 149.678 53.4974Z" fill="#F2CFBE"/>
<path d="M163.104 53.3776H163.875V56H162.905V54.2961H156.325V56H155.354V53.3776H156.125L159.622 45.5105L163.104 53.3776ZM157.149 53.3776H162.067L159.608 47.84L157.149 53.3776Z" fill="#F2CFBE"/>
<path d="M172.795 45.7502V54.2828H171.824V50.4491H166.946V54.2828H165.976V45.7502H166.946V49.5306H171.824V45.7502H172.795Z" fill="#F2CFBE"/>
<path d="M179.574 45.6303C180.917 45.6303 181.994 46.0297 182.804 46.8283C183.615 47.627 184.027 48.692 184.027 50.0231C184.027 51.3543 183.615 52.4192 182.804 53.2179C182.007 54.0166 180.93 54.4159 179.574 54.4159C178.232 54.4159 177.155 54.0166 176.344 53.2179C175.533 52.4192 175.121 51.3543 175.121 50.0231C175.121 48.692 175.533 47.627 176.344 46.8283C177.155 46.0297 178.232 45.6303 179.574 45.6303ZM179.574 53.4974C180.624 53.4974 181.475 53.178 182.1 52.5523C182.738 51.9134 183.044 51.0747 183.044 50.0231C183.044 48.9715 182.725 48.1329 182.1 47.4939C181.475 46.855 180.638 46.5488 179.574 46.5488C178.524 46.5488 177.673 46.8683 177.049 47.4939C176.411 48.1329 176.105 48.9715 176.105 50.0231C176.105 51.0747 176.424 51.9134 177.049 52.5523C177.687 53.178 178.524 53.4974 179.574 53.4974Z" fill="#F2CFBE"/>
<path d="M193.186 45.5105V54.2961H192.216V48.0663L186.367 54.5491V45.7635H187.337V51.9799L193.186 45.5105ZM188.068 43.9131H191.484V44.7651H188.068V43.9131Z" fill="#F2CFBE"/>
<path d="M200.989 45.7502L204.645 50.0232L200.989 54.2962H199.819L203.475 50.0232L199.819 45.7502H200.989ZM205.296 45.7502H206.266V54.2829H205.296V45.7502ZM211.756 45.7502L208.101 50.0232L211.756 54.2962H210.587L206.931 50.0232L210.587 45.7502H211.756Z" fill="#F2CFBE"/>
<path d="M221.008 45.5105V54.2828H220.038V48.053L214.189 54.5358V45.7501H215.159V51.9799L221.008 45.5105Z" fill="#F2CFBE"/>
<path d="M228 48.6254C228.811 48.7585 229.449 49.078 229.928 49.5705C230.393 50.0764 230.632 50.7153 230.632 51.4741C230.632 52.366 230.313 53.0715 229.688 53.5906C229.064 54.1231 228.226 54.3893 227.163 54.3893C226.113 54.3893 225.275 54.1364 224.637 53.6439C223.999 53.1514 223.693 52.5124 223.693 51.7004C223.693 50.3959 224.518 49.6371 226.166 49.3975L228.519 46.642H224.119V45.7235H230.446L228 48.6254ZM227.163 53.4974C227.921 53.4974 228.519 53.3111 228.984 52.9517C229.436 52.5923 229.662 52.0997 229.662 51.4874C229.662 50.8751 229.436 50.3959 228.984 50.0231C228.532 49.6637 227.921 49.4774 227.163 49.4774C226.405 49.4774 225.807 49.6637 225.342 50.0231C224.89 50.3825 224.664 50.8751 224.664 51.4874C224.664 52.0997 224.89 52.579 225.342 52.9517C225.807 53.3111 226.405 53.4974 227.163 53.4974Z" fill="#F2CFBE"/>
<path d="M240.017 45.7502V54.2829H239.047V50.4492H234.168V54.2829H233.198V45.7502H234.168V49.5307H239.047V45.7502H240.017Z" fill="#F2CFBE"/>
<path d="M250 45.5105V54.2828H249.03V48.053L243.181 54.5358V45.7501H244.151V51.9799L250 45.5105Z" fill="#F2CFBE"/>
</svg>
