<svg width="48" height="48" viewBox="0 0 48 48" fill="none" xmlns="http://www.w3.org/2000/svg">
<g clip-path="url(#clip0_44_69)">
<path fill-rule="evenodd" clip-rule="evenodd" d="M23.9958 0L27.669 0.033392L29.8347 0.126091L31.6611 0.278993L33.2775 0.501365L34.7462 0.784784L36.1143 1.13115L37.3778 1.5494L38.5563 2.02952L39.6643 2.57477L40.6989 3.19375L41.6549 3.87536L42.5513 4.62968L43.3703 5.44874L44.1246 6.34505L44.8063 7.30108L45.4252 8.33566L45.9705 9.44375L46.4506 10.6222L46.8689 11.8857L47.2152 13.2538L47.4986 14.7225L47.721 16.3389L47.8739 18.1653L47.9666 20.331L48 23.9958L47.9666 27.669L47.8739 29.8347L47.721 31.6611L47.4986 33.2775L47.2152 34.7462L46.8689 36.1143L46.4506 37.3778L45.9705 38.5563L45.4252 39.6643L44.8063 40.6989L44.1246 41.6549L43.3703 42.5513L42.5513 43.3703L41.6549 44.1246L40.6989 44.8063L39.6643 45.4252L38.5563 45.9705L37.3778 46.4506L36.1143 46.8689L34.7462 47.2152L33.2775 47.4986L31.6611 47.721L29.8347 47.8739L27.669 47.9666L23.9958 48L20.331 47.9666L18.1653 47.8739L16.3389 47.721L14.7225 47.4986L13.2538 47.2152L11.8857 46.8689L10.6222 46.4506L9.44375 45.9705L8.33566 45.4252L7.30108 44.8063L6.34505 44.1246L5.44874 43.3703L4.62968 42.5513L3.87536 41.6549L3.19375 40.6989L2.57477 39.6643L2.02952 38.5563L1.5494 37.3778L1.13115 36.1143L0.784784 34.7462L0.501365 33.2775L0.278993 31.6611L0.126091 29.8347L0.0333924 27.669L0 24.0042L0.033392 20.331L0.126091 18.1653L0.278993 16.3389L0.501365 14.7225L0.784784 13.2538L1.13115 11.8857L1.5494 10.6222L2.02952 9.44375L2.57477 8.33566L3.19375 7.30108L3.87536 6.34505L4.62968 5.44874L5.44874 4.62968L6.34505 3.87536L7.30108 3.19375L8.33566 2.57477L9.44375 2.02952L10.6222 1.5494L11.8857 1.13115L13.2538 0.784784L14.7225 0.501365L16.3389 0.278993L18.1653 0.126091L20.331 0.0333924L23.9958 0ZM23.9959 1.84623L20.3789 1.87918L18.2818 1.96894L16.5419 2.11461L15.0234 2.32351L13.6556 2.58746L12.403 2.90458L11.2613 3.28252L10.2005 3.71469L9.2186 4.19785L8.3125 4.73997L7.4771 5.33557L6.69812 5.99115L5.99115 6.69812L5.33557 7.4771L4.73997 8.3125L4.19785 9.2186L3.71469 10.2005L3.28252 11.2613L2.90458 12.403L2.58746 13.6556L2.32351 15.0234L2.11461 16.5419L1.96894 18.2818L1.87918 20.3789L1.84623 24.0041L1.87918 27.6211L1.96894 29.7182L2.11461 31.4581L2.32351 32.9766L2.58746 34.3444L2.90458 35.597L3.28252 36.7387L3.71469 37.7995L4.19785 38.7814L4.73996 39.6875L5.33556 40.5229L5.99116 41.3019L6.69812 42.0089L7.47711 42.6644L8.31247 43.26L9.21859 43.8021L10.2005 44.2853L11.2613 44.7175L12.403 45.0954L13.6556 45.4125L15.0234 45.6765L16.5419 45.8854L18.2818 46.0311L20.3789 46.1208L23.9959 46.1538L27.6211 46.1208L29.7182 46.0311L31.4581 45.8854L32.9766 45.6765L34.3444 45.4125L35.597 45.0954L36.7387 44.7175L37.7995 44.2853L38.7814 43.8021L39.6875 43.26L40.5229 42.6644L41.3019 42.0088L42.0088 41.3019L42.6644 40.5229L43.26 39.6875L43.8021 38.7814L44.2853 37.7995L44.7175 36.7387L45.0954 35.597L45.4125 34.3444L45.6765 32.9766L45.8854 31.4581L46.0311 29.7182L46.1208 27.6211L46.1538 23.9959L46.1208 20.3789L46.0311 18.2818L45.8854 16.5419L45.6765 15.0234L45.4125 13.6556L45.0954 12.403L44.7175 11.2613L44.2853 10.2005L43.8021 9.21859L43.26 8.31247L42.6644 7.47711L42.0089 6.69812L41.3019 5.99116L40.5229 5.33556L39.6875 4.73996L38.7814 4.19785L37.7995 3.71469L36.7387 3.28252L35.597 2.90458L34.3444 2.58746L32.9766 2.32351L31.4581 2.11461L29.7182 1.96894L27.6211 1.87918L23.9959 1.84623Z" fill="#F2CFBE"/>
<path fill-rule="evenodd" clip-rule="evenodd" d="M28.8364 18.5493C29.0293 18.4711 29.2405 18.4441 29.4479 18.4712C29.6554 18.4983 29.8515 18.5785 30.0158 18.7034C30.1802 18.8284 30.3068 18.9935 30.3825 19.1816C30.4583 19.3698 30.4803 19.574 30.4463 19.7732L28.6755 30.1274C28.5038 31.1262 27.367 31.699 26.4168 31.2015C25.622 30.7853 24.4415 30.144 23.3796 29.4749C22.8487 29.1399 21.2224 28.0674 21.4223 27.3042C21.594 26.6517 24.3267 24.1995 25.8882 22.7416C26.5011 22.1689 26.2216 21.8384 25.4978 22.3653C23.6998 23.6734 20.8149 25.6627 19.8608 26.2227C19.0191 26.7164 18.5803 26.8007 18.0557 26.7164C17.0984 26.5629 16.2107 26.325 15.4862 26.0353C14.5071 25.6439 14.5547 24.3463 15.4854 23.9685L28.8364 18.5493Z" fill="#F2CFBE"/>
</g>
<defs>
<clipPath id="clip0_44_69">
<rect width="48" height="48" fill="white"/>
</clipPath>
</defs>
</svg>
