<svg width="102" height="218" viewBox="0 0 102 218" fill="none" xmlns="http://www.w3.org/2000/svg">
<path d="M56.5 165.181H93.54V158.601H56.5V165.181Z" stroke="#F2CFBE" stroke-width="2"/>
<path d="M56.5 165.181H93.54V217H56.5V165.181Z" stroke="#F2CFBE" stroke-width="2"/>
<path d="M56.5 214.533H93.54V217.001H56.5V214.533Z" stroke="#F2CFBE"/>
<path d="M56.5 212.066H93.54V214.533H56.5V212.066Z" stroke="#F2CFBE"/>
<path d="M64.7314 169.294H85.3092V212.065H64.7314V169.294Z" stroke="#F2CFBE"/>
<path d="M68.0234 172.584H82.0163V196.437H68.0234V172.584Z" stroke="#F2CFBE"/>
<path d="M68.0234 208.775H82.0163V198.905H68.0234V208.775Z" stroke="#F2CFBE"/>
<path d="M101.5 9L61.5 9L101 40.584V43" stroke="#F2CFBE"/>
<path d="M0.5 9H41.5L1 41.5V44" stroke="#F2CFBE"/>
<path d="M24.5 14L24.5 17" stroke="#F2CFBE"/>
<path d="M12.5 18L12.5 26.2253" stroke="#F2CFBE"/>
<path d="M89.5 17L89.5 25.2253" stroke="#F2CFBE"/>
<path d="M78.5 17L78.5 12" stroke="#F2CFBE"/>
<path d="M1.5 44L51.5 4L100.5 44V217H1.5V44Z" stroke="#F2CFBE" stroke-width="2"/>
<path d="M46.213 50.3516H61.029V84.8978H46.213V50.3516Z" stroke="#F2CFBE" stroke-width="2"/>
<path d="M46.213 50.3516H61.029V43.7713H46.213V50.3516Z" stroke="#F2CFBE" stroke-width="2"/>
<path d="M75.8453 84.8975H61.0293V50.3512H75.8453V84.8975Z" stroke="#F2CFBE"/>
<path d="M46.213 72.5596H61.029V84.075H46.213V72.5596Z" stroke="#F2CFBE"/>
<path d="M46.213 61.8672H61.029V72.5601H46.213V61.8672Z" stroke="#F2CFBE"/>
<path d="M46.213 88.1885H61.029V84.8984H46.213V88.1885Z" stroke="#F2CFBE" stroke-width="2"/>
<path d="M19.8735 165.506H37.982V200.875H19.8735V165.506Z" stroke="#F2CFBE" stroke-width="2"/>
<path d="M19.8735 165.506H37.982V158.926H19.8735V165.506Z" stroke="#F2CFBE" stroke-width="2"/>
<path d="M19.8735 177.021H37.982V200.875H19.8735V177.021Z" stroke="#F2CFBE"/>
<path d="M19.8735 188.537H37.982V200.875H19.8735V188.537Z" stroke="#F2CFBE"/>
<path d="M19.8735 165.506H28.9278V200.875H19.8735V165.506Z" stroke="#F2CFBE"/>
<path d="M20 109.905H38.1084V145.274H20V109.905Z" stroke="#F2CFBE" stroke-width="2"/>
<path d="M20 109.905H38.1084V103.325H20V109.905Z" stroke="#F2CFBE" stroke-width="2"/>
<path d="M20 121.421H38.1084V145.274H20V121.421Z" stroke="#F2CFBE"/>
<path d="M20 132.937H38.1084V145.274H20V132.937Z" stroke="#F2CFBE"/>
<path d="M20 109.905H29.0542V145.274H20V109.905Z" stroke="#F2CFBE"/>
<path d="M66 109.905H84.1084V145.274H66V109.905Z" stroke="#F2CFBE" stroke-width="2"/>
<path d="M66 109.905H84.1084V103.325H66V109.905Z" stroke="#F2CFBE" stroke-width="2"/>
<path d="M66 121.421H84.1084V145.274H66V121.421Z" stroke="#F2CFBE"/>
<path d="M66 132.937H84.1084V145.274H66V132.937Z" stroke="#F2CFBE"/>
<path d="M66 109.905H75.0542V145.274H66V109.905Z" stroke="#F2CFBE"/>
<path d="M1 41.5V45L51.5 4L101 44.0053V40.5L51.5 1L1 41.5Z" stroke="#F2CFBE"/>
<path d="M56.0905 147.822L44.567 147.822M60.2061 146.177L45.3901 146.177M56.9136 144.531L49.5056 144.531M52.3865 146.177L52.3865 147.822M49.0941 146.177L49.0941 147.822M45.8016 146.177L45.8016 147.822M47.4478 144.12L47.4478 145.765M50.7403 144.12L50.7403 145.765M54.0327 144.12L54.0327 145.765M52.3865 142.475L52.3865 144.12M47.4478 148.233L47.4478 149.878M50.7403 148.233L50.7403 149.878M54.0327 148.233L54.0327 149.878M58.9714 146.177L58.9714 147.822" stroke="#F2CFBE"/>
<path d="M28.1052 76.2611L16.5816 76.2611M32.2207 74.616L17.4047 74.616M28.9283 72.9709L21.5203 72.9709M24.4012 74.616L24.4012 76.2611M21.1087 74.616L21.1087 76.2611M17.8163 74.616L17.8163 76.2611M19.4625 72.5597L19.4625 74.2047M22.7549 72.5597L22.7549 74.2047M26.0474 72.5597L26.0474 74.2047M24.4012 70.9146L24.4012 72.5597M19.4625 76.6723L19.4625 78.3174M22.7549 76.6723L22.7549 78.3174M26.0474 76.6723L26.0474 78.3174M30.986 74.616L30.986 76.2611" stroke="#F2CFBE"/>
<path d="M60.2064 33.4896L71.7299 33.4896M56.0908 31.8445L70.9068 31.8445M59.3833 30.1995L66.7913 30.1995M63.9104 31.8445L63.9104 33.4896M67.2028 31.8445L67.2028 33.4896M70.4953 31.8445L70.4953 33.4896M68.849 29.7882L68.849 31.4332M65.5566 29.7882L65.5566 31.4332M62.2641 29.7882L62.2641 31.4332M63.9104 28.1431L63.9104 29.7882M68.849 33.9008L68.849 35.5459M65.5566 33.9008L65.5566 35.5459M62.2641 33.9008L62.2641 35.5459M57.3255 31.8445L57.3255 33.4896" stroke="#F2CFBE"/>
</svg>
