<svg width="250" height="56" viewBox="0 0 250 56" fill="none" xmlns="http://www.w3.org/2000/svg">
<path d="M20.8169 0.838623V30.1639H24.1667V3.98015H40.9025V30.1639H44.2523V0.838623H20.8169Z" fill="white"/>
<path d="M71.0109 27.4483C67.3819 27.4483 64.4973 26.3568 62.3439 24.1737C60.1638 21.9906 59.0738 19.102 59.0738 15.4946C59.0738 11.8871 60.1638 8.99854 62.3439 6.81545C64.4973 4.63236 67.3819 3.54081 71.0109 3.54081C74.6398 3.54081 77.5244 4.63236 79.6779 6.81545C81.8579 8.99854 82.9479 11.8871 82.9479 15.4946C82.9479 19.102 81.8579 21.9906 79.6779 24.1737C77.5244 26.3568 74.6398 27.4483 71.0109 27.4483ZM71.0109 0.412598C66.3849 0.412598 62.6895 1.78369 59.9246 4.51255C57.1331 7.25473 55.7373 10.9154 55.7373 15.4946C55.7373 20.0737 57.1331 23.7344 59.9246 26.4766C62.6895 29.2188 66.3849 30.5765 71.0109 30.5765C75.6368 30.5765 79.3322 29.2055 82.0972 26.4766C84.8887 23.7344 86.2844 20.0737 86.2844 15.4946C86.2844 10.9154 84.8887 7.25473 82.0972 4.51255C79.3322 1.78369 75.6368 0.412598 71.0109 0.412598Z" fill="white"/>
<path d="M121.179 30.1639L107.793 0L94.4067 30.1639H97.956L107.793 8.00024L117.629 30.1639H121.179Z" fill="white"/>
<path d="M150.463 15.7076H140.839C139.058 15.7076 137.635 15.1752 136.572 14.1102C135.508 13.0453 134.977 11.621 134.977 9.83722C134.977 8.05348 135.508 6.62914 136.572 5.56422C137.635 4.4993 139.058 3.96683 140.839 3.96683H150.463V15.7076ZM131.215 30.1639H135.07L141.185 21.9108C142.075 20.7128 142.966 19.8874 143.87 19.4348C144.681 19.0488 145.81 18.8491 147.259 18.8491H150.476V30.1639H153.826V0.838623H140.852C138.061 0.838623 135.827 1.66394 134.153 3.31457C132.478 4.92527 131.64 7.10836 131.64 9.85054C131.64 12.5927 132.478 14.7625 134.153 16.3865C135.827 18.0371 138.061 18.8624 140.852 18.8624H142.394C140.188 19.315 138.433 20.4332 137.117 22.217L131.215 30.1639Z" fill="white"/>
<path d="M188.122 0.838623V13.8307H171.386V0.838623H168.036V30.1639H171.386V16.9722H188.122V30.1639H191.472V0.838623H188.122Z" fill="white"/>
<path d="M229.184 30.1639L215.798 0L202.412 30.1639H203.754H205.708H205.987L207.649 26.3968C208.593 24.2536 210.122 22.4166 212.089 21.152C212.102 21.1387 212.115 21.1387 212.129 21.1254C214.628 19.5014 217.552 18.9423 220.889 19.4348L225.634 30.1506H229.184V30.1639ZM210.627 19.6611L215.798 7.9603L220.57 18.7293C216.768 18.1436 213.445 18.4631 210.627 19.6611Z" fill="white"/>
<path d="M3.58909 45.7501C4.41325 45.7501 5.0779 46.003 5.58303 46.4956C6.07487 47.0014 6.32743 47.667 6.32743 48.4923C6.32743 49.3176 6.07487 49.9832 5.58303 50.489C5.0779 50.9816 4.41325 51.2345 3.58909 51.2345H0.970383V54.2828H0V45.7501H3.58909ZM3.58909 50.3293C4.12081 50.3293 4.54618 50.1562 4.86521 49.8235C5.18424 49.4907 5.35705 49.0514 5.35705 48.4923C5.35705 47.9332 5.19753 47.4939 4.86521 47.1611C4.54618 46.8284 4.12081 46.6553 3.58909 46.6553H0.970383V50.316L3.58909 50.3293Z" fill="white"/>
<path d="M14.968 45.7501V46.6686H10.0895V49.5306H14.5958V50.4491H10.0895V53.3776H14.968V54.2828H9.11914V45.7501H14.968Z" fill="white"/>
<path d="M22.1858 48.6254C22.9967 48.7585 23.6347 49.078 24.1133 49.5705C24.5785 50.0764 24.8178 50.7153 24.8178 51.4741C24.8178 52.366 24.4988 53.0715 23.874 53.5906C23.2492 54.1231 22.4118 54.3893 21.3484 54.3893C20.2982 54.3893 19.4608 54.1364 18.8227 53.6439C18.1846 53.1514 17.8789 52.5124 17.8789 51.7004C17.8789 50.3959 18.7031 49.6371 20.3514 49.3975L22.7042 46.642H18.3043V45.7235H24.6317L22.1858 48.6254ZM21.3484 53.4974C22.1061 53.4974 22.7042 53.3111 23.1695 52.9517C23.6214 52.5923 23.8474 52.0997 23.8474 51.4874C23.8474 50.8751 23.6214 50.3959 23.1695 50.0231C22.7175 49.6637 22.1061 49.4774 21.3484 49.4774C20.5907 49.4774 19.9925 49.6637 19.5272 50.0231C19.0753 50.3825 18.8493 50.8751 18.8493 51.4874C18.8493 52.0997 19.0753 52.579 19.5272 52.9517C19.9792 53.3111 20.5907 53.4974 21.3484 53.4974Z" fill="white"/>
<path d="M34.5351 45.5105V54.2828H33.5647V48.053L27.7158 54.5357V45.7501H28.6862V51.9799L34.5351 45.5105Z" fill="white"/>
<path d="M44.7307 53.3776H45.5017V56H44.5313V54.2961H37.9513V56H36.981V53.3776H37.7519L41.248 45.5105L44.7307 53.3776ZM38.7755 53.3776H43.6939L41.2347 47.84L38.7755 53.3776Z" fill="white"/>
<path d="M53.783 45.7501V46.6686H48.9045V49.5306H53.4108V50.4491H48.9045V53.3776H53.783V54.2828H47.9341V45.7501H53.783Z" fill="white"/>
<path d="M63.6201 45.7501V54.2828H62.6364V50.4491H57.7712V54.2828H56.8008V45.7501H57.7712V49.5306H62.6364V45.7501H63.6201Z" fill="white"/>
<path d="M73.9488 45.7501V53.3776H74.9192V56H73.9488V54.2828H67.1162V45.7501H68.0999V53.3776H72.9651V45.7501H73.9488Z" fill="white"/>
<path d="M84.6894 45.5105V54.2828H83.719V48.053L77.8701 54.5357V45.7501H78.8538V51.9799L84.6894 45.5105Z" fill="white"/>
<path d="M89.4747 51.9666C89.8602 51.4475 90.3653 51.1147 91.0033 50.9949H90.5514C89.7405 50.9949 89.0892 50.7553 88.5973 50.276C88.1055 49.8101 87.8662 49.1712 87.8662 48.3725C87.8662 47.5738 88.1055 46.9348 88.5973 46.4689C89.0892 45.9897 89.7272 45.7501 90.5514 45.7501H94.3266V54.2828H93.3562V50.9949H92.4124C91.987 50.9949 91.668 51.0481 91.4287 51.1679C91.1629 51.301 90.9103 51.5406 90.6444 51.8867L88.8632 54.2828H87.7466L89.4747 51.9666ZM93.3562 46.6686H90.5514C90.033 46.6686 89.6209 46.8284 89.3152 47.1345C89.0094 47.4407 88.8499 47.8533 88.8499 48.3725C88.8499 48.8916 89.0094 49.3043 89.3152 49.6105C89.6209 49.9166 90.033 50.0764 90.5514 50.0764H93.3562V46.6686Z" fill="white"/>
<path d="M105.759 48.6253C106.569 48.7584 107.207 49.0779 107.686 49.5704C108.151 50.0763 108.391 50.7152 108.391 51.474C108.391 52.3658 108.072 53.0714 107.447 53.5905C106.822 54.123 105.985 54.3892 104.921 54.3892C103.871 54.3892 103.034 54.1363 102.395 53.6438C101.757 53.1512 101.452 52.5123 101.452 51.7003C101.452 50.3957 102.276 49.637 103.924 49.3974L106.277 46.6419H101.877V45.7234H108.204L105.759 48.6253ZM104.921 53.4973C105.679 53.4973 106.277 53.311 106.742 52.9516C107.194 52.5921 107.42 52.0996 107.42 51.4873C107.42 50.875 107.194 50.3957 106.742 50.023C106.29 49.6636 105.679 49.4772 104.921 49.4772C104.163 49.4772 103.565 49.6636 103.1 50.023C102.648 50.3824 102.422 50.875 102.422 51.4873C102.422 52.0996 102.648 52.5788 103.1 52.9516C103.565 53.311 104.163 53.4973 104.921 53.4973Z" fill="white"/>
<path d="M117.616 54.2828H116.579L115.649 52.2062H111.78L110.85 54.2828H109.813L113.708 45.4972L117.616 54.2828ZM112.179 51.301H115.25L113.721 47.84L112.179 51.301Z" fill="white"/>
<path d="M125.26 45.7501V46.6686H120.62V54.2828H119.65V45.7501H125.26Z" fill="white"/>
<path d="M130.39 45.6302C131.733 45.6302 132.809 46.0296 133.62 46.8283C134.431 47.627 134.843 48.6919 134.843 50.0231C134.843 51.3542 134.431 52.4191 133.62 53.2178C132.823 54.0165 131.746 54.4159 130.39 54.4159C129.048 54.4159 127.971 54.0165 127.16 53.2178C126.349 52.4191 125.937 51.3542 125.937 50.0231C125.937 48.6919 126.349 47.627 127.16 46.8283C127.958 46.0296 129.034 45.6302 130.39 45.6302ZM130.39 53.4974C131.44 53.4974 132.291 53.1779 132.916 52.5523C133.554 51.9133 133.86 51.0747 133.86 50.0231C133.86 48.9714 133.541 48.1328 132.916 47.4939C132.291 46.8549 131.454 46.5487 130.39 46.5487C129.34 46.5487 128.489 46.8682 127.864 47.4939C127.226 48.1328 126.921 48.9714 126.921 50.0231C126.921 51.0747 127.24 51.9133 127.864 52.5523C128.489 53.1779 129.327 53.4974 130.39 53.4974Z" fill="white"/>
<path d="M140.759 45.7501C141.583 45.7501 142.248 46.003 142.753 46.4956C143.245 47.0014 143.497 47.667 143.497 48.4923C143.497 49.3176 143.245 49.9832 142.753 50.489C142.248 50.9816 141.583 51.2345 140.759 51.2345H138.14V54.2828H137.17V45.7501H140.759ZM140.759 50.3293C141.291 50.3293 141.716 50.1562 142.035 49.8235C142.354 49.4907 142.527 49.0514 142.527 48.4923C142.527 47.9332 142.367 47.4939 142.035 47.1611C141.716 46.8284 141.291 46.6553 140.759 46.6553H138.14V50.316L140.759 50.3293Z" fill="white"/>
<path d="M149.678 45.6302C151.021 45.6302 152.098 46.0296 152.908 46.8283C153.719 47.627 154.131 48.6919 154.131 50.0231C154.131 51.3542 153.719 52.4191 152.908 53.2178C152.111 54.0165 151.034 54.4159 149.678 54.4159C148.336 54.4159 147.259 54.0165 146.448 53.2178C145.637 52.4191 145.225 51.3542 145.225 50.0231C145.225 48.6919 145.637 47.627 146.448 46.8283C147.259 46.0296 148.336 45.6302 149.678 45.6302ZM149.678 53.4974C150.728 53.4974 151.579 53.1779 152.204 52.5523C152.842 51.9133 153.148 51.0747 153.148 50.0231C153.148 48.9714 152.829 48.1328 152.204 47.4939C151.579 46.8549 150.742 46.5487 149.678 46.5487C148.628 46.5487 147.777 46.8682 147.153 47.4939C146.515 48.1328 146.209 48.9714 146.209 50.0231C146.209 51.0747 146.528 51.9133 147.153 52.5523C147.791 53.1779 148.628 53.4974 149.678 53.4974Z" fill="white"/>
<path d="M163.104 53.3776H163.875V56H162.905V54.2961H156.325V56H155.354V53.3776H156.125L159.622 45.5105L163.104 53.3776ZM157.149 53.3776H162.067L159.608 47.84L157.149 53.3776Z" fill="white"/>
<path d="M172.795 45.7501V54.2828H171.824V50.4491H166.946V54.2828H165.976V45.7501H166.946V49.5306H171.824V45.7501H172.795Z" fill="white"/>
<path d="M179.574 45.6302C180.917 45.6302 181.994 46.0296 182.804 46.8283C183.615 47.627 184.027 48.6919 184.027 50.0231C184.027 51.3542 183.615 52.4191 182.804 53.2178C182.007 54.0165 180.93 54.4159 179.574 54.4159C178.232 54.4159 177.155 54.0165 176.344 53.2178C175.533 52.4191 175.121 51.3542 175.121 50.0231C175.121 48.6919 175.533 47.627 176.344 46.8283C177.155 46.0296 178.232 45.6302 179.574 45.6302ZM179.574 53.4974C180.624 53.4974 181.475 53.1779 182.1 52.5523C182.738 51.9133 183.044 51.0747 183.044 50.0231C183.044 48.9714 182.725 48.1328 182.1 47.4939C181.475 46.8549 180.638 46.5487 179.574 46.5487C178.524 46.5487 177.673 46.8682 177.049 47.4939C176.411 48.1328 176.105 48.9714 176.105 50.0231C176.105 51.0747 176.424 51.9133 177.049 52.5523C177.687 53.1779 178.524 53.4974 179.574 53.4974Z" fill="white"/>
<path d="M193.186 45.5105V54.2961H192.216V48.0663L186.367 54.549V45.7634H187.337V51.9799L193.186 45.5105ZM188.068 43.9131H191.484V44.765H188.068V43.9131Z" fill="white"/>
<path d="M200.989 45.7501L204.645 50.0231L200.989 54.2961H199.819L203.475 50.0231L199.819 45.7501H200.989ZM205.296 45.7501H206.266V54.2828H205.296V45.7501ZM211.756 45.7501L208.101 50.0231L211.756 54.2961H210.587L206.931 50.0231L210.587 45.7501H211.756Z" fill="white"/>
<path d="M221.008 45.5105V54.2828H220.038V48.053L214.189 54.5357V45.7501H215.159V51.9799L221.008 45.5105Z" fill="white"/>
<path d="M228 48.6254C228.811 48.7585 229.449 49.078 229.928 49.5705C230.393 50.0764 230.632 50.7153 230.632 51.4741C230.632 52.366 230.313 53.0715 229.688 53.5906C229.064 54.1231 228.226 54.3893 227.163 54.3893C226.113 54.3893 225.275 54.1364 224.637 53.6439C223.999 53.1514 223.693 52.5124 223.693 51.7004C223.693 50.3959 224.518 49.6371 226.166 49.3975L228.519 46.642H224.119V45.7235H230.446L228 48.6254ZM227.163 53.4974C227.921 53.4974 228.519 53.3111 228.984 52.9517C229.436 52.5923 229.662 52.0997 229.662 51.4874C229.662 50.8751 229.436 50.3959 228.984 50.0231C228.532 49.6637 227.921 49.4774 227.163 49.4774C226.405 49.4774 225.807 49.6637 225.342 50.0231C224.89 50.3825 224.664 50.8751 224.664 51.4874C224.664 52.0997 224.89 52.579 225.342 52.9517C225.807 53.3111 226.405 53.4974 227.163 53.4974Z" fill="white"/>
<path d="M240.017 45.7501V54.2828H239.047V50.4491H234.168V54.2828H233.198V45.7501H234.168V49.5306H239.047V45.7501H240.017Z" fill="white"/>
<path d="M250 45.5105V54.2828H249.03V48.053L243.181 54.5357V45.7501H244.151V51.9799L250 45.5105Z" fill="white"/>
</svg>
