<svg width="40" height="36" viewBox="0 0 40 36" fill="none" xmlns="http://www.w3.org/2000/svg">
<path d="M3 32V23C3 19.6863 5.68629 17 9 17H31C34.3137 17 37 19.6863 37 23V32" stroke="#2D2D39"/>
<path d="M6 18V7C6 5.34315 7.34315 4 9 4H31C32.6569 4 34 5.34315 34 7V18" stroke="#2D2D39"/>
<path d="M11 17V17C11 15.3431 12.3431 14 14 14H15C16.6569 14 18 15.3431 18 17V17" stroke="#2D2D39"/>
<path d="M22 17V17C22 15.3431 23.3431 14 25 14H26C27.6569 14 29 15.3431 29 17V17" stroke="#2D2D39"/>
<path d="M3 32V28H37V32" stroke="#2D2D39"/>
</svg>
