<svg width="40" height="36" viewBox="0 0 40 36" fill="none" xmlns="http://www.w3.org/2000/svg">
<path d="M17.0526 2.88C18.3158 2.05714 19.3684 1.23429 20 0C20.3509 0.617143 21.4316 2.05714 22.9474 2.88C24.8421 3.90857 27.1579 4.52571 27.7895 6.37714C28.4211 8.22857 27.5789 10.08 26.9474 10.9029C28.1404 11.6009 31.2842 13.2607 34.3158 14.3156C38.1053 15.6343 40 18.9257 40 19.3371L38.5263 20.16C37.8526 18.6789 36.9825 17.8971 36.6316 17.6914C36.6316 17.6914 32.2992 19.3371 27.7895 21.6C26.7368 20.2971 24.8421 17.6914 20 17.6914C16.2947 17.6914 13.6842 20.2971 12.8421 21.6C8.73684 19.0286 3.36842 17.6914 3.36842 17.6914C2.69474 18.0206 1.82456 19.4743 1.47368 20.16L0 19.3371C0.81678 17.3232 2.85872 15.4434 5.93526 14.3156C8.39648 13.4133 12.0979 11.6995 12.8421 10.9029C12.2105 10.08 11.5088 8.43429 12.2105 6.37714C12.9123 4.32 15.5789 3.84 17.0526 2.88Z" stroke="#2D2D39"/>
<path d="M3.63635 18V36H36.3636V18" stroke="#2D2D39"/>
<path d="M15.4546 26.5996C15.4546 23.8382 17.6932 21.5996 20.4546 21.5996V21.5996C23.216 21.5996 25.4546 23.8382 25.4546 26.5996V33.2996H15.4546V26.5996Z" stroke="#2D2D39"/>
<path d="M6.36365 26.5822C6.36365 24.8249 7.7882 23.4004 9.54547 23.4004V23.4004C11.3027 23.4004 12.7273 24.8249 12.7273 26.5822V33.3004H6.36365V26.5822Z" stroke="#2D2D39"/>
<path d="M28.1818 26.1277C28.1818 24.6214 29.4028 23.4004 30.909 23.4004V23.4004C32.4153 23.4004 33.6363 24.6214 33.6363 26.1277V33.3004H28.1818V26.1277Z" stroke="#2D2D39"/>
<ellipse cx="20" cy="8.09941" rx="2.72727" ry="2.7" stroke="#2D2D39"/>
</svg>
