<svg width="40" height="36" viewBox="0 0 40 36" fill="none" xmlns="http://www.w3.org/2000/svg">
<path d="M1 22H21" stroke="#2E3F4F"/>
<path d="M3 28H19" stroke="#2E3F4F"/>
<path d="M6 22V33" stroke="#2E3F4F"/>
<path d="M16 22V33" stroke="#2E3F4F"/>
<path d="M29 25L29 33" stroke="#2E3F4F"/>
<path d="M31 25L31 33" stroke="#2E3F4F"/>
<path d="M38 33H-4.76837e-07" stroke="#2E3F4F"/>
<circle cx="15" cy="8" r="4" stroke="#2E3F4F"/>
<path d="M33.8386 19.5588C32.5797 20.8178 30.5385 20.8178 29.2795 19.5588C28.0206 18.2999 28.0206 16.2587 29.2795 14.9998" stroke="#2E3F4F"/>
<path d="M30.0595 10.0891C30.6282 9.5204 30.6282 8.59838 30.0595 8.02969C29.4908 7.46101 28.5688 7.46101 28.0001 8.02969" stroke="#2E3F4F"/>
<path d="M23.7136 11.2113L23.8744 11.6848L24.447 11.4904L24.1485 10.9645L23.7136 11.2113ZM33.0747 5.4458L32.6592 5.72381L32.9422 6.14689L33.3601 5.85635L33.0747 5.4458ZM36.2006 9.33245L35.8604 8.96604L35.2863 9.49908L36.0116 9.79532L36.2006 9.33245ZM37.109 17.1669L36.8188 16.7598L36.3639 17.084L36.7364 17.5003L37.109 17.1669ZM33.9997 22.9645L34.0705 22.4696L33.4927 22.3869L33.4997 22.9705L33.9997 22.9645ZM34 22.9869L34.5 22.9852L34.4999 22.9809L34 22.9869ZM34 23L34.5 23L34.5 22.9984L34 23ZM30.4 24.2003L30.7998 23.8999L30.4995 23.5002L30.0998 23.8005L30.4 24.2003ZM24.5498 18.9749L24.9807 19.2284L25.3716 18.5639L24.6054 18.478L24.5498 18.9749ZM24.1485 10.9645C23.7358 10.2376 23.5 9.39709 23.5 8.5H22.5C22.5 9.57465 22.783 10.5847 23.2788 11.4582L24.1485 10.9645ZM23.5 8.5C23.5 5.73858 25.7386 3.5 28.5 3.5V2.5C25.1863 2.5 22.5 5.18629 22.5 8.5H23.5ZM28.5 3.5C30.2336 3.5 31.7615 4.38187 32.6592 5.72381L33.4903 5.16779C32.415 3.56024 30.5814 2.5 28.5 2.5V3.5ZM33.3601 5.85635C33.6834 5.63165 34.0756 5.5 34.5 5.5V4.5C33.865 4.5 33.2747 4.69784 32.7894 5.03525L33.3601 5.85635ZM34.5 5.5C35.6046 5.5 36.5 6.39543 36.5 7.5H37.5C37.5 5.84315 36.1569 4.5 34.5 4.5V5.5ZM36.5 7.5C36.5 8.07912 36.2545 8.60014 35.8604 8.96604L36.5409 9.69886C37.1302 9.15168 37.5 8.36865 37.5 7.5H36.5ZM36.0116 9.79532C37.4722 10.392 38.5 11.8266 38.5 13.5H39.5C39.5 11.4064 38.2134 9.61454 36.3897 8.86958L36.0116 9.79532ZM38.5 13.5C38.5 14.8442 37.8374 16.0337 36.8188 16.7598L37.3992 17.5741C38.6698 16.6684 39.5 15.1812 39.5 13.5H38.5ZM36.7364 17.5003C37.2116 18.0314 37.5 18.7314 37.5 19.5H38.5C38.5 18.476 38.1146 17.5408 37.4816 16.8335L36.7364 17.5003ZM37.5 19.5C37.5 21.1569 36.1569 22.5 34.5 22.5V23.5C36.7091 23.5 38.5 21.7091 38.5 19.5H37.5ZM34.5 22.5C34.3539 22.5 34.2105 22.4896 34.0705 22.4696L33.9288 23.4595C34.1156 23.4862 34.3064 23.5 34.5 23.5V22.5ZM33.4997 22.9705L33.5 22.9928L34.4999 22.9809L34.4997 22.9585L33.4997 22.9705ZM33.5 22.9885L33.5 23.0016L34.5 22.9984L34.5 22.9852L33.5 22.9885ZM33.5 23C33.5 23.8284 32.8284 24.5 32 24.5V25.5C33.3807 25.5 34.5 24.3807 34.5 23H33.5ZM32 24.5C31.5097 24.5 31.0743 24.2653 30.7998 23.8999L30.0003 24.5006C30.4556 25.1065 31.1819 25.5 32 25.5V24.5ZM30.0998 23.8005C29.5148 24.2398 28.7885 24.5 28 24.5V25.5C29.0125 25.5 29.9482 25.165 30.7003 24.6L30.0998 23.8005ZM28 24.5C26.067 24.5 24.5 22.933 24.5 21H23.5C23.5 23.4853 25.5147 25.5 28 25.5V24.5ZM24.5 21C24.5 20.3526 24.6753 19.7477 24.9807 19.2284L24.1188 18.7214C23.7254 19.3902 23.5 20.1695 23.5 21H24.5ZM24.6054 18.478C22.8584 18.2824 21.5 16.7995 21.5 15H20.5C20.5 17.3144 22.2467 19.2201 24.4941 19.4718L24.6054 18.478ZM21.5 15C21.5 13.4615 22.4929 12.1537 23.8744 11.6848L23.5529 10.7379C21.7782 11.3402 20.5 13.0202 20.5 15H21.5Z" fill="#2E3F4F"/>
</svg>
