<svg width="40" height="36" viewBox="0 0 40 36" fill="none" xmlns="http://www.w3.org/2000/svg">
<rect x="3.5" y="33.5" width="32" height="2" rx="1" stroke="#2D2D39"/>
<rect x="13.2501" y="28.5446" width="11.9436" height="2.23591" stroke="#2D2D39"/>
<rect x="3.5" y="14.5" width="31" height="2" rx="1" stroke="#2D2D39"/>
<rect x="13.5" y="2.5" width="11" height="3" rx="1.5" stroke="#2D2D39"/>
<rect x="15.5" y="0.5" width="7" height="2" rx="1" stroke="#2D2D39"/>
<path d="M11.6797 6.87009C12.1055 6.02966 12.9676 5.5 13.9098 5.5H24.0902C25.0324 5.5 25.8945 6.02966 26.3203 6.87009L30.1862 14.5H7.81385L11.6797 6.87009Z" stroke="#2D2D39"/>
<rect x="5.5" y="16.5" width="3" height="17" stroke="#2D2D39"/>
<rect x="29.5" y="16.5" width="3" height="17" stroke="#2D2D39"/>
<path d="M15 31V31C14.8778 31.873 14.2653 32.5983 13.4251 32.865L13 33" stroke="#2D2D39" stroke-linecap="round"/>
<path d="M23 31V31C23 31.972 23.739 32.7847 24.7066 32.8768L26 33" stroke="#2D2D39" stroke-linecap="round"/>
<path d="M18.5331 22.8933C18.6475 22.8328 18.7885 22.8708 18.8582 22.9809C18.8819 23.0163 18.8972 23.0565 18.9026 23.0997L18.9292 23.3091C18.9351 23.4623 18.9371 23.6191 18.9525 23.7742C18.9701 23.9528 18.9944 24.0962 19.0551 24.2306C19.1805 24.5081 19.4454 24.656 19.6283 24.7299C19.6828 24.7683 20.3168 25.2286 20.2918 25.8624C20.2704 26.4071 19.7675 26.946 19.7595 26.9517C19.7592 26.952 19.7537 26.9557 19.7544 26.9576C19.755 26.959 19.7591 26.9587 19.7604 26.9586C20.4782 26.8978 20.774 26.7392 20.774 26.7392C20.8766 26.6843 21.0146 26.5994 21.1632 26.4718L21.2241 26.4214C21.4227 26.2552 21.5865 26.0476 21.7047 25.8112C21.8235 25.5755 21.8951 25.3163 21.914 25.0499C21.9524 24.435 21.7461 23.8177 21.4251 23.2669C21.2785 23.4829 21.0763 23.6503 20.8428 23.7493C20.6968 23.8123 20.5419 23.8513 20.384 23.8633C20.2936 23.8692 20.2035 23.8484 20.1245 23.8033C20.0444 23.7571 19.9786 23.6888 19.9348 23.6065C19.8612 23.4719 19.8536 23.3103 19.9141 23.1692C20.1576 22.586 20.2333 21.9393 20.1298 21.3112C20.0073 20.5926 19.6683 19.9301 19.1591 19.4154C19.0669 20.7382 17.7303 21.9699 17.456 22.2351C17.4134 22.2757 17.3693 22.3145 17.3236 22.3515C15.8894 23.5304 15.9875 24.6043 15.9875 24.6517C15.9875 25.2942 16.213 25.7791 16.2589 25.8774C16.4861 26.364 17.3608 26.8734 18.5209 26.9656C18.6318 26.9744 17.3215 26.732 16.9146 25.8036C16.6285 25.1506 16.8529 24.3317 17.2322 23.794C17.6809 23.1581 18.3207 22.9519 18.5331 22.8933Z" stroke="#2D2D39" stroke-miterlimit="10"/>
</svg>
