<svg width="40" height="36" viewBox="0 0 40 36" fill="none" xmlns="http://www.w3.org/2000/svg">
<path fill-rule="evenodd" clip-rule="evenodd" d="M9.6533 19.0667C9.00264 19.0667 8.37862 19.3251 7.91853 19.7852C7.45844 20.2453 7.19997 20.8693 7.19997 21.52V23.8667C7.19997 24.1612 6.96119 24.4 6.66663 24.4C6.37208 24.4 6.1333 24.1612 6.1333 23.8667V21.52C6.1333 20.5864 6.50416 19.6911 7.16428 19.031C7.82441 18.3709 8.71974 18 9.6533 18H18.6133C19.5469 18 20.4422 18.3709 21.1023 19.031C21.7624 19.6911 22.1333 20.5864 22.1333 21.52V23.8667C22.1333 24.1612 21.8945 24.4 21.6 24.4C21.3054 24.4 21.0666 24.1612 21.0666 23.8667V21.52C21.0666 20.8693 20.8082 20.2453 20.3481 19.7852C19.888 19.3251 19.264 19.0667 18.6133 19.0667H9.6533Z" fill="#2D2D39"/>
<path fill-rule="evenodd" clip-rule="evenodd" d="M9.81679 28.1331C9.68501 28.1331 9.56082 28.1844 9.47099 28.2724C9.38153 28.36 9.33339 28.4764 9.33339 28.5953V29.7331C9.33339 30.0276 9.09461 30.2664 8.80006 30.2664C8.50551 30.2664 8.26672 30.0276 8.26672 29.7331V28.5953C8.26672 28.1861 8.43282 27.7961 8.72472 27.5103C9.01624 27.2248 9.40927 27.0664 9.81679 27.0664H18.45C18.8575 27.0664 19.2505 27.2248 19.5421 27.5103C19.834 27.7961 20.0001 28.1861 20.0001 28.5953V29.7331C20.0001 30.0276 19.7613 30.2664 19.4667 30.2664C19.1722 30.2664 18.9334 30.0276 18.9334 29.7331V28.5953C18.9334 28.4764 18.8852 28.36 18.7958 28.2724C18.706 28.1844 18.5818 28.1331 18.45 28.1331H9.81679Z" fill="#2D2D39"/>
<path fill-rule="evenodd" clip-rule="evenodd" d="M20 29.733C20 30.3221 19.5224 30.7997 18.9333 30.7997H9.33333C8.74423 30.7997 8.26667 30.3221 8.26667 29.733V25.9997C8.26667 25.5761 8.09515 25.1603 7.79994 24.8528C7.54321 24.5853 7.08889 24.3997 6.66667 24.3997C6.23849 24.3997 5.77232 24.5892 5.51929 24.8528C5.23414 25.1498 5.06667 25.5616 5.06667 25.9997V32.933H23.2V25.9997C23.2 25.5616 23.0325 25.1498 22.7474 24.8528C22.4943 24.5892 22.0282 24.3997 21.6 24.3997C21.1691 24.3997 20.6976 24.5909 20.4462 24.8528C20.1656 25.1451 20 25.5549 20 25.9997V29.733ZM24.2667 33.9997H4V25.9997C4 25.2924 4.26971 24.6142 4.74981 24.1141C5.2299 23.614 5.98771 23.333 6.66667 23.333C7.34562 23.333 8.08932 23.614 8.56942 24.1141C9.04951 24.6142 9.33333 25.2924 9.33333 25.9997V29.733H18.9333V25.9997C18.9333 25.2924 19.1966 24.6142 19.6767 24.1141C20.1568 23.614 20.921 23.333 21.6 23.333C22.279 23.333 23.0368 23.614 23.5169 24.1141C23.9969 24.6142 24.2667 25.2924 24.2667 25.9997V33.9997Z" fill="#2D2D39"/>
<rect x="20" y="2" width="1.06667" height="17.0667" fill="#2D2D39"/>
<rect x="5.06665" y="2" width="1.06667" height="9.6" fill="#2D2D39"/>
<rect x="12.5333" y="2" width="1.06667" height="9.6" fill="#2D2D39"/>
<rect x="7.19995" y="7.33301" width="1.06667" height="2.13333" fill="#2D2D39"/>
<rect x="14.6666" y="7.33301" width="1.06667" height="2.13333" fill="#2D2D39"/>
<rect x="22.1333" y="5.2002" width="1.06667" height="4.26667" fill="#2D2D39"/>
<rect x="22.1333" y="12.667" width="1.06667" height="4.26667" fill="#2D2D39"/>
<rect x="34.9333" y="2" width="1.06667" height="29.8667" fill="#2D2D39"/>
<rect x="36" y="30.7998" width="1.06667" height="11.7333" transform="rotate(90 36 30.7998)" fill="#2D2D39"/>
<rect x="36" y="2" width="1.06667" height="30.9333" transform="rotate(90 36 2)" fill="#2D2D39"/>
<rect x="36" y="10.5332" width="1.06667" height="30.9333" transform="rotate(90 36 10.5332)" fill="#2D2D39"/>
</svg>
