<svg width="40" height="36" viewBox="0 0 40 36" fill="none" xmlns="http://www.w3.org/2000/svg">
<g clip-path="url(#clip0_1413_74)">
<path d="M11.9323 20.3225H17.5594C18.1116 20.3225 18.5594 20.7702 18.5594 21.3225V33.8386C18.5594 34.3909 18.1116 34.8386 17.5594 34.8386H7.61023" stroke="#2D2D39"/>
<path d="M28.0679 20.3225H22.4408C21.8885 20.3225 21.4408 20.7702 21.4408 21.3225V33.8386C21.4408 34.3909 21.8885 34.8386 22.4408 34.8386H32.3899" stroke="#2D2D39"/>
<path d="M21.4407 1.87639C21.4407 1.07611 22.334 0.600047 22.9983 1.04629L36.5576 10.1544C36.8341 10.3402 37 10.6514 37 10.9845V14.0968C37 14.6491 36.5522 15.0968 36 15.0968H22.4407C21.8884 15.0968 21.4407 14.6491 21.4407 14.0968V1.87639Z" stroke="#2D2D39"/>
<path d="M18.5593 1.87639C18.5593 1.07611 17.666 0.600047 17.0017 1.04629L3.44243 10.1544C3.16591 10.3402 3.00004 10.6514 3.00004 10.9845V14.0968C3.00004 14.6491 3.44775 15.0968 4.00004 15.0968H17.5593C18.1116 15.0968 18.5593 14.6491 18.5593 14.0968V1.87639Z" stroke="#2D2D39"/>
<path d="M11.2203 18.5806H4C3.44772 18.5806 3 19.0283 3 19.5806V34.9999C3 35.5522 3.44772 35.9999 4 35.9999H6.72071C7.41882 35.9999 7.9021 35.3027 7.65711 34.649L6.12368 30.5572C6.01451 30.2659 6.05074 29.9433 6.23283 29.6911C6.65178 29.1107 7.5616 27.8885 9.26982 25.6664C11.0989 23.287 11.865 20.9904 12.1172 19.5733C12.2139 19.0296 11.7726 18.5806 11.2203 18.5806Z" stroke="#2D2D39"/>
<path d="M8.16335 18.5806C8.28629 19.0726 8.31087 20.7654 7.42572 23.5997C6.62654 26.1588 5.36636 28.5894 4.6767 29.7618C4.54956 29.9779 4.50085 30.2318 4.54703 30.4783L5.58166 35.9999" stroke="#2D2D39"/>
<path d="M3 30.095H5.9505" stroke="#2D2D39"/>
<path d="M28.7797 18.5806H36C36.5523 18.5806 37 19.0283 37 19.5806V34.9999C37 35.5522 36.5523 35.9999 36 35.9999H33.2793C32.5812 35.9999 32.0979 35.3027 32.3429 34.649L33.8763 30.5572C33.9855 30.2659 33.9493 29.9433 33.7672 29.6911C33.3482 29.1107 32.4384 27.8885 30.7302 25.6664C28.9011 23.287 28.135 20.9904 27.8828 19.5733C27.7861 19.0296 28.2274 18.5806 28.7797 18.5806Z" stroke="#2D2D39"/>
<path d="M31.8365 18.5806C31.7136 19.0726 31.689 20.7654 32.5742 23.5997C33.3733 26.1588 34.6335 28.5894 35.3232 29.7618C35.4503 29.9779 35.499 30.2318 35.4528 30.4783L34.4182 35.9999" stroke="#2D2D39"/>
<path d="M37 30.095H34.0495" stroke="#2D2D39"/>
<path d="M14.5254 20.3225V34.8386" stroke="#2D2D39"/>
<path d="M8.7627 26.4194L8.7627 34.8388" stroke="#2D2D39"/>
<path d="M31.2373 26.4194L31.2373 34.8388" stroke="#2D2D39"/>
<path d="M25.4746 20.3225V34.8386" stroke="#2D2D39"/>
<path d="M29.7965 24.3871H21.4406" stroke="#2D2D39"/>
<path d="M18.8474 24.3871H10.2034" stroke="#2D2D39"/>
<path d="M28.9323 18.5806L11.0679 18.5806" stroke="#2D2D39"/>
<path d="M18.5593 8.12903L6.45766 8.12903" stroke="#2D2D39"/>
<path d="M33.5424 8.12903L21.4407 8.12903" stroke="#2D2D39"/>
<path d="M14.5254 15.3871L14.5254 2.61289" stroke="#2D2D39"/>
<path d="M25.4746 15.3871L25.4746 2.61289" stroke="#2D2D39"/>
</g>
<defs>
<clipPath id="clip0_1413_74">
<rect width="40" height="36" fill="white"/>
</clipPath>
</defs>
</svg>
