<svg width="40" height="36" viewBox="0 0 40 36" fill="none" xmlns="http://www.w3.org/2000/svg">
<path d="M34.762 24L29.4398 34.4537C29.2692 34.7889 28.9248 35 28.5487 35H11.2285H5.76196" stroke="#2D2D39"/>
<path d="M35.762 1H27.2204H13.7301C13.3645 1 13.0281 1.19945 12.8527 1.52017L8.76196 9" stroke="#2D2D39"/>
<path d="M20.762 8H34.2808C35.0478 8 35.5292 8.82774 35.1501 9.49438L24.9126 27.4944C24.7348 27.8069 24.4029 28 24.0433 28H9.71917C8.95225 28 8.47078 27.1723 8.84993 26.5056L10.8438 23L11.4219 22M13 19L14.881 15.75L15.8215 14.125L16.2917 13.3125" stroke="#2D2D39"/>
<path d="M35 8.5L20.378 18.8529C20.2428 18.9486 20.0813 19 19.9157 19H6.5442C5.76145 19 5.44447 17.9919 6.08636 17.544L19.5557 8.14396C19.69 8.05025 19.8498 8 20.0135 8H24.762" stroke="#2D2D39"/>
<path d="M19.762 11L11.762 16.5L9.76196 17.875L8.76196 18.5625L8.26196 18.9062M33.762 12.0476L20.1415 21.8493C20.0054 21.9473 19.8419 22 19.6742 22H6.56196C6.12014 22 5.76196 21.6418 5.76196 21.2V20.625" stroke="#2D2D39"/>
<path d="M5.76196 18L5.76196 21" stroke="#2D2D39"/>
<path d="M20 8V11" stroke="#2D2D39"/>
<path d="M31.4345 11L19.762 11" stroke="#2D2D39"/>
</svg>
