<svg width="40" height="36" viewBox="0 0 40 36" fill="none" xmlns="http://www.w3.org/2000/svg">
<path fill-rule="evenodd" clip-rule="evenodd" d="M20 2H21.0667V34H20V2ZM22.1333 20.1338H23.2H33.8667H35.4667C35.7612 20.1338 36 20.3726 36 20.6671C36 20.9617 35.7612 21.2005 35.4667 21.2005H33.8667V22.2671C33.8667 25.1089 32.7969 27.6778 30.8998 29.2377L32.649 30.9869C32.8503 31.1882 32.8503 31.5147 32.649 31.716C32.4476 31.9173 32.1212 31.9173 31.9199 31.716L30.0427 29.8388C29.0071 30.4516 27.7836 30.8005 26.4 30.8005H22.1334L22.1334 29.7338H26.4C30.1871 29.7338 32.8 26.0542 32.8 22.2671V21.2005H23.2H22.1333V20.1338ZM4.53333 15.8662C4.23878 15.8662 4 16.105 4 16.3995V32.9329H5.06667L5.06667 30.8H18.9333V29.7333H5.06667V19.0667H18.9333V18L8.26662 18V6.26667L18.9333 6.26667V5.2L8.26662 5.2V3.59974C8.26662 3.30519 8.02784 3.06641 7.73328 3.06641C7.43873 3.06641 7.19995 3.30519 7.19995 3.59974V18H5.06667L5.06667 16.3995C5.06667 16.105 4.82789 15.8662 4.53333 15.8662ZM18.9334 26.5331V27.5998H8.26672H7.20005V26.5331V22.2665V21.1998L8.26672 21.1998H18.9334V22.2665H8.26672L8.26672 26.5331H18.9334ZM11.4667 13.7337C10.9334 13.7337 10.4 14.4469 10.4 14.8003V16.9337H9.33337V14.8003C9.33337 13.7399 10.1412 12.667 11.4667 12.667H15.7334C17.0589 12.667 17.8667 13.7399 17.8667 14.8003V16.9337H16.8V14.8003C16.8 14.4469 16.1752 13.7337 15.7334 13.7337H11.4667ZM29.1068 5.70719C29.5601 5.37892 30.0601 5.2 30.6667 5.2C32.8 5.2 33.8667 6.73817 33.8667 8.4V20.1333H32.8V8.4C32.8 7.60632 31.7333 6.26667 30.6667 6.26667C30.4034 6.26667 30.1295 6.38967 29.8954 6.55349C30.4086 7.42526 30.3837 8.52622 29.8208 9.3758C29.7237 9.52239 29.6106 9.66149 29.4814 9.79064L29.1043 10.1678L25.3331 6.39653L25.7102 6.01941C25.8394 5.89026 25.9785 5.77712 26.125 5.68C27.0273 5.08222 28.2131 5.09128 29.1068 5.70719ZM28.7272 6.77365C28.2346 6.28105 27.5007 6.1768 26.906 6.46091L29.0399 8.5949C29.3241 8.00016 29.2198 7.26626 28.7272 6.77365Z" fill="#2D2D39"/>
</svg>
