<svg width="40" height="36" viewBox="0 0 40 36" fill="none" xmlns="http://www.w3.org/2000/svg">
<g clip-path="url(#clip0_1413_125)">
<path d="M10.3258 31.1584V25.9018C10.3258 25.5433 10.5892 25.2394 10.944 25.1884V25.1884C11.1627 25.157 11.3549 25.027 11.4654 24.8357L14.5499 19.4995C14.7286 19.1904 15.0586 19 15.4157 19H24.8797C25.2512 19 25.5921 19.206 25.7649 19.5348L28.5317 24.7999C28.6434 25.0124 28.851 25.1578 29.0889 25.1901V25.1901C29.4568 25.24 29.7312 25.5542 29.7312 25.9255V31.1584M10.3258 31.1584L29.7312 31.1584M10.3258 31.1584H13.3365V32.3861C13.3365 32.7252 13.0477 33 12.6914 33H10.9709C10.6146 33 10.3258 32.7252 10.3258 32.3861V31.1584ZM29.7312 31.1584V32.3861C29.7312 32.7252 29.4424 33 29.0861 33H27.3656C27.0093 33 26.7205 32.7252 26.7205 32.3861V31.1584H29.7312ZM11.9355 24.5248L28.1942 24.5247M19.0323 28.2079H21.2903M13.2419 21.7624L12.1774 23.604L10.9208 23.604C10.4123 23.604 10 23.1917 10 22.6832V22.6832C10 22.1746 10.4123 21.7624 10.9208 21.7624L13.2419 21.7624ZM26.9355 21.7624L29.0792 21.7624C29.5877 21.7624 30 22.1746 30 22.6832V22.6832C30 23.1917 29.5877 23.604 29.0792 23.604L27.9032 23.604L26.9355 21.7624ZM12.2897 27.0584V27.0584C12.4455 26.6879 12.8871 26.533 13.2402 26.725L14.6507 27.4919C14.7666 27.5548 14.8387 27.6762 14.8387 27.808V27.808C14.8387 28.0217 14.6535 28.1883 14.441 28.1659L12.8444 27.9971C12.3916 27.9492 12.1132 27.4782 12.2897 27.0584ZM25.1613 27.8317V27.8317C25.1613 27.6865 25.2448 27.5543 25.3759 27.492L26.8557 26.7879C27.3012 26.576 27.8261 26.847 27.9113 27.333V27.333C27.9912 27.7896 27.6399 28.2079 27.1763 28.2079H25.5375C25.3297 28.2079 25.1613 28.0395 25.1613 27.8317ZM23.2877 28.0608L22.8381 29.1301C22.6821 29.5012 22.3188 29.7426 21.9163 29.7426H18.1526C17.7161 29.7426 17.3301 29.4595 17.1989 29.0433L16.8617 27.974C16.6585 27.3295 17.1397 26.6733 17.8154 26.6733H22.3658C23.0807 26.6733 23.5647 27.4017 23.2877 28.0608Z" stroke="#2D2D39" stroke-linecap="square"/>
<path d="M-2.00037e-06 11L20 2L40 11" stroke="#2D2D39" stroke-linecap="square"/>
<path d="M3 11V34" stroke="#2D2D39" stroke-linecap="square"/>
<path d="M1 11L39 11" stroke="#2D2D39" stroke-linecap="square"/>
<path d="M37 11V34" stroke="#2D2D39" stroke-linecap="square"/>
</g>
<defs>
<clipPath id="clip0_1413_125">
<rect width="40" height="36" fill="white"/>
</clipPath>
</defs>
</svg>
