<svg width="40" height="36" viewBox="0 0 40 36" fill="none" xmlns="http://www.w3.org/2000/svg">
<path d="M4.87964 20.8022V20.8022C5.27669 21.9841 6.38414 22.7803 7.63087 22.7803H10.3069" stroke="#2D2D39"/>
<path d="M2.3324 33V31.4615H36.3356V33" stroke="#2D2D39"/>
<path d="M14.4081 21.8951L13.6298 21.3517H24.9272L24.8994 21.3755C23.3449 22.7075 21.3654 23.4396 19.3183 23.4396C17.562 23.4396 15.8481 22.9005 14.4081 21.8951Z" stroke="#2D2D39"/>
<path d="M19.3893 31.5714V23.4396" stroke="#2D2D39"/>
<path d="M19.2784 21.4616L19.2784 9.81323" stroke="#2D2D39"/>
<path d="M6.20874 28.1648H12.8543" stroke="#2D2D39"/>
<path d="M5.54454 31.4616L6.54138 25.7473L3.88315 17.8352L2.66479 18.3847" stroke="#2D2D39"/>
<path d="M6.54114 25.7472H12.4114L13.519 31.3516" stroke="#2D2D39"/>
<path d="M34.3418 20.8022V20.8022C33.9447 21.9841 32.8373 22.7803 31.5906 22.7803H28.9146" stroke="#2D2D39"/>
<path d="M33.0127 28.1648H26.3671" stroke="#2D2D39"/>
<path d="M33.6773 31.4616L32.6804 25.7473L35.3387 17.8352L36.557 18.3847" stroke="#2D2D39"/>
<path d="M32.6803 25.7472H26.81L25.7024 31.3516" stroke="#2D2D39"/>
<path d="M19.5 3L37 9.81319H2L19.5 3Z" stroke="#2D2D39"/>
</svg>
