<svg xmlns="http://www.w3.org/2000/svg" width="101" height="218" fill="none"><g stroke="#F2CFBE" clip-path="url(#a)"><path stroke-width="2" d="M56 165.181h37.04v-6.58H56v6.58Z"/><path stroke-width="2" d="M56 165.181h37.04V217H56v-51.819Z"/><path d="M56 214.533h37.04v2.468H56v-2.468Z"/><path d="M56 212.066h37.04v2.467H56v-2.467ZM64.2314 169.294h20.5778v42.771H64.2314v-42.771Z"/><path d="M67.5234 172.584h13.9929v23.853H67.5234v-23.853ZM67.5234 208.775h13.9929v-9.87H67.5234v9.87ZM101 9H61l39.5 31.584V43M0 9h41L.5 41.5V44M24 14v3M12 18v8.2253M89 17v8.2253M78 17v-5"/><path stroke-width="2" d="M1 44 51 4l49 40v173H1V44Z"/><path stroke-width="2" d="M45.7129 50.3516h14.816v34.5462h-14.816V50.3516ZM45.7129 50.3516h14.816v-6.5803h-14.816v6.5803Z"/><path d="M75.3452 84.8975h-14.816V50.3512h14.816v34.5463ZM45.7129 72.5596h14.816V84.075h-14.816V72.5596Z"/><path d="M45.7129 61.8672h14.816v10.6929h-14.816V61.8672Z"/><path stroke-width="2" d="M45.7129 88.1885h14.816v-3.2901h-14.816v3.2901ZM19.3735 165.506H37.482v35.369H19.3735v-35.369ZM19.3735 165.506H37.482v-6.58H19.3735v6.58Z"/><path d="M19.3735 177.021H37.482v23.854H19.3735v-23.854Z"/><path d="M19.3735 188.537H37.482v12.338H19.3735v-12.338Z"/><path d="M19.3735 165.506h9.0543v35.369h-9.0543v-35.369Z"/><path stroke-width="2" d="M19.5 109.905h18.1084v35.369H19.5v-35.369ZM19.5 109.905h18.1084v-6.58H19.5v6.58Z"/><path d="M19.5 121.421h18.1084v23.853H19.5v-23.853Z"/><path d="M19.5 132.937h18.1084v12.337H19.5v-12.337Z"/><path d="M19.5 109.905h9.0542v35.369H19.5v-35.369Z"/><path stroke-width="2" d="M65.5 109.905h18.1084v35.369H65.5v-35.369ZM65.5 109.905h18.1084v-6.58H65.5v6.58Z"/><path d="M65.5 121.421h18.1084v23.853H65.5v-23.853Z"/><path d="M65.5 132.937h18.1084v12.337H65.5v-12.337Z"/><path d="M65.5 109.905h9.0542v35.369H65.5v-35.369ZM.5 41.5V45L51 4l49.5 40.0053V40.5L51 1 .5 41.5ZM55.5905 147.822H44.067m15.6391-1.645h-14.816m11.5235-1.646h-7.408m2.8809 1.646v1.645m-3.2924-1.645v1.645m-3.2925-1.645v1.645m1.6462-3.702v1.645m3.2925-1.645v1.645m3.2924-1.645v1.645m-1.6462-3.29v1.645m-4.9387 4.113v1.645m3.2925-1.645v1.645m3.2924-1.645v1.645m4.9387-3.701v1.645M27.6052 76.2611H16.0816m15.6391-1.6451h-14.816m11.5236-1.6451h-7.408m2.8809 1.6451v1.6451m-3.2925-1.6451v1.6451m-3.2924-1.6451v1.6451m1.6462-3.7014v1.645m3.2924-1.645v1.645m3.2925-1.645v1.645m-1.6462-3.2901v1.6451m-4.9387 4.1126v1.6451m3.2924-1.6451v1.6451m3.2925-1.6451v1.6451m4.9386-3.7014v1.6451M59.7064 33.4896h11.5235m-15.6391-1.6451h14.816m-11.5235-1.645h7.408m-2.8809 1.645v1.6451m3.2924-1.6451v1.6451m3.2925-1.6451v1.6451m-1.6463-3.7014v1.645m-3.2924-1.645v1.645m-3.2925-1.645v1.645m1.6463-3.2901v1.6451m4.9386 4.1126v1.6451m-3.2924-1.6451v1.6451m-3.2925-1.6451v1.6451m-4.9386-3.7014v1.6451"/></g><defs><clipPath id="a"><path fill="#fff" d="M0 0h101v218H0z"/></clipPath></defs></svg>