<svg width="125" height="218" viewBox="0 0 125 218" fill="none" xmlns="http://www.w3.org/2000/svg">
<path d="M1.50005 44L61.9609 4L123.5 44V217H1.5L1.50005 44Z" stroke="#F2CFBE" stroke-width="2"/>
<path d="M15.5507 165.181H52.5906V211.242H15.5507V165.181Z" stroke="#F2CFBE" stroke-width="2"/>
<path d="M15.5507 165.181H106.916V158.6H15.5507V165.181Z" stroke="#F2CFBE" stroke-width="2"/>
<path d="M15.5507 165.181H34.4822V211.242H15.5507V165.181Z" stroke="#F2CFBE"/>
<path d="M15.5507 165.181H43.5364V211.242H15.5507V165.181Z" stroke="#F2CFBE"/>
<path d="M15.5507 165.181H24.6049V211.242H15.5507V165.181Z" stroke="#F2CFBE"/>
<path d="M15.5507 176.696H52.5906V211.243H15.5507V176.696Z" stroke="#F2CFBE"/>
<path d="M15.5507 176.696H34.4822V211.243H15.5507V176.696Z" stroke="#F2CFBE"/>
<path d="M15.5507 188.212H52.5906V211.243H15.5507V188.212Z" stroke="#F2CFBE"/>
<path d="M15.5507 188.212H34.4822V211.243H15.5507V188.212Z" stroke="#F2CFBE"/>
<path d="M34.4822 165.181V211.242" stroke="#F2CFBE" stroke-width="2"/>
<path d="M15.5507 200.55H52.5906V211.243H15.5507V200.55Z" stroke="#F2CFBE"/>
<path d="M15.5507 200.55H34.4822V211.243H15.5507V200.55Z" stroke="#F2CFBE"/>
<path d="M46.8288 49.7734H75.6377V84.5728H46.8288V49.7734Z" stroke="#F2CFBE" stroke-width="2"/>
<path d="M46.8288 49.7734H75.6377V43.4463H46.8288V49.7734Z" stroke="#F2CFBE" stroke-width="2"/>
<path d="M46.8288 84.5723H32.0128V50.026H46.8288V84.5723Z" stroke="#F2CFBE"/>
<path d="M90.4539 84.5723H75.6379V50.026H90.4539V84.5723Z" stroke="#F2CFBE"/>
<path d="M61.6449 50.5635L61.6449 84.5719" stroke="#F2CFBE" stroke-width="2"/>
<path d="M46.8288 72.2344H75.6377V83.7498H46.8288V72.2344Z" stroke="#F2CFBE"/>
<path d="M46.8288 61.542H75.6377V72.2349H46.8288V61.542Z" stroke="#F2CFBE"/>
<path d="M46.8288 50.0264H75.6377V61.5418H46.8288V50.0264Z" stroke="#F2CFBE"/>
<path d="M46.8288 87.8633H75.6377V84.5732H46.8288V87.8633Z" stroke="#F2CFBE" stroke-width="2"/>
<path d="M15.5507 149.554H106.916V145.441H15.5507V149.554Z" stroke="#F2CFBE" stroke-width="2"/>
<path d="M15.5507 102.669H106.916V96.089H15.5507V102.669Z" stroke="#F2CFBE" stroke-width="2"/>
<path d="M15.5507 102.669H52.5907V145.441H15.5507V102.669Z" stroke="#F2CFBE" stroke-width="2"/>
<path d="M15.5507 102.669H34.4823V145.441H15.5507V102.669Z" stroke="#F2CFBE"/>
<path d="M15.5507 102.669H43.5365V145.441H15.5507V102.669Z" stroke="#F2CFBE"/>
<path d="M15.5507 102.669H24.6049V145.441H15.5507V102.669Z" stroke="#F2CFBE"/>
<path d="M15.5507 113.73H52.5907V145.441H15.5507V113.73Z" stroke="#F2CFBE"/>
<path d="M15.5507 113.73H34.4823V145.441H15.5507V113.73Z" stroke="#F2CFBE"/>
<path d="M15.5507 124.055H52.5907V145.441H15.5507V124.055Z" stroke="#F2CFBE"/>
<path d="M15.5507 124.055H34.4823V145.441H15.5507V124.055Z" stroke="#F2CFBE"/>
<path d="M34.4824 102.669V145.441" stroke="#F2CFBE" stroke-width="2"/>
<path d="M15.5507 135.116H52.5907V145.44H15.5507V135.116Z" stroke="#F2CFBE"/>
<path d="M15.5507 135.116H34.4823V145.44H15.5507V135.116Z" stroke="#F2CFBE"/>
<path d="M69.876 102.669H106.916V145.441H69.876V102.669Z" stroke="#F2CFBE" stroke-width="2"/>
<path d="M69.876 102.669H88.8075V145.441H69.876V102.669Z" stroke="#F2CFBE"/>
<path d="M69.876 102.669H97.8617V145.441H69.876V102.669Z" stroke="#F2CFBE"/>
<path d="M69.876 102.669H78.9302V145.441H69.876V102.669Z" stroke="#F2CFBE"/>
<path d="M69.876 113.73H106.916V145.441H69.876V113.73Z" stroke="#F2CFBE"/>
<path d="M69.876 113.73H88.8075V145.441H69.876V113.73Z" stroke="#F2CFBE"/>
<path d="M69.876 124.055H106.916V145.441H69.876V124.055Z" stroke="#F2CFBE"/>
<path d="M69.876 124.055H88.8075V145.441H69.876V124.055Z" stroke="#F2CFBE"/>
<path d="M88.8077 102.669V145.441" stroke="#F2CFBE" stroke-width="2"/>
<path d="M69.876 135.116H106.916V145.44H69.876V135.116Z" stroke="#F2CFBE"/>
<path d="M69.876 135.116H88.8075V145.44H69.876V135.116Z" stroke="#F2CFBE"/>
<path d="M69.8759 165.181H106.916V217H69.8759V165.181Z" stroke="#F2CFBE" stroke-width="2"/>
<path d="M69.8759 165.181H106.916V217H69.8759V165.181Z" stroke="#F2CFBE" stroke-width="2"/>
<path d="M69.8759 214.532H106.916V217H69.8759V214.532Z" stroke="#F2CFBE"/>
<path d="M69.8759 212.064H106.916V214.532H69.8759V212.064Z" stroke="#F2CFBE"/>
<path d="M78.107 169.293H98.6848V212.065H78.107V169.293Z" stroke="#F2CFBE"/>
<path d="M81.3996 172.583H95.3925V196.436H81.3996V172.583Z" stroke="#F2CFBE"/>
<path d="M81.3996 208.774H95.3925V198.904H81.3996V208.774Z" stroke="#F2CFBE"/>
<path d="M1 41.39V44L62 4L124 44V41.5L62 1L1 41.39Z" stroke="#F2CFBE"/>
<path d="M13.4927 81.694H24.6047M14.7274 83.3391H26.6625M8.96564 84.9841H20.0776M17.1967 83.3391V81.694M20.4892 83.3391V81.694M23.7816 83.3391V81.694M22.1354 85.3954V83.7503M18.843 85.3954V83.7503M15.5505 85.3954V83.7503M17.1967 87.0405V85.3954M13.4927 87.0405V85.3954M18.843 81.2828V79.6377M15.5505 81.2828V79.6377" stroke="#F2CFBE"/>
<path d="M103.624 45.5023L92.5115 45.5023M102.389 43.8572L90.4538 43.8572M108.151 42.2122L97.0386 42.2122M99.9195 43.8572L99.9195 45.5023M96.6271 43.8572L96.6271 45.5023M93.3346 43.8572L93.3346 45.5023M94.9809 41.8009L94.9809 43.4459M98.2733 41.8009L98.2733 43.4459M101.566 41.8009L101.566 43.4459M99.9195 40.1558L99.9195 41.8009M103.624 40.1558L103.624 41.8009M98.2733 45.9135L98.2733 47.5586M101.566 45.9135L101.566 47.5586" stroke="#F2CFBE"/>
<path d="M0.5 9H50L1 41.5V44" stroke="#F2CFBE"/>
<path d="M10.5 16V21.7577" stroke="#F2CFBE"/>
<path d="M22.5 14L22.5 22" stroke="#F2CFBE"/>
</svg>
