<svg xmlns="http://www.w3.org/2000/svg" width="101" height="218" fill="none"><path stroke="#F2CFBE" stroke-width="2" d="M1 44h99v173H1V44Z"/><path stroke="#F2CFBE" stroke-width="2" d="M1 58h99V44H1v14ZM40 22h22v16H40V22Z"/><path stroke="#F2CFBE" d="M43 25h16v10H43V25Z"/><path stroke="#F2CFBE" stroke-width="2" d="M14 165.588h18v35.411H14v-35.411ZM14 165.588h18V159H14v6.588Z"/><path stroke="#F2CFBE" d="M14 177.118h18V201H14v-23.882Z"/><path stroke="#F2CFBE" d="M14 188.646h18v12.353H14v-12.353Z"/><path stroke="#F2CFBE" d="M14 165.588h9v35.411h-9v-35.411Z"/><path stroke="#F2CFBE" stroke-width="2" d="M14.4624 110.072h18.1084v35.368H14.4624v-35.368ZM14.4624 110.072h18.1084v-6.581H14.4624v6.581Z"/><path stroke="#F2CFBE" d="M14.4624 121.587h18.1084v23.853H14.4624v-23.853Z"/><path stroke="#F2CFBE" d="M14.4624 133.103h18.1084v12.337H14.4624v-12.337Z"/><path stroke="#F2CFBE" d="M14.4624 110.072h9.0542v35.368h-9.0542v-35.368Z"/><path stroke="#F2CFBE" stroke-width="2" d="M14.4624 149.553h18.1084v-4.113H14.4624v4.113ZM61.3799 149.553h18.1084v-4.113H61.3799v4.113ZM61.3796 110.072h18.1085v35.368H61.3796v-35.368ZM61.3796 110.072h18.1085v-6.581H61.3796v6.581Z"/><path stroke="#F2CFBE" d="M61.3796 121.587h18.1085v23.853H61.3796v-23.853Z"/><path stroke="#F2CFBE" d="M61.3796 133.103h18.1085v12.337H61.3796v-12.337Z"/><path stroke="#F2CFBE" d="M61.3796 110.072h9.0543v35.368h-9.0543v-35.368Z"/><path stroke="#F2CFBE" stroke-width="2" d="M51.5022 165.181h37.04v-6.58h-37.04v6.58Z"/><path stroke="#F2CFBE" stroke-width="2" d="M51.5022 165.181h37.04V217h-37.04v-51.819Z"/><path stroke="#F2CFBE" d="M51.5022 214.533h37.04v2.468h-37.04v-2.468Z"/><path stroke="#F2CFBE" d="M51.5022 212.066h37.04v2.467h-37.04v-2.467ZM59.7334 169.294h20.5778v42.772H59.7334v-42.772Z"/><path stroke="#F2CFBE" d="M63.0259 172.584h13.9929v23.854H63.0259v-23.854ZM63.0259 208.776h13.9929v-9.871H63.0259v9.871ZM1 14v24M101 9H0M22.6934 13.8359v11.5155M96.7734 22.0605v12.338M53.1484 13.8359v4.9352M40.8018 16.3027v2.4676M22.6934 35.2217v2.4676M96.7734 15.4805v2.4676M84.4268 29.4639v7.4027M72.0801 21.2383v13.1605M84.4268 17.9482v7.4028M10.3467 22.8838v13.1605M15 43v14.8055M39 43v14.8055M75 43v14.8055M27 43v14.8055M63 43v14.8055M51 43v14.8055M87 43v14.8055M20.2241 78.8151h11.112m-9.8773 1.6451h11.9351m-17.6969 1.645h11.112m-2.8809-1.645v-1.6451m3.2925 1.6451v-1.6451m3.2924 1.6451v-1.6451m-1.6462 3.7014v-1.6451m-3.2925 1.6451v-1.6451m-3.2924 1.6451v-1.6451m1.6462 3.2902v-1.6451m-3.704 1.6451v-1.6451m5.3502-4.1127v-1.645m-3.2924 1.645v-1.645M50.6794 147.496H39.1558m15.6391-1.645h-14.816m11.5236-1.645h-7.408m2.8809 1.645v1.645m-3.2925-1.645v1.645m-3.2924-1.645v1.645m1.6462-3.701v1.645m3.2925-1.645v1.645m3.2924-1.645v1.645m-1.6462-3.29v1.645m-4.9387 4.113v1.645m3.2925-1.645v1.645m3.2924-1.645v1.645m4.9387-3.702v1.645"/></svg>