<svg xmlns="http://www.w3.org/2000/svg" width="124" height="218" fill="none"><g stroke="#F2CFBE" clip-path="url(#a)"><path stroke-width="2" d="M.5 44 60.961 4 122.5 44v173H.5V44Z"/><path stroke-width="2" d="M14.5505 165.181h37.04v46.061h-37.04v-46.061ZM14.5505 165.181h91.3655V158.6H14.5505v6.581Z"/><path d="M14.5505 165.181h18.9316v46.061H14.5505v-46.061Z"/><path d="M14.5505 165.181h27.9858v46.061H14.5505v-46.061Z"/><path d="M14.5505 165.181h9.0543v46.061h-9.0543v-46.061Z"/><path d="M14.5505 176.696h37.04v34.547h-37.04v-34.547Z"/><path d="M14.5505 176.696h18.9316v34.547H14.5505v-34.547Z"/><path d="M14.5505 188.212h37.04v23.031h-37.04v-23.031Z"/><path d="M14.5505 188.212h18.9316v23.031H14.5505v-23.031Z"/><path stroke-width="2" d="M33.4822 165.181v46.061"/><path d="M14.5505 200.55h37.04v10.693h-37.04V200.55Z"/><path d="M14.5505 200.55h18.9316v10.693H14.5505V200.55Z"/><path stroke-width="2" d="M45.8289 49.7734h28.8088v34.7994H45.8289V49.7734ZM45.8289 49.7734h28.8088v-6.3271H45.8289v6.3271Z"/><path d="M45.8289 84.5723h-14.816V50.026h14.816v34.5463ZM89.4539 84.5723h-14.816V50.026h14.816v34.5463Z"/><path stroke-width="2" d="M60.645 50.5635v34.0084"/><path d="M45.8289 72.2344h28.8088v11.5154H45.8289V72.2344Z"/><path d="M45.8289 61.542h28.8088v10.6929H45.8289V61.542ZM45.8289 50.0264h28.8088v11.5154H45.8289V50.0264Z"/><path stroke-width="2" d="M45.8289 87.8633h28.8088v-3.2901H45.8289v3.2901ZM14.5505 149.554h91.3655v-4.113H14.5505v4.113ZM14.5505 102.669h91.3655v-6.58H14.5505v6.58ZM14.5505 102.669h37.04v42.772h-37.04v-42.772Z"/><path d="M14.5505 102.669h18.9316v42.772H14.5505v-42.772Z"/><path d="M14.5505 102.669h27.9858v42.772H14.5505v-42.772Z"/><path d="M14.5505 102.669h9.0543v42.772h-9.0543v-42.772Z"/><path d="M14.5505 113.73h37.04v31.711h-37.04V113.73Z"/><path d="M14.5505 113.73h18.9316v31.711H14.5505V113.73Z"/><path d="M14.5505 124.055h37.04v21.386h-37.04v-21.386Z"/><path d="M14.5505 124.055h18.9316v21.386H14.5505v-21.386Z"/><path stroke-width="2" d="M33.4822 102.669v42.772"/><path d="M14.5505 135.116h37.04v10.324h-37.04v-10.324Z"/><path d="M14.5505 135.116h18.9316v10.324H14.5505v-10.324Z"/><path stroke-width="2" d="M68.8757 102.669h37.0403v42.772H68.8757v-42.772Z"/><path d="M68.8757 102.669h18.9316v42.772H68.8757v-42.772Z"/><path d="M68.8757 102.669h27.9858v42.772H68.8757v-42.772Z"/><path d="M68.8757 102.669h9.0542v42.772h-9.0542v-42.772Z"/><path d="M68.8757 113.73h37.0403v31.711H68.8757V113.73Z"/><path d="M68.8757 113.73h18.9316v31.711H68.8757V113.73Z"/><path d="M68.8757 124.055h37.0403v21.386H68.8757v-21.386Z"/><path d="M68.8757 124.055h18.9316v21.386H68.8757v-21.386Z"/><path stroke-width="2" d="M87.8074 102.669v42.772"/><path d="M68.8757 135.116h37.0403v10.324H68.8757v-10.324Z"/><path d="M68.8757 135.116h18.9316v10.324H68.8757v-10.324Z"/><path stroke-width="2" d="M68.8757 165.181h37.0403V217H68.8757v-51.819Z"/><path stroke-width="2" d="M68.8757 165.181h37.0403V217H68.8757v-51.819Z"/><path d="M68.8757 214.532h37.0403V217H68.8757v-2.468ZM68.8757 212.064h37.0403v2.468H68.8757v-2.468Z"/><path d="M77.1069 169.293h20.5778v42.772H77.1069v-42.772Z"/><path d="M80.3997 172.583h13.9928v23.853H80.3997v-23.853ZM80.3997 208.774h13.9928v-9.87H80.3997v9.87ZM0 41.39V44L61 4l62 40v-2.5L61 1 0 41.39ZM12.4927 81.694h11.112m-9.8774 1.6451h11.9352m-17.697 1.645h11.1121m-2.8809-1.645V81.694m3.2924 1.6451V81.694m3.2925 1.6451V81.694m-1.6463 3.7014v-1.6451m-3.2924 1.6451v-1.6451m-3.2924 1.6451v-1.6451m1.6462 3.2902v-1.6451m-3.704 1.6451v-1.6451m5.3502-4.1126v-1.6451m-3.2924 1.6451v-1.6451M102.624 45.5023H91.5115m9.8775-1.6451H89.4538m17.6972-1.645H96.0386m2.8809 1.645v1.6451m-3.2924-1.6451v1.6451m-3.2925-1.6451v1.6451m1.6463-3.7014v1.645m3.2924-1.645v1.645m3.2927-1.645v1.645m-1.6465-3.2901v1.6451m3.7045-1.6451v1.6451m-5.3507 4.1126v1.6451m3.2927-1.6451v1.6451"/><path d="M-.5 9H49L0 41.5V44M9.5 16v5.7577M21.5 14v8"/></g><defs><clipPath id="a"><path fill="#fff" d="M0 0h124v218H0z"/></clipPath></defs></svg>