<svg width="102" height="210" viewBox="0 0 102 210" fill="none" xmlns="http://www.w3.org/2000/svg">
<path d="M1.5 36H100.5V209H1.5V36Z" stroke="#F2CFBE" stroke-width="2"/>
<path d="M1.5 50H100.5V36H1.5V50Z" stroke="#F2CFBE" stroke-width="2"/>
<path d="M40.5 14H62.5V30H40.5V14Z" stroke="#F2CFBE" stroke-width="2"/>
<path d="M43.5 17H59.5V27H43.5V17Z" stroke="#F2CFBE"/>
<path d="M14.5 157.588H32.5V192.999H14.5V157.588Z" stroke="#F2CFBE" stroke-width="2"/>
<path d="M14.5 157.588H32.5V151H14.5V157.588Z" stroke="#F2CFBE" stroke-width="2"/>
<path d="M14.5 169.118H32.5V193H14.5V169.118Z" stroke="#F2CFBE"/>
<path d="M14.5 180.646H32.5V192.999H14.5V180.646Z" stroke="#F2CFBE"/>
<path d="M14.5 157.588H23.5V192.999H14.5V157.588Z" stroke="#F2CFBE"/>
<path d="M14.9624 102.072H33.0708V137.44H14.9624V102.072Z" stroke="#F2CFBE" stroke-width="2"/>
<path d="M14.9624 102.072H33.0708V95.4913H14.9624V102.072Z" stroke="#F2CFBE" stroke-width="2"/>
<path d="M14.9624 113.587H33.0708V137.44H14.9624V113.587Z" stroke="#F2CFBE"/>
<path d="M14.9624 125.103H33.0708V137.44H14.9624V125.103Z" stroke="#F2CFBE"/>
<path d="M14.9624 102.072H24.0166V137.44H14.9624V102.072Z" stroke="#F2CFBE"/>
<path d="M14.9624 141.553H33.0708V137.44H14.9624V141.553Z" stroke="#F2CFBE" stroke-width="2"/>
<path d="M61.8798 141.553H79.9882V137.44H61.8798V141.553Z" stroke="#F2CFBE" stroke-width="2"/>
<path d="M61.8796 102.072H79.9881V137.44H61.8796V102.072Z" stroke="#F2CFBE" stroke-width="2"/>
<path d="M61.8796 102.072H79.9881V95.4913H61.8796V102.072Z" stroke="#F2CFBE" stroke-width="2"/>
<path d="M61.8796 113.587H79.9881V137.44H61.8796V113.587Z" stroke="#F2CFBE"/>
<path d="M61.8796 125.103H79.9881V137.44H61.8796V125.103Z" stroke="#F2CFBE"/>
<path d="M61.8796 102.072H70.9339V137.44H61.8796V102.072Z" stroke="#F2CFBE"/>
<path d="M52.0022 157.181H89.0422V150.601H52.0022V157.181Z" stroke="#F2CFBE" stroke-width="2"/>
<path d="M52.0022 157.181H89.0422V209H52.0022V157.181Z" stroke="#F2CFBE" stroke-width="2"/>
<path d="M52.0022 206.533H89.0422V209.001H52.0022V206.533Z" stroke="#F2CFBE"/>
<path d="M52.0022 204.066H89.0422V206.533H52.0022V204.066Z" stroke="#F2CFBE"/>
<path d="M60.2334 161.294H80.8112V204.066H60.2334V161.294Z" stroke="#F2CFBE"/>
<path d="M63.5259 164.584H77.5188V188.438H63.5259V164.584Z" stroke="#F2CFBE"/>
<path d="M63.5259 200.776H77.5188V190.905H63.5259V200.776Z" stroke="#F2CFBE"/>
<path d="M1.5 6L1.5 30" stroke="#F2CFBE"/>
<path d="M101.5 1L0.5 1" stroke="#F2CFBE"/>
<path d="M23.1934 5.83594L23.1934 17.3514" stroke="#F2CFBE"/>
<path d="M97.2734 14.0605L97.2734 26.3985" stroke="#F2CFBE"/>
<path d="M53.6484 5.83594L53.6484 10.7711" stroke="#F2CFBE"/>
<path d="M41.3018 8.30273L41.3018 10.7703" stroke="#F2CFBE"/>
<path d="M23.1934 27.2217L23.1934 29.6893" stroke="#F2CFBE"/>
<path d="M97.2734 7.48047L97.2734 9.94806" stroke="#F2CFBE"/>
<path d="M84.9268 21.4639L84.9268 28.8666" stroke="#F2CFBE"/>
<path d="M72.5801 13.2383L72.5801 26.3988" stroke="#F2CFBE"/>
<path d="M84.9268 9.94824V17.351" stroke="#F2CFBE"/>
<path d="M10.8467 14.8838V28.0443" stroke="#F2CFBE"/>
<path d="M15.5 35V49.8055" stroke="#F2CFBE"/>
<path d="M39.5 35V49.8055" stroke="#F2CFBE"/>
<path d="M75.5 35V49.8055" stroke="#F2CFBE"/>
<path d="M27.5 35V49.8055" stroke="#F2CFBE"/>
<path d="M63.5 35V49.8055" stroke="#F2CFBE"/>
<path d="M51.5 35V49.8055" stroke="#F2CFBE"/>
<path d="M87.5 35V49.8055" stroke="#F2CFBE"/>
<path d="M20.7241 70.8151H31.8361M21.9588 72.4602H33.8939M16.197 74.1052H27.309M24.4281 72.4602V70.8151M27.7206 72.4602V70.8151M31.013 72.4602V70.8151M29.3668 74.5165V72.8714M26.0743 74.5165V72.8714M22.7819 74.5165V72.8714M24.4281 76.1616V74.5165M20.7241 76.1616V74.5165M26.0743 70.4038V68.7588M22.7819 70.4038V68.7588" stroke="#F2CFBE"/>
<path d="M51.1794 139.496L39.6558 139.496M55.2949 137.851L40.4789 137.851M52.0025 136.206L44.5945 136.206M47.4754 137.851L47.4754 139.496M44.1829 137.851L44.1829 139.496M40.8905 137.851L40.8905 139.496M42.5367 135.795L42.5367 137.44M45.8292 135.795L45.8292 137.44M49.1216 135.795L49.1216 137.44M47.4754 134.15L47.4754 135.795M42.5367 139.908L42.5367 141.553M45.8292 139.908L45.8292 141.553M49.1216 139.908L49.1216 141.553M54.0603 137.851L54.0603 139.496" stroke="#F2CFBE"/>
</svg>
