<svg width="84" height="25" viewBox="0 0 84 25" fill="none" xmlns="http://www.w3.org/2000/svg">
<path id="Vector" d="M84 12.4978L83.9819 14.4744L83.932 15.6289L83.8505 16.5948L83.7326 17.4438L83.5831 18.212L83.4019 18.9218L83.1844 19.5732L82.9352 20.1797L82.6542 20.7457L82.337 21.2713L81.9881 21.7565L81.603 22.2102L81.1861 22.6235L80.7284 23.0054L80.2391 23.3513L79.7089 23.6658L79.138 23.9443L78.5263 24.1914L77.8692 24.407L77.1533 24.5867L76.3785 24.735L75.5221 24.8518L74.5479 24.9326L73.3833 24.982L42.4442 25L10.6167 24.982L9.45218 24.9326L8.47796 24.8518L7.62155 24.735L6.84671 24.5867L6.13077 24.407L5.47374 24.1914L4.86203 23.9443L4.29109 23.6658L3.76093 23.3513L3.27156 23.0054L2.8139 22.6235L2.39703 22.2102L2.01187 21.7565L1.66297 21.2713L1.34578 20.7457L1.06484 20.1797L0.815624 19.5732L0.598124 18.9218L0.416874 18.212L0.267343 17.4438L0.149531 16.5948L0.0679687 15.6289L0.018125 14.4744L0 12.5022L0.018125 10.5256L0.0679687 9.37107L0.149531 8.40521L0.267343 7.55615L0.416874 6.78796L0.598124 6.07817L0.815624 5.42678L1.06484 4.82031L1.34578 4.25427L1.66297 3.72866L2.01187 3.24349L2.39703 2.78976L2.8139 2.37646L3.27156 1.99461L3.76093 1.6487L4.29109 1.33423L4.86203 1.05571L5.47374 0.808625L6.13077 0.592992L6.84671 0.413297L7.62155 0.265049L8.47796 0.148248L9.45218 0.0673855L10.6167 0.0179694L42.4442 0L73.3833 0.0179694L74.5479 0.0673855L75.5221 0.148248L76.3785 0.265049L77.1533 0.413297L77.8692 0.592992L78.5263 0.808625L79.138 1.05571L79.7089 1.33423L80.2391 1.6487L80.7284 1.99461L81.1861 2.37646L81.603 2.78976L81.9881 3.24349L82.337 3.72866L82.6542 4.25427L82.9352 4.82031L83.1844 5.42678L83.4019 6.07817L83.5831 6.78796L83.7326 7.55615L83.8505 8.40521L83.932 9.37107L83.9819 10.5256L84 12.4978Z" fill="#2D2D39"/>
</svg>
