<svg width="282" height="294" viewBox="0 0 282 294" fill="none" xmlns="http://www.w3.org/2000/svg">
<path d="M99.0605 9.0625L97.2617 6.88281L99.0605 4.69727H100.092L98.293 6.88281L100.092 9.0625H99.0605ZM101.223 9.0625L99.4238 6.88281L101.223 4.69727H102.254L100.455 6.88281L102.254 9.0625H101.223ZM104.023 10V1.59766H108.295C109.08 1.59766 109.721 1.79688 110.217 2.19531C110.713 2.59375 110.961 3.11523 110.961 3.75977C110.961 4.5293 110.584 5.13672 109.83 5.58203V5.63477C110.24 5.80273 110.57 6.08008 110.82 6.4668C111.074 6.85352 111.201 7.2793 111.201 7.74414C111.201 8.40039 110.965 8.94141 110.492 9.36719C110.02 9.78906 109.383 10 108.582 10H104.023ZM105.055 5.24805H108.295C108.795 5.24805 109.191 5.125 109.484 4.87891C109.781 4.63281 109.93 4.30469 109.93 3.89453C109.93 3.48438 109.781 3.15625 109.484 2.91016C109.191 2.66016 108.795 2.53516 108.295 2.53516H105.055V5.24805ZM105.055 9.0625H108.465C109.012 9.0625 109.432 8.92969 109.725 8.66406C110.021 8.39453 110.17 8.04688 110.17 7.62109C110.17 7.19141 110.016 6.8457 109.707 6.58398C109.398 6.31836 108.969 6.18555 108.418 6.18555H105.055V9.0625ZM117.459 7.31055V10H116.498V4H117.459V6.44922H120.822V4H121.777V10H120.822V7.31055H117.459ZM126.512 10.1465C125.629 10.1465 124.891 9.85156 124.297 9.26172C123.707 8.66797 123.412 7.91406 123.412 7C123.412 6.39844 123.549 5.85742 123.822 5.37695C124.1 4.89258 124.473 4.51758 124.941 4.25195C125.414 3.98633 125.938 3.85352 126.512 3.85352C127.383 3.85352 128.1 4.13867 128.662 4.70898C129.229 5.27539 129.512 6.01562 129.512 6.92969L129.488 7.35742H124.396C124.471 7.93945 124.701 8.41016 125.088 8.76953C125.479 9.125 125.953 9.30273 126.512 9.30273C126.914 9.30273 127.275 9.20898 127.596 9.02148C127.92 8.83398 128.166 8.57617 128.334 8.24805H129.365C129.139 8.83398 128.768 9.29688 128.252 9.63672C127.74 9.97656 127.16 10.1465 126.512 10.1465ZM124.408 6.51953H128.527C128.438 5.96484 128.213 5.52344 127.854 5.19531C127.494 4.86328 127.047 4.69727 126.512 4.69727C125.973 4.69727 125.512 4.86328 125.129 5.19531C124.746 5.52734 124.506 5.96875 124.408 6.51953ZM131.135 10V4H132.096V6.44922H133.033L135.406 4H136.631L133.848 6.85352L136.654 10H135.43L133.057 7.31055H132.096V10H131.135ZM141.846 9.74805C141.373 10.0137 140.848 10.1465 140.27 10.1465C139.691 10.1465 139.164 10.0137 138.688 9.74805C138.211 9.48242 137.834 9.10938 137.557 8.62891C137.283 8.14453 137.146 7.60156 137.146 7C137.146 6.39844 137.283 5.85742 137.557 5.37695C137.834 4.89258 138.211 4.51758 138.688 4.25195C139.164 3.98633 139.691 3.85352 140.27 3.85352C140.848 3.85352 141.373 3.98633 141.846 4.25195C142.322 4.51758 142.697 4.89258 142.971 5.37695C143.248 5.85742 143.387 6.39844 143.387 7C143.387 7.60156 143.248 8.14453 142.971 8.62891C142.697 9.10938 142.322 9.48242 141.846 9.74805ZM138.717 8.64062C139.127 9.06641 139.645 9.2793 140.27 9.2793C140.895 9.2793 141.41 9.06641 141.816 8.64062C142.223 8.21484 142.426 7.66797 142.426 7C142.426 6.33203 142.223 5.78516 141.816 5.35938C141.41 4.93359 140.895 4.7207 140.27 4.7207C139.645 4.7207 139.127 4.93359 138.717 5.35938C138.311 5.78516 138.107 6.33203 138.107 7C138.107 7.66797 138.311 8.21484 138.717 8.64062ZM144.33 4.86133V4H150.09V4.86133H147.688V10H146.732V4.86133H144.33ZM155.721 9.74805C155.248 10.0137 154.723 10.1465 154.145 10.1465C153.566 10.1465 153.039 10.0137 152.562 9.74805C152.086 9.48242 151.709 9.10938 151.432 8.62891C151.158 8.14453 151.021 7.60156 151.021 7C151.021 6.39844 151.158 5.85742 151.432 5.37695C151.709 4.89258 152.086 4.51758 152.562 4.25195C153.039 3.98633 153.566 3.85352 154.145 3.85352C154.723 3.85352 155.248 3.98633 155.721 4.25195C156.197 4.51758 156.572 4.89258 156.846 5.37695C157.123 5.85742 157.262 6.39844 157.262 7C157.262 7.60156 157.123 8.14453 156.846 8.62891C156.572 9.10938 156.197 9.48242 155.721 9.74805ZM152.592 8.64062C153.002 9.06641 153.52 9.2793 154.145 9.2793C154.77 9.2793 155.285 9.06641 155.691 8.64062C156.098 8.21484 156.301 7.66797 156.301 7C156.301 6.33203 156.098 5.78516 155.691 5.35938C155.285 4.93359 154.77 4.7207 154.145 4.7207C153.52 4.7207 153.002 4.93359 152.592 5.35938C152.186 5.78516 151.982 6.33203 151.982 7C151.982 7.66797 152.186 8.21484 152.592 8.64062ZM162.113 3.85352C162.98 3.85352 163.693 4.14844 164.252 4.73828C164.811 5.32422 165.09 6.07812 165.09 7C165.09 7.92188 164.811 8.67773 164.252 9.26758C163.693 9.85352 162.98 10.1465 162.113 10.1465C161.195 10.1465 160.459 9.80078 159.904 9.10938H159.857V12.4023H158.896V4H159.857V4.89062H159.904C160.459 4.19922 161.195 3.85352 162.113 3.85352ZM160.443 8.64062C160.854 9.06641 161.371 9.2793 161.996 9.2793C162.621 9.2793 163.133 9.06836 163.531 8.64648C163.93 8.2207 164.129 7.67188 164.129 7C164.129 6.32812 163.93 5.78125 163.531 5.35938C163.133 4.93359 162.621 4.7207 161.996 4.7207C161.371 4.7207 160.854 4.93359 160.443 5.35938C160.037 5.78516 159.834 6.33203 159.834 7C159.834 7.66797 160.037 8.21484 160.443 8.64062ZM171.002 9.74805C170.529 10.0137 170.004 10.1465 169.426 10.1465C168.848 10.1465 168.32 10.0137 167.844 9.74805C167.367 9.48242 166.99 9.10938 166.713 8.62891C166.439 8.14453 166.303 7.60156 166.303 7C166.303 6.39844 166.439 5.85742 166.713 5.37695C166.99 4.89258 167.367 4.51758 167.844 4.25195C168.32 3.98633 168.848 3.85352 169.426 3.85352C170.004 3.85352 170.529 3.98633 171.002 4.25195C171.479 4.51758 171.854 4.89258 172.127 5.37695C172.404 5.85742 172.543 6.39844 172.543 7C172.543 7.60156 172.404 8.14453 172.127 8.62891C171.854 9.10938 171.479 9.48242 171.002 9.74805ZM167.873 8.64062C168.283 9.06641 168.801 9.2793 169.426 9.2793C170.051 9.2793 170.566 9.06641 170.973 8.64062C171.379 8.21484 171.582 7.66797 171.582 7C171.582 6.33203 171.379 5.78516 170.973 5.35938C170.566 4.93359 170.051 4.7207 169.426 4.7207C168.801 4.7207 168.283 4.93359 167.873 5.35938C167.467 5.78516 167.264 6.33203 167.264 7C167.264 7.66797 167.467 8.21484 167.873 8.64062ZM181.473 4V10H180.518V5.36523H180.465L178.332 10H177.324L175.186 5.36523H175.139V10H174.178V4H175.525L177.805 8.94531H177.852L180.131 4H181.473ZM193.285 9.13867V11.3184H192.348V10H187.186V4H188.146V9.13867H191.51V4H192.465V9.13867H193.285ZM196.186 10.1465C196.006 10.1465 195.836 10.1348 195.676 10.1113C195.516 10.0918 195.344 10.0469 195.16 9.97656C194.98 9.90625 194.824 9.81445 194.691 9.70117C194.562 9.58789 194.455 9.43164 194.369 9.23242C194.283 9.0332 194.24 8.80078 194.24 8.53516C194.24 8.30078 194.275 8.08984 194.346 7.90234C194.416 7.71484 194.506 7.56055 194.615 7.43945C194.725 7.31445 194.867 7.20312 195.043 7.10547C195.223 7.00391 195.395 6.92383 195.559 6.86523C195.727 6.80664 195.928 6.74805 196.162 6.68945L198.588 6.0625V5.89844C198.588 5.67188 198.543 5.47656 198.453 5.3125C198.363 5.14453 198.244 5.01953 198.096 4.9375C197.947 4.85156 197.795 4.79102 197.639 4.75586C197.482 4.7168 197.318 4.69727 197.146 4.69727C196.725 4.69727 196.352 4.79883 196.027 5.00195C195.707 5.20117 195.52 5.48242 195.465 5.8457H194.48C194.551 5.21289 194.828 4.72266 195.312 4.375C195.797 4.02734 196.408 3.85352 197.146 3.85352C197.365 3.85352 197.572 3.86914 197.768 3.90039C197.963 3.92773 198.172 3.99023 198.395 4.08789C198.617 4.18164 198.807 4.30469 198.963 4.45703C199.123 4.60938 199.256 4.82031 199.361 5.08984C199.467 5.35547 199.52 5.66406 199.52 6.01562V8.72852C199.52 8.87305 199.547 8.97266 199.602 9.02734C199.66 9.08203 199.762 9.10938 199.906 9.10938H200.217V10H199.543C199.078 10 198.791 9.79297 198.682 9.37891L198.611 9.10938H198.559C198.285 9.44531 197.943 9.70312 197.533 9.88281C197.127 10.0586 196.678 10.1465 196.186 10.1465ZM196.303 9.30273C196.588 9.30273 196.861 9.26367 197.123 9.18555C197.389 9.10352 197.633 8.98633 197.855 8.83398C198.078 8.67773 198.256 8.46875 198.389 8.20703C198.521 7.94531 198.588 7.64648 198.588 7.31055V6.92969L196.162 7.55078C195.826 7.63672 195.582 7.75 195.43 7.89062C195.277 8.02734 195.201 8.21875 195.201 8.46484C195.201 9.02344 195.568 9.30273 196.303 9.30273ZM204.969 3.85352C205.836 3.85352 206.549 4.14844 207.107 4.73828C207.666 5.32422 207.945 6.07812 207.945 7C207.945 7.92188 207.666 8.67773 207.107 9.26758C206.549 9.85352 205.836 10.1465 204.969 10.1465C204.051 10.1465 203.314 9.80078 202.76 9.10938H202.713V12.4023H201.752V4H202.713V4.89062H202.76C203.314 4.19922 204.051 3.85352 204.969 3.85352ZM203.299 8.64062C203.709 9.06641 204.227 9.2793 204.852 9.2793C205.477 9.2793 205.988 9.06836 206.387 8.64648C206.785 8.2207 206.984 7.67188 206.984 7C206.984 6.32812 206.785 5.78125 206.387 5.35938C205.988 4.93359 205.477 4.7207 204.852 4.7207C204.227 4.7207 203.709 4.93359 203.299 5.35938C202.893 5.78516 202.689 6.33203 202.689 7C202.689 7.66797 202.893 8.21484 203.299 8.64062ZM212.234 10.1465C211.344 10.1465 210.607 9.85156 210.025 9.26172C209.447 8.67188 209.158 7.91797 209.158 7C209.158 6.08203 209.447 5.32812 210.025 4.73828C210.607 4.14844 211.344 3.85352 212.234 3.85352C212.969 3.85352 213.602 4.0625 214.133 4.48047C214.664 4.89453 215.014 5.45508 215.182 6.16211H214.197C214.041 5.70117 213.793 5.3457 213.453 5.0957C213.117 4.8457 212.711 4.7207 212.234 4.7207C211.602 4.7207 211.09 4.93164 210.699 5.35352C210.312 5.77539 210.119 6.32422 210.119 7C210.119 7.67578 210.312 8.22461 210.699 8.64648C211.09 9.06836 211.602 9.2793 212.234 9.2793C212.711 9.2793 213.117 9.1543 213.453 8.9043C213.793 8.6543 214.041 8.29883 214.197 7.83789H215.182C215.014 8.54492 214.664 9.10742 214.133 9.52539C213.602 9.93945 212.969 10.1465 212.234 10.1465ZM216.049 4.86133V4H221.809V4.86133H219.406V10H218.451V4.86133H216.049ZM223.338 10V4H226.602C227.223 4 227.723 4.14648 228.102 4.43945C228.48 4.72852 228.67 5.10938 228.67 5.58203C228.67 6.14453 228.373 6.56836 227.779 6.85352V6.90625C228.115 7.03906 228.375 7.23438 228.559 7.49219C228.742 7.74609 228.834 8.03711 228.834 8.36523C228.834 8.82617 228.654 9.21484 228.295 9.53125C227.939 9.84375 227.455 10 226.842 10H223.338ZM224.299 6.47266H226.602C226.938 6.47266 227.205 6.4043 227.404 6.26758C227.607 6.12695 227.709 5.92773 227.709 5.66992C227.709 5.41211 227.607 5.21289 227.404 5.07227C227.205 4.93164 226.938 4.86133 226.602 4.86133H224.299V6.47266ZM224.299 9.13867H226.748C227.092 9.13867 227.365 9.05469 227.568 8.88672C227.771 8.71875 227.873 8.50195 227.873 8.23633C227.873 7.9707 227.771 7.75391 227.568 7.58594C227.365 7.41797 227.092 7.33398 226.748 7.33398H224.299V9.13867ZM233.105 10.1465C232.223 10.1465 231.484 9.85156 230.891 9.26172C230.301 8.66797 230.006 7.91406 230.006 7C230.006 6.39844 230.143 5.85742 230.416 5.37695C230.693 4.89258 231.066 4.51758 231.535 4.25195C232.008 3.98633 232.531 3.85352 233.105 3.85352C233.977 3.85352 234.693 4.13867 235.256 4.70898C235.822 5.27539 236.105 6.01562 236.105 6.92969L236.082 7.35742H230.99C231.064 7.93945 231.295 8.41016 231.682 8.76953C232.072 9.125 232.547 9.30273 233.105 9.30273C233.508 9.30273 233.869 9.20898 234.189 9.02148C234.514 8.83398 234.76 8.57617 234.928 8.24805H235.959C235.732 8.83398 235.361 9.29688 234.846 9.63672C234.334 9.97656 233.754 10.1465 233.105 10.1465ZM231.002 6.51953H235.121C235.031 5.96484 234.807 5.52344 234.447 5.19531C234.088 4.86328 233.641 4.69727 233.105 4.69727C232.566 4.69727 232.105 4.86328 231.723 5.19531C231.34 5.52734 231.1 5.96875 231.002 6.51953ZM242.146 6.88281L240.348 9.0625H239.316L241.115 6.88281L239.316 4.69727H240.348L242.146 6.88281ZM239.984 6.88281L238.186 9.0625H237.154L238.953 6.88281L237.154 4.69727H238.186L239.984 6.88281Z" fill="#2D2D39"/>
<path d="M278.146 217.906C278.146 218.512 278.037 219.076 277.818 219.6C277.6 220.123 277.301 220.57 276.922 220.941C276.539 221.312 276.078 221.604 275.539 221.814C275 222.025 274.42 222.131 273.799 222.131C272.971 222.131 272.227 221.951 271.566 221.592C270.902 221.229 270.385 220.725 270.014 220.08C269.643 219.436 269.457 218.711 269.457 217.906C269.457 216.906 269.736 216.053 270.295 215.346C270.854 214.639 271.598 214.156 272.527 213.898L272.527 214.977C271.867 215.211 271.348 215.582 270.969 216.09C270.586 216.594 270.395 217.199 270.395 217.906C270.395 218.832 270.715 219.596 271.355 220.197C271.992 220.799 272.807 221.1 273.799 221.1C274.791 221.1 275.607 220.799 276.248 220.197C276.889 219.596 277.209 218.832 277.209 217.906C277.209 217.199 277.02 216.594 276.641 216.09C276.258 215.582 275.734 215.211 275.07 214.977L275.07 213.898C276 214.156 276.746 214.639 277.309 215.346C277.867 216.053 278.146 216.906 278.146 217.906ZM277.748 207.875C278.014 208.348 278.146 208.873 278.146 209.451C278.146 210.029 278.014 210.557 277.748 211.033C277.482 211.51 277.109 211.887 276.629 212.164C276.145 212.437 275.602 212.574 275 212.574C274.398 212.574 273.857 212.437 273.377 212.164C272.893 211.887 272.518 211.51 272.252 211.033C271.986 210.557 271.854 210.029 271.854 209.451C271.854 208.873 271.986 208.348 272.252 207.875C272.518 207.398 272.893 207.023 273.377 206.75C273.857 206.473 274.398 206.334 275 206.334C275.602 206.334 276.145 206.473 276.629 206.75C277.109 207.023 277.482 207.398 277.748 207.875ZM276.641 211.004C277.066 210.594 277.279 210.076 277.279 209.451C277.279 208.826 277.066 208.311 276.641 207.904C276.215 207.498 275.668 207.295 275 207.295C274.332 207.295 273.785 207.498 273.359 207.904C272.934 208.311 272.721 208.826 272.721 209.451C272.721 210.076 272.934 210.594 273.359 211.004C273.785 211.41 274.332 211.613 275 211.613C275.668 211.613 276.215 211.41 276.641 211.004ZM272 199.227L278 199.227L278 200.187L272.861 200.187L272.861 203.111L276.559 203.328C277.535 203.379 278.023 203.867 278.023 204.793L278.023 205.396L277.062 205.396L277.062 204.916C277.062 204.678 277.016 204.514 276.922 204.424C276.828 204.33 276.66 204.277 276.418 204.266L272 204.002L272 199.227ZM277.748 192.898C278.014 193.371 278.146 193.896 278.146 194.475C278.146 195.053 278.014 195.58 277.748 196.057C277.482 196.533 277.109 196.91 276.629 197.187C276.145 197.461 275.602 197.598 275 197.598C274.398 197.598 273.857 197.461 273.377 197.187C272.893 196.91 272.518 196.533 272.252 196.057C271.986 195.58 271.854 195.053 271.854 194.475C271.854 193.896 271.986 193.371 272.252 192.898C272.518 192.422 272.893 192.047 273.377 191.773C273.857 191.496 274.398 191.357 275 191.357C275.602 191.357 276.145 191.496 276.629 191.773C277.109 192.047 277.482 192.422 277.748 192.898ZM276.641 196.027C277.066 195.617 277.279 195.1 277.279 194.475C277.279 193.85 277.066 193.334 276.641 192.928C276.215 192.521 275.668 192.318 275 192.318C274.332 192.318 273.785 192.521 273.359 192.928C272.934 193.334 272.721 193.85 272.721 194.475C272.721 195.1 272.934 195.617 273.359 196.027C273.785 196.434 274.332 196.637 275 196.637C275.668 196.637 276.215 196.434 276.641 196.027ZM272.861 190.414L272 190.414L272 184.654L272.861 184.654L272.861 187.057L278 187.057L278 188.012L272.861 188.012L272.861 190.414ZM272 178.18L278 178.18L278 179.141L275.697 179.141C275.826 179.738 275.891 180.314 275.891 180.869C275.891 181.791 275.729 182.453 275.404 182.855C275.076 183.258 274.502 183.459 273.682 183.459L272 183.459L272 182.498L273.682 182.498C274.197 182.498 274.551 182.377 274.742 182.135C274.93 181.893 275.023 181.471 275.023 180.869C275.023 180.33 274.959 179.754 274.83 179.141L272 179.141L272 178.18ZM272 170.738L278 170.738L278 171.699L273.488 171.699L273.488 171.746L278 175.109L278 176.07L272 176.07L272 175.109L276.512 175.109L276.512 175.062L272 171.699L272 170.738ZM275.311 167.668L278 167.668L278 168.629L272 168.629L272 167.668L274.449 167.668L274.449 164.305L272 164.305L272 163.35L278 163.35L278 164.305L275.311 164.305L275.311 167.668ZM278.146 158.639C278.146 159.529 277.852 160.266 277.262 160.848C276.672 161.426 275.918 161.715 275 161.715C274.082 161.715 273.328 161.426 272.738 160.848C272.148 160.266 271.854 159.529 271.854 158.639C271.854 157.904 272.062 157.271 272.48 156.74C272.895 156.209 273.455 155.859 274.162 155.691L274.162 156.676C273.701 156.832 273.346 157.08 273.096 157.42C272.846 157.756 272.721 158.162 272.721 158.639C272.721 159.271 272.932 159.783 273.354 160.174C273.775 160.561 274.324 160.754 275 160.754C275.676 160.754 276.225 160.561 276.646 160.174C277.068 159.783 277.279 159.271 277.279 158.639C277.279 158.162 277.154 157.756 276.904 157.42C276.654 157.08 276.299 156.832 275.838 156.676L275.838 155.691C276.545 155.859 277.107 156.209 277.525 156.74C277.939 157.271 278.146 157.904 278.146 158.639ZM278 154.133L272 154.133L272 153.172L274.449 153.172L274.449 152.234L272 149.861L272 148.637L274.854 151.42L278 148.613L278 149.838L275.311 152.211L275.311 153.172L278 153.172L278 154.133ZM277.748 143.422C278.014 143.895 278.146 144.42 278.146 144.998C278.146 145.576 278.014 146.104 277.748 146.58C277.482 147.057 277.109 147.434 276.629 147.711C276.145 147.984 275.602 148.121 275 148.121C274.398 148.121 273.857 147.984 273.377 147.711C272.893 147.434 272.518 147.057 272.252 146.58C271.986 146.104 271.854 145.576 271.854 144.998C271.854 144.42 271.986 143.895 272.252 143.422C272.518 142.945 272.893 142.57 273.377 142.297C273.857 142.02 274.398 141.881 275 141.881C275.602 141.881 276.145 142.02 276.629 142.297C277.109 142.57 277.482 142.945 277.748 143.422ZM276.641 146.551C277.066 146.141 277.279 145.623 277.279 144.998C277.279 144.373 277.066 143.857 276.641 143.451C276.215 143.045 275.668 142.842 275 142.842C274.332 142.842 273.785 143.045 273.359 143.451C272.934 143.857 272.721 144.373 272.721 144.998C272.721 145.623 272.934 146.141 273.359 146.551C273.785 146.957 274.332 147.16 275 147.16C275.668 147.16 276.215 146.957 276.641 146.551ZM278.146 137.568C278.146 138.451 277.852 139.189 277.262 139.783C276.668 140.373 275.914 140.668 275 140.668C274.398 140.668 273.857 140.531 273.377 140.258C272.893 139.98 272.518 139.607 272.252 139.139C271.986 138.666 271.854 138.143 271.854 137.568C271.854 136.697 272.139 135.98 272.709 135.418C273.275 134.852 274.016 134.568 274.93 134.568L275.357 134.592L275.357 139.684C275.939 139.609 276.41 139.379 276.77 138.992C277.125 138.602 277.303 138.127 277.303 137.568C277.303 137.166 277.209 136.805 277.021 136.484C276.834 136.16 276.576 135.914 276.248 135.746L276.248 134.715C276.834 134.941 277.297 135.312 277.637 135.828C277.977 136.34 278.146 136.92 278.146 137.568ZM274.52 139.672L274.52 135.553C273.965 135.643 273.523 135.867 273.195 136.227C272.863 136.586 272.697 137.033 272.697 137.568C272.697 138.107 272.863 138.568 273.195 138.951C273.527 139.334 273.969 139.574 274.52 139.672ZM272 120.131L278 120.131L278 129.348L272 129.348L272 128.387L277.139 128.387L277.139 125.217L272 125.217L272 124.256L277.139 124.256L277.139 121.092L272 121.092L272 120.131ZM277.748 113.797C278.014 114.27 278.146 114.795 278.146 115.373C278.146 115.951 278.014 116.479 277.748 116.955C277.482 117.432 277.109 117.809 276.629 118.086C276.145 118.359 275.602 118.496 275 118.496C274.398 118.496 273.857 118.359 273.377 118.086C272.893 117.809 272.518 117.432 272.252 116.955C271.986 116.479 271.854 115.951 271.854 115.373C271.854 114.795 271.986 114.27 272.252 113.797C272.518 113.32 272.893 112.945 273.377 112.672C273.857 112.395 274.398 112.256 275 112.256C275.602 112.256 276.145 112.395 276.629 112.672C277.109 112.945 277.482 113.32 277.748 113.797ZM276.641 116.926C277.066 116.516 277.279 115.998 277.279 115.373C277.279 114.748 277.066 114.232 276.641 113.826C276.215 113.42 275.668 113.217 275 113.217C274.332 113.217 273.785 113.42 273.359 113.826C272.934 114.232 272.721 114.748 272.721 115.373C272.721 115.998 272.934 116.516 273.359 116.926C273.785 117.332 274.332 117.535 275 117.535C275.668 117.535 276.215 117.332 276.641 116.926ZM278.146 107.967C278.146 108.857 277.852 109.594 277.262 110.176C276.672 110.754 275.918 111.043 275 111.043C274.082 111.043 273.328 110.754 272.738 110.176C272.148 109.594 271.854 108.857 271.854 107.967C271.854 107.232 272.062 106.6 272.48 106.068C272.895 105.537 273.455 105.187 274.162 105.02L274.162 106.004C273.701 106.16 273.346 106.408 273.096 106.748C272.846 107.084 272.721 107.49 272.721 107.967C272.721 108.6 272.932 109.111 273.354 109.502C273.775 109.889 274.324 110.082 275 110.082C275.676 110.082 276.225 109.889 276.646 109.502C277.068 109.111 277.279 108.6 277.279 107.967C277.279 107.49 277.154 107.084 276.904 106.748C276.654 106.408 276.299 106.16 275.838 106.004L275.838 105.02C276.545 105.187 277.107 105.537 277.525 106.068C277.939 106.6 278.146 107.232 278.146 107.967ZM278.146 100.807C278.146 101.697 277.852 102.434 277.262 103.016C276.672 103.594 275.918 103.883 275 103.883C274.082 103.883 273.328 103.594 272.738 103.016C272.148 102.434 271.854 101.697 271.854 100.807C271.854 100.072 272.062 99.4395 272.48 98.9082C272.895 98.377 273.455 98.0273 274.162 97.8594L274.162 98.8437C273.701 99 273.346 99.248 273.096 99.5879C272.846 99.9238 272.721 100.33 272.721 100.807C272.721 101.439 272.932 101.951 273.354 102.342C273.775 102.729 274.324 102.922 275 102.922C275.676 102.922 276.225 102.729 276.646 102.342C277.068 101.951 277.279 101.439 277.279 100.807C277.279 100.33 277.154 99.9238 276.904 99.5879C276.654 99.248 276.299 99 275.838 98.8437L275.838 97.8594C276.545 98.0273 277.107 98.377 277.525 98.9082C277.939 99.4395 278.146 100.072 278.146 100.807ZM278.146 93.623C278.146 94.5059 277.852 95.2441 277.262 95.8379C276.668 96.4277 275.914 96.7227 275 96.7227C274.398 96.7227 273.857 96.5859 273.377 96.3125C272.893 96.0352 272.518 95.6621 272.252 95.1934C271.986 94.7207 271.854 94.1973 271.854 93.623C271.854 92.752 272.139 92.0352 272.709 91.4727C273.275 90.9062 274.016 90.623 274.93 90.623L275.357 90.6465L275.357 95.7383C275.939 95.6641 276.41 95.4336 276.77 95.0469C277.125 94.6562 277.303 94.1816 277.303 93.623C277.303 93.2207 277.209 92.8594 277.021 92.5391C276.834 92.2148 276.576 91.9687 276.248 91.8008L276.248 90.7695C276.834 90.9961 277.297 91.3672 277.637 91.8828C277.977 92.3945 278.146 92.9746 278.146 93.623ZM274.52 95.7266L274.52 91.6074C273.965 91.6973 273.523 91.9219 273.195 92.2812C272.863 92.6406 272.697 93.0879 272.697 93.623C272.697 94.1621 272.863 94.623 273.195 95.0059C273.527 95.3887 273.969 95.6289 274.52 95.7266Z" fill="#2D2D39"/>
<path fill-rule="evenodd" clip-rule="evenodd" d="M135 54C135 53.4477 134.552 53 134 53H130C129.448 53 129 53.4477 129 54V84C129 86.2091 127.209 88 125 88L13 88C12.4477 88 12 88.4477 12 89V99C12 99.5523 12.4477 100 13 100H122C124.209 100 126 101.791 126 104V189C126 191.209 124.209 193 122 193H13C12.4477 193 12 193.448 12 194V204C12 204.552 12.4477 205 13 205H122C124.209 205 126 206.791 126 209V294H138V209C138 206.791 139.791 205 142 205H240C240.552 205 241 204.552 241 204V194C241 193.448 240.552 193 240 193H142C139.791 193 138 191.209 138 189V104C138 101.791 139.791 100 142 100H240C240.552 100 241 99.5523 241 99V89C241 88.4477 240.552 88 240 88H139C136.791 88 135 86.2091 135 84V54Z" fill="#F9F4F2"/>
<rect x="11" y="53" width="111" height="20" rx="2" fill="#F2CFBE"/>
<rect x="12" y="42" width="10" height="10" fill="#DDEBDA"/>
<rect x="12" y="74" width="10" height="10" fill="#F2F2F2"/>
<rect x="56" y="42" width="10" height="10" fill="#DDEBDA"/>
<rect x="56" y="74" width="10" height="10" fill="#F2F2F2"/>
<rect x="34" y="42" width="10" height="10" fill="#DDEBDA"/>
<rect x="34" y="74" width="10" height="10" fill="#F2F2F2"/>
<rect x="78" y="42" width="10" height="10" fill="#DDEBDA"/>
<rect x="78" y="74" width="10" height="10" fill="#F2F2F2"/>
<rect x="100" y="42" width="10" height="10" fill="#DDEBDA"/>
<rect x="100" y="74" width="10" height="10" fill="#F2F2F2"/>
<rect x="23" y="42" width="10" height="10" fill="#DDEBDA"/>
<rect x="23" y="74" width="10" height="10" fill="#F2F2F2"/>
<rect x="67" y="42" width="10" height="10" fill="#DDEBDA"/>
<rect x="67" y="74" width="10" height="10" fill="#F2F2F2"/>
<rect x="45" y="42" width="10" height="10" fill="#DDEBDA"/>
<rect x="45" y="74" width="10" height="10" fill="#F2F2F2"/>
<rect x="89" y="42" width="10" height="10" fill="#DDEBDA"/>
<rect x="89" y="74" width="10" height="10" fill="#F2F2F2"/>
<rect x="111" y="42" width="10" height="10" fill="#DDEBDA"/>
<rect x="111" y="74" width="10" height="10" fill="#F2F2F2"/>
<rect x="142" y="53" width="100" height="20" rx="2" fill="#F2CFBE"/>
<rect x="143" y="42" width="10" height="10" fill="#DDEBDA"/>
<rect x="143" y="74" width="10" height="10" fill="#F2F2F2"/>
<rect x="187" y="42" width="10" height="10" fill="#DDEBDA"/>
<rect x="187" y="74" width="10" height="10" fill="#F2F2F2"/>
<rect x="165" y="42" width="10" height="10" fill="#DDEBDA"/>
<rect x="165" y="74" width="10" height="10" fill="#F2F2F2"/>
<rect x="209" y="42" width="10" height="10" fill="#DDEBDA"/>
<rect x="209" y="74" width="10" height="10" fill="#F2F2F2"/>
<rect x="231" y="42" width="10" height="10" fill="#DDEBDA"/>
<rect x="231" y="74" width="10" height="10" fill="#F2F2F2"/>
<rect x="154" y="42" width="10" height="10" fill="#DDEBDA"/>
<rect x="154" y="74" width="10" height="10" fill="#F2F2F2"/>
<rect x="198" y="42" width="10" height="10" fill="#DDEBDA"/>
<rect x="198" y="74" width="10" height="10" fill="#F2F2F2"/>
<rect x="176" y="42" width="10" height="10" fill="#DDEBDA"/>
<rect x="176" y="74" width="10" height="10" fill="#F2F2F2"/>
<rect x="220" y="42" width="10" height="10" fill="#DDEBDA"/>
<rect x="220" y="74" width="10" height="10" fill="#F2F2F2"/>
<rect x="142" y="158" width="100" height="20" rx="2" fill="#F2CFBE"/>
<rect x="143" y="147" width="10" height="10" fill="#DDEBDA"/>
<rect x="143" y="179" width="10" height="10" fill="#F2F2F2"/>
<rect x="187" y="147" width="10" height="10" fill="#DDEBDA"/>
<rect x="187" y="179" width="10" height="10" fill="#F2F2F2"/>
<rect x="165" y="147" width="10" height="10" fill="#DDEBDA"/>
<rect x="165" y="179" width="10" height="10" fill="#F2F2F2"/>
<rect x="209" y="147" width="10" height="10" fill="#DDEBDA"/>
<rect x="209" y="179" width="10" height="10" fill="#F2F2F2"/>
<rect x="231" y="147" width="10" height="10" fill="#DDEBDA"/>
<rect x="231" y="179" width="10" height="10" fill="#F2F2F2"/>
<rect x="154" y="147" width="10" height="10" fill="#DDEBDA"/>
<rect x="154" y="179" width="10" height="10" fill="#F2F2F2"/>
<rect x="198" y="147" width="10" height="10" fill="#DDEBDA"/>
<rect x="198" y="179" width="10" height="10" fill="#F2F2F2"/>
<rect x="176" y="147" width="10" height="10" fill="#DDEBDA"/>
<rect x="176" y="179" width="10" height="10" fill="#F2F2F2"/>
<rect x="220" y="147" width="10" height="10" fill="#DDEBDA"/>
<rect x="220" y="179" width="10" height="10" fill="#F2F2F2"/>
<rect x="142" y="263" width="100" height="20" rx="2" fill="#F2CFBE"/>
<rect x="143" y="252" width="10" height="10" fill="#DDEBDA"/>
<rect x="143" y="284" width="10" height="10" fill="#F2F2F2"/>
<rect x="187" y="252" width="10" height="10" fill="#DDEBDA"/>
<rect x="187" y="284" width="10" height="10" fill="#F2F2F2"/>
<rect x="165" y="252" width="10" height="10" fill="#DDEBDA"/>
<rect x="165" y="284" width="10" height="10" fill="#F2F2F2"/>
<rect x="209" y="252" width="10" height="10" fill="#DDEBDA"/>
<rect x="209" y="284" width="10" height="10" fill="#F2F2F2"/>
<rect x="231" y="252" width="10" height="10" fill="#DDEBDA"/>
<rect x="231" y="284" width="10" height="10" fill="#F2F2F2"/>
<rect x="154" y="252" width="10" height="10" fill="#DDEBDA"/>
<rect x="154" y="284" width="10" height="10" fill="#F2F2F2"/>
<rect x="198" y="252" width="10" height="10" fill="#DDEBDA"/>
<rect x="198" y="284" width="10" height="10" fill="#F2F2F2"/>
<rect x="176" y="252" width="10" height="10" fill="#DDEBDA"/>
<rect x="176" y="284" width="10" height="10" fill="#F2F2F2"/>
<rect x="220" y="252" width="10" height="10" fill="#DDEBDA"/>
<rect x="220" y="284" width="10" height="10" fill="#F2F2F2"/>
<rect x="242" y="135" width="100" height="20" rx="2" transform="rotate(-180 242 135)" fill="#F2CFBE"/>
<rect x="241" y="146" width="10" height="10" transform="rotate(-180 241 146)" fill="#DDEBDA"/>
<rect x="241" y="114" width="10" height="10" transform="rotate(-180 241 114)" fill="#F2F2F2"/>
<rect x="197" y="146" width="10" height="10" transform="rotate(-180 197 146)" fill="#DDEBDA"/>
<rect x="197" y="114" width="10" height="10" transform="rotate(-180 197 114)" fill="#F2F2F2"/>
<rect x="219" y="146" width="10" height="10" transform="rotate(-180 219 146)" fill="#DDEBDA"/>
<rect x="219" y="114" width="10" height="10" transform="rotate(-180 219 114)" fill="#F2F2F2"/>
<rect x="175" y="146" width="10" height="10" transform="rotate(-180 175 146)" fill="#DDEBDA"/>
<rect x="175" y="114" width="10" height="10" transform="rotate(-180 175 114)" fill="#F2F2F2"/>
<rect x="153" y="146" width="10" height="10" transform="rotate(-180 153 146)" fill="#DDEBDA"/>
<rect x="153" y="114" width="10" height="10" transform="rotate(-180 153 114)" fill="#F2F2F2"/>
<rect x="230" y="146" width="10" height="10" transform="rotate(-180 230 146)" fill="#DDEBDA"/>
<rect x="230" y="114" width="10" height="10" transform="rotate(-180 230 114)" fill="#F2F2F2"/>
<rect x="186" y="146" width="10" height="10" transform="rotate(-180 186 146)" fill="#DDEBDA"/>
<rect x="186" y="114" width="10" height="10" transform="rotate(-180 186 114)" fill="#F2F2F2"/>
<rect x="208" y="146" width="10" height="10" transform="rotate(-180 208 146)" fill="#DDEBDA"/>
<rect x="208" y="114" width="10" height="10" transform="rotate(-180 208 114)" fill="#F2F2F2"/>
<rect x="164" y="146" width="10" height="10" transform="rotate(-180 164 146)" fill="#DDEBDA"/>
<rect x="164" y="114" width="10" height="10" transform="rotate(-180 164 114)" fill="#F2F2F2"/>
<rect x="242" y="240" width="100" height="20" rx="2" transform="rotate(-180 242 240)" fill="#F2CFBE"/>
<rect x="241" y="251" width="10" height="10" transform="rotate(-180 241 251)" fill="#DDEBDA"/>
<rect x="241" y="219" width="10" height="10" transform="rotate(-180 241 219)" fill="#F2F2F2"/>
<rect x="197" y="251" width="10" height="10" transform="rotate(-180 197 251)" fill="#DDEBDA"/>
<rect x="197" y="219" width="10" height="10" transform="rotate(-180 197 219)" fill="#F2F2F2"/>
<rect x="219" y="251" width="10" height="10" transform="rotate(-180 219 251)" fill="#DDEBDA"/>
<rect x="219" y="219" width="10" height="10" transform="rotate(-180 219 219)" fill="#F2F2F2"/>
<rect x="175" y="251" width="10" height="10" transform="rotate(-180 175 251)" fill="#DDEBDA"/>
<rect x="175" y="219" width="10" height="10" transform="rotate(-180 175 219)" fill="#F2F2F2"/>
<rect x="153" y="251" width="10" height="10" transform="rotate(-180 153 251)" fill="#DDEBDA"/>
<rect x="153" y="219" width="10" height="10" transform="rotate(-180 153 219)" fill="#F2F2F2"/>
<rect x="230" y="251" width="10" height="10" transform="rotate(-180 230 251)" fill="#DDEBDA"/>
<rect x="230" y="219" width="10" height="10" transform="rotate(-180 230 219)" fill="#F2F2F2"/>
<rect x="186" y="251" width="10" height="10" transform="rotate(-180 186 251)" fill="#DDEBDA"/>
<rect x="186" y="219" width="10" height="10" transform="rotate(-180 186 219)" fill="#F2F2F2"/>
<rect x="208" y="251" width="10" height="10" transform="rotate(-180 208 251)" fill="#DDEBDA"/>
<rect x="208" y="219" width="10" height="10" transform="rotate(-180 208 219)" fill="#F2F2F2"/>
<rect x="164" y="251" width="10" height="10" transform="rotate(-180 164 251)" fill="#DDEBDA"/>
<rect x="164" y="219" width="10" height="10" transform="rotate(-180 164 219)" fill="#F2F2F2"/>
<rect x="11" y="158" width="111" height="20" rx="2" fill="#F2CFBE"/>
<rect x="12" y="147" width="10" height="10" fill="#DDEBDA"/>
<rect x="12" y="179" width="10" height="10" fill="#F2F2F2"/>
<rect x="56" y="147" width="10" height="10" fill="#DDEBDA"/>
<rect x="56" y="179" width="10" height="10" fill="#F2F2F2"/>
<rect x="34" y="147" width="10" height="10" fill="#DDEBDA"/>
<rect x="34" y="179" width="10" height="10" fill="#F2F2F2"/>
<rect x="78" y="147" width="10" height="10" fill="#DDEBDA"/>
<rect x="78" y="179" width="10" height="10" fill="#F2F2F2"/>
<rect x="100" y="147" width="10" height="10" fill="#DDEBDA"/>
<rect x="100" y="179" width="10" height="10" fill="#F2F2F2"/>
<rect x="23" y="147" width="10" height="10" fill="#DDEBDA"/>
<rect x="23" y="179" width="10" height="10" fill="#F2F2F2"/>
<rect x="67" y="147" width="10" height="10" fill="#DDEBDA"/>
<rect x="67" y="179" width="10" height="10" fill="#F2F2F2"/>
<rect x="45" y="147" width="10" height="10" fill="#DDEBDA"/>
<rect x="45" y="179" width="10" height="10" fill="#F2F2F2"/>
<rect x="89" y="147" width="10" height="10" fill="#DDEBDA"/>
<rect x="89" y="179" width="10" height="10" fill="#F2F2F2"/>
<rect x="111" y="147" width="10" height="10" fill="#DDEBDA"/>
<rect x="111" y="179" width="10" height="10" fill="#F2F2F2"/>
<rect x="11" y="263" width="111" height="20" rx="2" fill="#F2CFBE"/>
<rect x="12" y="252" width="10" height="10" fill="#DDEBDA"/>
<rect x="12" y="284" width="10" height="10" fill="#F2F2F2"/>
<rect x="56" y="252" width="10" height="10" fill="#DDEBDA"/>
<rect x="56" y="284" width="10" height="10" fill="#F2F2F2"/>
<rect x="34" y="252" width="10" height="10" fill="#DDEBDA"/>
<rect x="34" y="284" width="10" height="10" fill="#F2F2F2"/>
<rect x="78" y="252" width="10" height="10" fill="#DDEBDA"/>
<rect x="78" y="284" width="10" height="10" fill="#F2F2F2"/>
<rect x="100" y="252" width="10" height="10" fill="#DDEBDA"/>
<rect x="100" y="284" width="10" height="10" fill="#F2F2F2"/>
<rect x="23" y="252" width="10" height="10" fill="#DDEBDA"/>
<rect x="23" y="284" width="10" height="10" fill="#F2F2F2"/>
<rect x="67" y="252" width="10" height="10" fill="#DDEBDA"/>
<rect x="67" y="284" width="10" height="10" fill="#F2F2F2"/>
<rect x="45" y="252" width="10" height="10" fill="#DDEBDA"/>
<rect x="45" y="284" width="10" height="10" fill="#F2F2F2"/>
<rect x="89" y="252" width="10" height="10" fill="#DDEBDA"/>
<rect x="89" y="284" width="10" height="10" fill="#F2F2F2"/>
<rect x="111" y="252" width="10" height="10" fill="#DDEBDA"/>
<rect x="111" y="284" width="10" height="10" fill="#F2F2F2"/>
<rect x="122" y="135" width="111" height="20" rx="2" transform="rotate(-180 122 135)" fill="#F2CFBE"/>
<rect x="121" y="146" width="10" height="10" transform="rotate(-180 121 146)" fill="#DDEBDA"/>
<rect x="121" y="114" width="10" height="10" transform="rotate(-180 121 114)" fill="#F2F2F2"/>
<rect x="77" y="146" width="10" height="10" transform="rotate(-180 77 146)" fill="#DDEBDA"/>
<rect x="77" y="114" width="10" height="10" transform="rotate(-180 77 114)" fill="#F2F2F2"/>
<rect x="99" y="146" width="10" height="10" transform="rotate(-180 99 146)" fill="#DDEBDA"/>
<rect x="99" y="114" width="10" height="10" transform="rotate(-180 99 114)" fill="#F2F2F2"/>
<rect x="55" y="146" width="10" height="10" transform="rotate(-180 55 146)" fill="#DDEBDA"/>
<rect x="55" y="114" width="10" height="10" transform="rotate(-180 55 114)" fill="#F2F2F2"/>
<rect x="33" y="146" width="10" height="10" transform="rotate(-180 33 146)" fill="#DDEBDA"/>
<rect x="33" y="114" width="10" height="10" transform="rotate(-180 33 114)" fill="#F2F2F2"/>
<rect x="110" y="146" width="10" height="10" transform="rotate(-180 110 146)" fill="#DDEBDA"/>
<rect x="110" y="114" width="10" height="10" transform="rotate(-180 110 114)" fill="#F2F2F2"/>
<rect x="66" y="146" width="10" height="10" transform="rotate(-180 66 146)" fill="#DDEBDA"/>
<rect x="66" y="114" width="10" height="10" transform="rotate(-180 66 114)" fill="#F2F2F2"/>
<rect x="88" y="146" width="10" height="10" transform="rotate(-180 88 146)" fill="#DDEBDA"/>
<rect x="88" y="114" width="10" height="10" transform="rotate(-180 88 114)" fill="#F2F2F2"/>
<rect x="44" y="146" width="10" height="10" transform="rotate(-180 44 146)" fill="#DDEBDA"/>
<rect x="44" y="114" width="10" height="10" transform="rotate(-180 44 114)" fill="#F2F2F2"/>
<rect x="22" y="146" width="10" height="10" transform="rotate(-180 22 146)" fill="#DDEBDA"/>
<rect x="22" y="114" width="10" height="10" transform="rotate(-180 22 114)" fill="#F2F2F2"/>
<rect x="122" y="240" width="111" height="20" rx="2" transform="rotate(-180 122 240)" fill="#F2CFBE"/>
<rect x="121" y="251" width="10" height="10" transform="rotate(-180 121 251)" fill="#DDEBDA"/>
<rect x="121" y="219" width="10" height="10" transform="rotate(-180 121 219)" fill="#F2F2F2"/>
<rect x="77" y="251" width="10" height="10" transform="rotate(-180 77 251)" fill="#DDEBDA"/>
<rect x="77" y="219" width="10" height="10" transform="rotate(-180 77 219)" fill="#F2F2F2"/>
<rect x="99" y="251" width="10" height="10" transform="rotate(-180 99 251)" fill="#DDEBDA"/>
<rect x="99" y="219" width="10" height="10" transform="rotate(-180 99 219)" fill="#F2F2F2"/>
<rect x="55" y="251" width="10" height="10" transform="rotate(-180 55 251)" fill="#DDEBDA"/>
<rect x="55" y="219" width="10" height="10" transform="rotate(-180 55 219)" fill="#F2F2F2"/>
<rect x="33" y="251" width="10" height="10" transform="rotate(-180 33 251)" fill="#DDEBDA"/>
<rect x="33" y="219" width="10" height="10" transform="rotate(-180 33 219)" fill="#F2F2F2"/>
<rect x="110" y="251" width="10" height="10" transform="rotate(-180 110 251)" fill="#DDEBDA"/>
<rect x="110" y="219" width="10" height="10" transform="rotate(-180 110 219)" fill="#F2F2F2"/>
<rect x="66" y="251" width="10" height="10" transform="rotate(-180 66 251)" fill="#DDEBDA"/>
<rect x="66" y="219" width="10" height="10" transform="rotate(-180 66 219)" fill="#F2F2F2"/>
<rect x="88" y="251" width="10" height="10" transform="rotate(-180 88 251)" fill="#DDEBDA"/>
<rect x="88" y="219" width="10" height="10" transform="rotate(-180 88 219)" fill="#F2F2F2"/>
<rect x="44" y="251" width="10" height="10" transform="rotate(-180 44 251)" fill="#DDEBDA"/>
<rect x="44" y="219" width="10" height="10" transform="rotate(-180 44 219)" fill="#F2F2F2"/>
<rect x="22" y="251" width="10" height="10" transform="rotate(-180 22 251)" fill="#DDEBDA"/>
<rect x="22" y="219" width="10" height="10" transform="rotate(-180 22 219)" fill="#F2F2F2"/>
<path d="M4.03581 59.56L2.51181 59.896L2.22381 59.284L4.21581 58.6H4.93581V67H4.03581V59.56Z" fill="#2D2D39"/>
<path d="M250.67 67.1465C250.361 67.1465 250.068 67.1113 249.791 67.041C249.518 66.9746 249.252 66.8711 248.994 66.7305C248.736 66.5898 248.504 66.4023 248.297 66.168C248.094 65.9336 247.916 65.6602 247.764 65.3477C247.611 65.0352 247.492 64.6621 247.406 64.2285C247.324 63.7949 247.283 63.3184 247.283 62.7988C247.283 62.3145 247.316 61.8652 247.383 61.4512C247.453 61.0371 247.568 60.6426 247.729 60.2676C247.893 59.8926 248.102 59.5742 248.355 59.3125C248.609 59.0508 248.932 58.8438 249.322 58.6914C249.717 58.5352 250.166 58.457 250.67 58.457C251.514 58.457 252.189 58.6582 252.697 59.0605C253.205 59.459 253.514 60.0176 253.623 60.7363H252.562C252.457 60.2988 252.254 59.9609 251.953 59.7227C251.656 59.4844 251.229 59.3652 250.67 59.3652C249.865 59.3652 249.266 59.6406 248.871 60.1914C248.48 60.7383 248.279 61.5918 248.268 62.752H248.314C248.893 61.9355 249.717 61.5273 250.787 61.5273C251.693 61.5273 252.428 61.7891 252.99 62.3125C253.553 62.832 253.834 63.5059 253.834 64.334C253.834 65.1777 253.535 65.8574 252.938 66.373C252.34 66.8887 251.584 67.1465 250.67 67.1465ZM249.135 65.7227C249.541 66.0625 250.053 66.2324 250.67 66.2324C251.287 66.2324 251.797 66.0625 252.199 65.7227C252.602 65.3828 252.803 64.9199 252.803 64.334C252.803 63.748 252.602 63.2871 252.199 62.9512C251.801 62.6113 251.291 62.4414 250.67 62.4414C250.049 62.4414 249.537 62.6113 249.135 62.9512C248.732 63.2871 248.531 63.748 248.531 64.334C248.531 64.9199 248.732 65.3828 249.135 65.7227Z" fill="#2D2D39"/>
<path d="M1.02344 129V128.162L4.82031 124.582C4.98828 124.422 5.12305 124.287 5.22461 124.178C5.33008 124.064 5.44531 123.926 5.57031 123.762C5.69531 123.594 5.78906 123.426 5.85156 123.258C5.91406 123.086 5.94531 122.912 5.94531 122.736C5.94531 122.439 5.85156 122.184 5.66406 121.969C5.47656 121.754 5.24609 121.6 4.97266 121.506C4.70312 121.412 4.41211 121.365 4.09961 121.365C3.55273 121.365 3.08594 121.516 2.69922 121.816C2.3125 122.117 2.10742 122.551 2.08398 123.117H1.02344C1.04688 122.723 1.12305 122.371 1.25195 122.062C1.38086 121.75 1.54297 121.496 1.73828 121.301C1.93359 121.102 2.16406 120.938 2.42969 120.809C2.69531 120.68 2.96289 120.59 3.23242 120.539C3.50586 120.484 3.79492 120.457 4.09961 120.457C4.65039 120.457 5.14062 120.543 5.57031 120.715C6 120.883 6.3418 121.141 6.5957 121.488C6.84961 121.836 6.97656 122.252 6.97656 122.736C6.97656 123.002 6.93945 123.252 6.86523 123.486C6.79102 123.721 6.67383 123.951 6.51367 124.178C6.35352 124.404 6.19336 124.604 6.0332 124.775C5.87305 124.943 5.66016 125.152 5.39453 125.402L2.61133 128.016V128.062H6.97656V129H1.02344Z" fill="#2D2D39"/>
<path d="M248.713 129L252.17 121.605V121.559H247.512V120.598H253.371V121.418L249.844 129H248.713Z" fill="#2D2D39"/>
<path d="M3.97656 172.146C3.53125 172.146 3.12109 172.096 2.74609 171.994C2.37109 171.893 2.03711 171.742 1.74414 171.543C1.45117 171.34 1.2168 171.074 1.04102 170.746C0.865234 170.414 0.763672 170.031 0.736328 169.598H1.77344C1.80859 170.117 2.03906 170.52 2.46484 170.805C2.89062 171.09 3.39453 171.232 3.97656 171.232C4.23438 171.232 4.48047 171.203 4.71484 171.145C4.94922 171.086 5.16602 170.996 5.36523 170.875C5.56445 170.75 5.72266 170.58 5.83984 170.365C5.96094 170.15 6.02148 169.902 6.02148 169.621C6.02148 169.168 5.86523 168.799 5.55273 168.514C5.24414 168.229 4.76758 168.086 4.12305 168.086H2.875V167.154H4.07617C4.68164 167.154 5.12891 167.033 5.41797 166.791C5.70703 166.545 5.85156 166.217 5.85156 165.807C5.85156 165.584 5.81055 165.387 5.72852 165.215C5.65039 165.043 5.54688 164.904 5.41797 164.799C5.28906 164.693 5.13672 164.607 4.96094 164.541C4.78906 164.475 4.61914 164.43 4.45117 164.406C4.2832 164.379 4.10938 164.365 3.92969 164.365C3.3125 164.365 2.81836 164.508 2.44727 164.793C2.08008 165.074 1.87891 165.438 1.84375 165.883H0.8125C0.851562 165.344 1.00977 164.891 1.28711 164.523C1.56836 164.152 1.93164 163.883 2.37695 163.715C2.82227 163.543 3.33984 163.457 3.92969 163.457C4.35156 163.457 4.73828 163.502 5.08984 163.592C5.44531 163.682 5.75781 163.816 6.02734 163.996C6.29688 164.176 6.50586 164.412 6.6543 164.705C6.80664 164.998 6.88281 165.334 6.88281 165.713C6.88281 166.553 6.52344 167.152 5.80469 167.512V167.559C6.21484 167.75 6.52539 168.029 6.73633 168.396C6.94727 168.76 7.05273 169.186 7.05273 169.674C7.05273 170.1 6.97266 170.475 6.8125 170.799C6.65625 171.119 6.43555 171.377 6.15039 171.572C5.86523 171.764 5.54102 171.906 5.17773 172C4.81445 172.098 4.41406 172.146 3.97656 172.146Z" fill="#2D2D39"/>
<path d="M251.789 172C251.391 172.098 250.961 172.146 250.5 172.146C250.039 172.146 249.609 172.098 249.211 172C248.812 171.898 248.453 171.75 248.133 171.555C247.816 171.355 247.566 171.092 247.383 170.764C247.203 170.432 247.113 170.051 247.113 169.621C247.113 168.621 247.643 167.949 248.701 167.605V167.559C248.264 167.395 247.93 167.152 247.699 166.832C247.469 166.508 247.354 166.143 247.354 165.736C247.354 165.268 247.494 164.859 247.775 164.512C248.061 164.16 248.438 163.896 248.906 163.721C249.379 163.545 249.91 163.457 250.5 163.457C251.09 163.457 251.619 163.545 252.088 163.721C252.561 163.896 252.938 164.16 253.219 164.512C253.5 164.859 253.641 165.268 253.641 165.736C253.641 166.143 253.525 166.508 253.295 166.832C253.064 167.152 252.732 167.395 252.299 167.559V167.605C252.842 167.781 253.24 168.037 253.494 168.373C253.752 168.705 253.881 169.121 253.881 169.621C253.881 170.051 253.789 170.432 253.605 170.764C253.426 171.092 253.178 171.355 252.861 171.555C252.545 171.75 252.188 171.898 251.789 172ZM248.631 164.969C248.436 165.18 248.338 165.436 248.338 165.736C248.338 166.037 248.436 166.293 248.631 166.504C248.83 166.715 249.088 166.867 249.404 166.961C249.721 167.055 250.086 167.102 250.5 167.102C250.914 167.102 251.279 167.055 251.596 166.961C251.912 166.867 252.168 166.715 252.363 166.504C252.559 166.293 252.656 166.037 252.656 165.736C252.656 165.436 252.559 165.18 252.363 164.969C252.168 164.758 251.91 164.605 251.59 164.512C251.273 164.414 250.91 164.365 250.5 164.365C250.09 164.365 249.725 164.414 249.404 164.512C249.088 164.605 248.83 164.758 248.631 164.969ZM248.145 169.621C248.145 169.906 248.203 170.156 248.32 170.371C248.441 170.582 248.611 170.75 248.83 170.875C249.049 170.996 249.297 171.086 249.574 171.145C249.852 171.203 250.16 171.232 250.5 171.232C250.84 171.232 251.148 171.203 251.426 171.145C251.703 171.086 251.949 170.996 252.164 170.875C252.383 170.75 252.551 170.582 252.668 170.371C252.789 170.156 252.85 169.906 252.85 169.621C252.85 169.336 252.789 169.088 252.668 168.877C252.551 168.666 252.383 168.5 252.164 168.379C251.949 168.254 251.703 168.162 251.426 168.104C251.148 168.045 250.84 168.016 250.5 168.016C250.039 168.016 249.639 168.066 249.299 168.168C248.959 168.266 248.682 168.438 248.467 168.684C248.252 168.93 248.145 169.242 248.145 169.621Z" fill="#2D2D39"/>
<path d="M5.20117 234V231.861H0.736328V231.117L4.9375 225.598H6.23242V230.93H7.38672V231.861H6.23242V234H5.20117ZM2.08398 230.93H5.20117V226.846H5.1543L2.08398 230.883V230.93Z" fill="#2D2D39"/>
<path d="M250.33 225.457C250.701 225.457 251.049 225.506 251.373 225.604C251.697 225.697 252.004 225.854 252.293 226.072C252.586 226.287 252.836 226.559 253.043 226.887C253.25 227.215 253.414 227.627 253.535 228.123C253.656 228.619 253.717 229.178 253.717 229.799C253.717 230.283 253.682 230.732 253.611 231.146C253.545 231.561 253.43 231.955 253.266 232.33C253.105 232.705 252.898 233.025 252.645 233.291C252.391 233.553 252.066 233.762 251.672 233.918C251.281 234.07 250.834 234.146 250.33 234.146C249.49 234.146 248.816 233.945 248.309 233.543C247.801 233.141 247.492 232.58 247.383 231.861H248.438C248.543 232.299 248.744 232.637 249.041 232.875C249.342 233.113 249.771 233.232 250.33 233.232C251.135 233.232 251.732 232.959 252.123 232.412C252.518 231.861 252.721 231.006 252.732 229.846H252.686C252.107 230.662 251.283 231.07 250.213 231.07C249.307 231.07 248.572 230.811 248.01 230.291C247.447 229.768 247.166 229.092 247.166 228.264C247.166 227.42 247.465 226.742 248.062 226.23C248.66 225.715 249.416 225.457 250.33 225.457ZM251.859 226.875C251.457 226.535 250.947 226.365 250.33 226.365C249.713 226.365 249.203 226.535 248.801 226.875C248.398 227.215 248.197 227.678 248.197 228.264C248.197 228.85 248.398 229.312 248.801 229.652C249.203 229.992 249.713 230.162 250.33 230.162C250.947 230.162 251.457 229.992 251.859 229.652C252.266 229.312 252.469 228.85 252.469 228.264C252.469 227.678 252.266 227.215 251.859 226.875Z" fill="#2D2D39"/>
<path d="M4.07031 277.146C3.23828 277.146 2.5293 276.934 1.94336 276.508C1.35742 276.082 1.01758 275.51 0.923828 274.791H1.98438C2.09375 275.232 2.33398 275.588 2.70508 275.857C3.07617 276.123 3.53125 276.256 4.07031 276.256C4.71484 276.256 5.24414 276.072 5.6582 275.705C6.07227 275.338 6.2793 274.857 6.2793 274.264C6.2793 273.67 6.07812 273.189 5.67578 272.822C5.27344 272.455 4.76172 272.271 4.14062 272.271C3.69922 272.271 3.30078 272.375 2.94531 272.582C2.59375 272.785 2.32031 273.082 2.125 273.473H1.07031L1.66797 268.598H6.83008V269.535H2.58203L2.27148 272.102H2.31836C2.86523 271.625 3.5293 271.387 4.31055 271.387C4.84961 271.387 5.3457 271.504 5.79883 271.738C6.25195 271.969 6.61719 272.307 6.89453 272.752C7.17188 273.193 7.31055 273.697 7.31055 274.264C7.31055 274.834 7.16602 275.34 6.87695 275.781C6.5918 276.223 6.20312 276.561 5.71094 276.795C5.22266 277.029 4.67578 277.146 4.07031 277.146Z" fill="#2D2D39"/>
<path d="M245.822 277V269.934L243.977 270.83L243.613 269.969L246.42 268.598H246.854V277H245.822ZM254.898 275.969C254.262 276.754 253.438 277.146 252.426 277.146C251.414 277.146 250.588 276.754 249.947 275.969C249.311 275.18 248.992 274.123 248.992 272.799C248.992 271.475 249.311 270.42 249.947 269.635C250.588 268.85 251.414 268.457 252.426 268.457C253.438 268.457 254.262 268.85 254.898 269.635C255.539 270.42 255.859 271.475 255.859 272.799C255.859 274.123 255.539 275.18 254.898 275.969ZM250.686 275.301C251.131 275.906 251.711 276.209 252.426 276.209C253.141 276.209 253.719 275.906 254.16 275.301C254.605 274.691 254.828 273.857 254.828 272.799C254.828 271.74 254.605 270.908 254.16 270.303C253.719 269.697 253.141 269.395 252.426 269.395C251.711 269.395 251.131 269.697 250.686 270.303C250.244 270.908 250.023 271.74 250.023 272.799C250.023 273.857 250.244 274.691 250.686 275.301Z" fill="#2D2D39"/>
<path d="M209.67 98.7006L213.891 103L218.255 98.7134C218.894 98.0861 218.45 97 217.555 97L210.383 97C209.497 97 209.049 98.068 209.67 98.7006Z" fill="#2D2D39"/>
<path d="M214 101L214 86" stroke="#2D2D39" stroke-linecap="round"/>
<circle cx="253" cy="83" r="1" transform="rotate(90 253 83)" fill="#F2CFBE"/>
<circle cx="247" cy="88" r="1" transform="rotate(90 247 88)" fill="#F2CFBE"/>
<circle cx="253" cy="243" r="1" transform="rotate(90 253 243)" fill="#F2CFBE"/>
<circle cx="253" cy="253" r="1" transform="rotate(90 253 253)" fill="#F2CFBE"/>
<circle cx="247" cy="248" r="1" transform="rotate(90 247 248)" fill="#F2CFBE"/>
<circle cx="247" cy="48" r="1" transform="rotate(90 247 48)" fill="#F2CFBE"/>
<circle cx="253" cy="203" r="1" transform="rotate(90 253 203)" fill="#F2CFBE"/>
<circle cx="247" cy="208" r="1" transform="rotate(90 247 208)" fill="#F2CFBE"/>
<circle cx="253" cy="133" r="1" transform="rotate(90 253 133)" fill="#F2CFBE"/>
<circle cx="253" cy="283" r="1" transform="rotate(90 253 283)" fill="#F2CFBE"/>
<circle cx="247" cy="288" r="1" transform="rotate(90 247 288)" fill="#F2CFBE"/>
<circle cx="253" cy="183" r="1" transform="rotate(90 253 183)" fill="#F2CFBE"/>
<circle cx="247" cy="188" r="1" transform="rotate(90 247 188)" fill="#F2CFBE"/>
<circle cx="247" cy="108" r="1" transform="rotate(90 247 108)" fill="#F2CFBE"/>
<circle cx="253" cy="263" r="1" transform="rotate(90 253 263)" fill="#F2CFBE"/>
<circle cx="253" cy="143" r="1" transform="rotate(90 253 143)" fill="#F2CFBE"/>
<circle cx="247" cy="148" r="1" transform="rotate(90 247 148)" fill="#F2CFBE"/>
<circle cx="247" cy="178" r="1" transform="rotate(90 247 178)" fill="#F2CFBE"/>
<circle cx="253" cy="93" r="1" transform="rotate(90 253 93)" fill="#F2CFBE"/>
<circle cx="253" cy="103" r="1" transform="rotate(90 253 103)" fill="#F2CFBE"/>
<circle cx="247" cy="98" r="1" transform="rotate(90 247 98)" fill="#F2CFBE"/>
<circle cx="247" cy="258" r="1" transform="rotate(90 247 258)" fill="#F2CFBE"/>
<circle cx="253" cy="213" r="1" transform="rotate(90 253 213)" fill="#F2CFBE"/>
<circle cx="247" cy="218" r="1" transform="rotate(90 247 218)" fill="#F2CFBE"/>
<circle cx="247" cy="138" r="1" transform="rotate(90 247 138)" fill="#F2CFBE"/>
<circle cx="253" cy="293" r="1" transform="rotate(90 253 293)" fill="#F2CFBE"/>
<circle cx="253" cy="193" r="1" transform="rotate(90 253 193)" fill="#F2CFBE"/>
<circle cx="247" cy="198" r="1" transform="rotate(90 247 198)" fill="#F2CFBE"/>
<circle cx="253" cy="113" r="1" transform="rotate(90 253 113)" fill="#F2CFBE"/>
<circle cx="253" cy="73" r="1" transform="rotate(90 253 73)" fill="#F2CFBE"/>
<circle cx="253" cy="53" r="1" transform="rotate(90 253 53)" fill="#F2CFBE"/>
<circle cx="253" cy="43" r="1" transform="rotate(90 253 43)" fill="#F2CFBE"/>
<circle cx="253" cy="33" r="1" transform="rotate(90 253 33)" fill="#F2CFBE"/>
<circle cx="247" cy="78" r="1" transform="rotate(90 247 78)" fill="#F2CFBE"/>
<circle cx="247" cy="238" r="1" transform="rotate(90 247 238)" fill="#F2CFBE"/>
<circle cx="253" cy="153" r="1" transform="rotate(90 253 153)" fill="#F2CFBE"/>
<circle cx="247" cy="158" r="1" transform="rotate(90 247 158)" fill="#F2CFBE"/>
<circle cx="241" cy="23" r="1" transform="rotate(90 241 23)" fill="#F2CFBE"/>
<circle cx="241" cy="33" r="1" transform="rotate(90 241 33)" fill="#F2CFBE"/>
<circle cx="253" cy="23" r="1" transform="rotate(90 253 23)" fill="#F2CFBE"/>
<circle cx="217" cy="23" r="1" transform="rotate(90 217 23)" fill="#F2CFBE"/>
<circle cx="217" cy="33" r="1" transform="rotate(90 217 33)" fill="#F2CFBE"/>
<circle cx="205" cy="23" r="1" transform="rotate(90 205 23)" fill="#F2CFBE"/>
<circle cx="205" cy="33" r="1" transform="rotate(90 205 33)" fill="#F2CFBE"/>
<circle cx="193" cy="23" r="1" transform="rotate(90 193 23)" fill="#F2CFBE"/>
<circle cx="193" cy="33" r="1" transform="rotate(90 193 33)" fill="#F2CFBE"/>
<circle cx="229" cy="23" r="1" transform="rotate(90 229 23)" fill="#F2CFBE"/>
<circle cx="229" cy="33" r="1" transform="rotate(90 229 33)" fill="#F2CFBE"/>
<circle cx="235" cy="28" r="1" transform="rotate(90 235 28)" fill="#F2CFBE"/>
<circle cx="247" cy="38" r="1" transform="rotate(90 247 38)" fill="#F2CFBE"/>
<circle cx="247" cy="28" r="1" transform="rotate(90 247 28)" fill="#F2CFBE"/>
<circle cx="223" cy="28" r="1" transform="rotate(90 223 28)" fill="#F2CFBE"/>
<circle cx="181" cy="23" r="1" transform="rotate(90 181 23)" fill="#F2CFBE"/>
<circle cx="181" cy="33" r="1" transform="rotate(90 181 33)" fill="#F2CFBE"/>
<circle cx="157" cy="23" r="1" transform="rotate(90 157 23)" fill="#F2CFBE"/>
<circle cx="157" cy="33" r="1" transform="rotate(90 157 33)" fill="#F2CFBE"/>
<circle cx="169" cy="23" r="1" transform="rotate(90 169 23)" fill="#F2CFBE"/>
<circle cx="169" cy="33" r="1" transform="rotate(90 169 33)" fill="#F2CFBE"/>
<circle cx="151" cy="28" r="1" transform="rotate(90 151 28)" fill="#F2CFBE"/>
<circle cx="133" cy="23" r="1" transform="rotate(90 133 23)" fill="#F2CFBE"/>
<circle cx="133" cy="33" r="1" transform="rotate(90 133 33)" fill="#F2CFBE"/>
<circle cx="145" cy="23" r="1" transform="rotate(90 145 23)" fill="#F2CFBE"/>
<circle cx="145" cy="33" r="1" transform="rotate(90 145 33)" fill="#F2CFBE"/>
<circle cx="175" cy="28" r="1" transform="rotate(90 175 28)" fill="#F2CFBE"/>
<circle cx="199" cy="28" r="1" transform="rotate(90 199 28)" fill="#F2CFBE"/>
<circle cx="211" cy="28" r="1" transform="rotate(90 211 28)" fill="#F2CFBE"/>
<circle cx="187" cy="28" r="1" transform="rotate(90 187 28)" fill="#F2CFBE"/>
<circle cx="163" cy="28" r="1" transform="rotate(90 163 28)" fill="#F2CFBE"/>
<circle cx="85" cy="23" r="1" transform="rotate(90 85 23)" fill="#F2CFBE"/>
<circle cx="85" cy="33" r="1" transform="rotate(90 85 33)" fill="#F2CFBE"/>
<circle cx="73" cy="23" r="1" transform="rotate(90 73 23)" fill="#F2CFBE"/>
<circle cx="73" cy="33" r="1" transform="rotate(90 73 33)" fill="#F2CFBE"/>
<circle cx="61" cy="23" r="1" transform="rotate(90 61 23)" fill="#F2CFBE"/>
<circle cx="61" cy="33" r="1" transform="rotate(90 61 33)" fill="#F2CFBE"/>
<circle cx="37" cy="23" r="1" transform="rotate(90 37 23)" fill="#F2CFBE"/>
<circle cx="37" cy="33" r="1" transform="rotate(90 37 33)" fill="#F2CFBE"/>
<circle cx="25" cy="23" r="1" transform="rotate(90 25 23)" fill="#F2CFBE"/>
<circle cx="25" cy="33" r="1" transform="rotate(90 25 33)" fill="#F2CFBE"/>
<circle cx="49" cy="23" r="1" transform="rotate(90 49 23)" fill="#F2CFBE"/>
<circle cx="49" cy="33" r="1" transform="rotate(90 49 33)" fill="#F2CFBE"/>
<circle cx="55" cy="28" r="1" transform="rotate(90 55 28)" fill="#F2CFBE"/>
<circle cx="31" cy="28" r="1" transform="rotate(90 31 28)" fill="#F2CFBE"/>
<circle cx="79" cy="28" r="1" transform="rotate(90 79 28)" fill="#F2CFBE"/>
<circle cx="67" cy="28" r="1" transform="rotate(90 67 28)" fill="#F2CFBE"/>
<circle cx="43" cy="28" r="1" transform="rotate(90 43 28)" fill="#F2CFBE"/>
<circle cx="121" cy="23" r="1" transform="rotate(90 121 23)" fill="#F2CFBE"/>
<circle cx="121" cy="33" r="1" transform="rotate(90 121 33)" fill="#F2CFBE"/>
<circle cx="97" cy="23" r="1" transform="rotate(90 97 23)" fill="#F2CFBE"/>
<circle cx="97" cy="33" r="1" transform="rotate(90 97 33)" fill="#F2CFBE"/>
<circle cx="109" cy="23" r="1" transform="rotate(90 109 23)" fill="#F2CFBE"/>
<circle cx="109" cy="33" r="1" transform="rotate(90 109 33)" fill="#F2CFBE"/>
<circle cx="115" cy="28" r="1" transform="rotate(90 115 28)" fill="#F2CFBE"/>
<circle cx="139" cy="28" r="1" transform="rotate(90 139 28)" fill="#F2CFBE"/>
<circle cx="127" cy="28" r="1" transform="rotate(90 127 28)" fill="#F2CFBE"/>
<circle cx="103" cy="28" r="1" transform="rotate(90 103 28)" fill="#F2CFBE"/>
<circle cx="91" cy="28" r="1" transform="rotate(90 91 28)" fill="#F2CFBE"/>
<circle cx="1" cy="23" r="1" transform="rotate(90 1 23)" fill="#F2CFBE"/>
<circle cx="13" cy="23" r="1" transform="rotate(90 13 23)" fill="#F2CFBE"/>
<circle cx="13" cy="33" r="1" transform="rotate(90 13 33)" fill="#F2CFBE"/>
<circle cx="19" cy="28" r="1" transform="rotate(90 19 28)" fill="#F2CFBE"/>
<circle cx="7" cy="28" r="1" transform="rotate(90 7 28)" fill="#F2CFBE"/>
<circle cx="7" cy="178" r="1" transform="rotate(90 7 178)" fill="#F2CFBE"/>
<circle cx="1" cy="83" r="1" transform="rotate(90 1 83)" fill="#F2CFBE"/>
<circle cx="1" cy="43" r="1" transform="rotate(90 1 43)" fill="#F2CFBE"/>
<circle cx="1" cy="203" r="1" transform="rotate(90 1 203)" fill="#F2CFBE"/>
<circle cx="1" cy="213" r="1" transform="rotate(90 1 213)" fill="#F2CFBE"/>
<circle cx="1" cy="133" r="1" transform="rotate(90 1 133)" fill="#F2CFBE"/>
<circle cx="7" cy="288" r="1" transform="rotate(90 7 288)" fill="#F2CFBE"/>
<circle cx="7" cy="48" r="1" transform="rotate(90 7 48)" fill="#F2CFBE"/>
<circle cx="7" cy="188" r="1" transform="rotate(90 7 188)" fill="#F2CFBE"/>
<circle cx="7" cy="198" r="1" transform="rotate(90 7 198)" fill="#F2CFBE"/>
<circle cx="7" cy="208" r="1" transform="rotate(90 7 208)" fill="#F2CFBE"/>
<circle cx="7" cy="108" r="1" transform="rotate(90 7 108)" fill="#F2CFBE"/>
<circle cx="1" cy="263" r="1" transform="rotate(90 1 263)" fill="#F2CFBE"/>
<circle cx="1" cy="223" r="1" transform="rotate(90 1 223)" fill="#F2CFBE"/>
<circle cx="1" cy="33" r="1" transform="rotate(90 1 33)" fill="#F2CFBE"/>
<circle cx="1" cy="93" r="1" transform="rotate(90 1 93)" fill="#F2CFBE"/>
<circle cx="1" cy="103" r="1" transform="rotate(90 1 103)" fill="#F2CFBE"/>
<circle cx="1" cy="113" r="1" transform="rotate(90 1 113)" fill="#F2CFBE"/>
<circle cx="7" cy="98" r="1" transform="rotate(90 7 98)" fill="#F2CFBE"/>
<circle cx="1" cy="253" r="1" transform="rotate(90 1 253)" fill="#F2CFBE"/>
<circle cx="1" cy="53" r="1" transform="rotate(90 1 53)" fill="#F2CFBE"/>
<circle cx="7" cy="218" r="1" transform="rotate(90 7 218)" fill="#F2CFBE"/>
<circle cx="7" cy="248" r="1" transform="rotate(90 7 248)" fill="#F2CFBE"/>
<circle cx="7" cy="258" r="1" transform="rotate(90 7 258)" fill="#F2CFBE"/>
<circle cx="7" cy="138" r="1" transform="rotate(90 7 138)" fill="#F2CFBE"/>
<circle cx="7" cy="148" r="1" transform="rotate(90 7 148)" fill="#F2CFBE"/>
<circle cx="7" cy="38" r="1" transform="rotate(90 7 38)" fill="#F2CFBE"/>
<circle cx="1" cy="193" r="1" transform="rotate(90 1 193)" fill="#F2CFBE"/>
<circle cx="1" cy="143" r="1" transform="rotate(90 1 143)" fill="#F2CFBE"/>
<circle cx="1" cy="283" r="1" transform="rotate(90 1 283)" fill="#F2CFBE"/>
<circle cx="1" cy="293" r="1" transform="rotate(90 1 293)" fill="#F2CFBE"/>
<circle cx="1" cy="73" r="1" transform="rotate(90 1 73)" fill="#F2CFBE"/>
<circle cx="7" cy="78" r="1" transform="rotate(90 7 78)" fill="#F2CFBE"/>
<circle cx="7" cy="88" r="1" transform="rotate(90 7 88)" fill="#F2CFBE"/>
<circle cx="1" cy="243" r="1" transform="rotate(90 1 243)" fill="#F2CFBE"/>
<circle cx="1" cy="153" r="1" transform="rotate(90 1 153)" fill="#F2CFBE"/>
<circle cx="1" cy="183" r="1" transform="rotate(90 1 183)" fill="#F2CFBE"/>
<circle cx="7" cy="158" r="1" transform="rotate(90 7 158)" fill="#F2CFBE"/>
<rect x="219.5" y="146.5" width="11" height="42" rx="1.5" transform="rotate(-180 219.5 146.5)" fill="#2D2D39" stroke="#2D2D39"/>
<path d="M213.977 129.146C213.531 129.146 213.121 129.096 212.746 128.994C212.371 128.893 212.037 128.742 211.744 128.543C211.451 128.34 211.217 128.074 211.041 127.746C210.865 127.414 210.764 127.031 210.736 126.598H211.773C211.809 127.117 212.039 127.52 212.465 127.805C212.891 128.09 213.395 128.232 213.977 128.232C214.234 128.232 214.48 128.203 214.715 128.145C214.949 128.086 215.166 127.996 215.365 127.875C215.564 127.75 215.723 127.58 215.84 127.365C215.961 127.15 216.021 126.902 216.021 126.621C216.021 126.168 215.865 125.799 215.553 125.514C215.244 125.229 214.768 125.086 214.123 125.086H212.875V124.154H214.076C214.682 124.154 215.129 124.033 215.418 123.791C215.707 123.545 215.852 123.217 215.852 122.807C215.852 122.584 215.811 122.387 215.729 122.215C215.65 122.043 215.547 121.904 215.418 121.799C215.289 121.693 215.137 121.607 214.961 121.541C214.789 121.475 214.619 121.43 214.451 121.406C214.283 121.379 214.109 121.365 213.93 121.365C213.312 121.365 212.818 121.508 212.447 121.793C212.08 122.074 211.879 122.438 211.844 122.883H210.812C210.852 122.344 211.01 121.891 211.287 121.523C211.568 121.152 211.932 120.883 212.377 120.715C212.822 120.543 213.34 120.457 213.93 120.457C214.352 120.457 214.738 120.502 215.09 120.592C215.445 120.682 215.758 120.816 216.027 120.996C216.297 121.176 216.506 121.412 216.654 121.705C216.807 121.998 216.883 122.334 216.883 122.713C216.883 123.553 216.523 124.152 215.805 124.512V124.559C216.215 124.75 216.525 125.029 216.736 125.396C216.947 125.76 217.053 126.186 217.053 126.674C217.053 127.1 216.973 127.475 216.812 127.799C216.656 128.119 216.436 128.377 216.15 128.572C215.865 128.764 215.541 128.906 215.178 129C214.814 129.098 214.414 129.146 213.977 129.146Z" fill="white"/>
</svg>
