<svg width="48" height="48" viewBox="0 0 48 48" fill="none" xmlns="http://www.w3.org/2000/svg">
<g clip-path="url(#clip0_82_733)">
<path fill-rule="evenodd" clip-rule="evenodd" d="M23.9958 0L27.669 0.033392L29.8347 0.126091L31.6611 0.278993L33.2775 0.501365L34.7462 0.784784L36.1143 1.13115L37.3778 1.5494L38.5563 2.02952L39.6643 2.57477L40.6989 3.19375L41.6549 3.87536L42.5513 4.62968L43.3703 5.44874L44.1246 6.34505L44.8063 7.30108L45.4252 8.33566L45.9705 9.44375L46.4506 10.6222L46.8689 11.8857L47.2152 13.2538L47.4986 14.7225L47.721 16.3389L47.8739 18.1653L47.9666 20.331L48 23.9958L47.9666 27.669L47.8739 29.8347L47.721 31.6611L47.4986 33.2775L47.2152 34.7462L46.8689 36.1143L46.4506 37.3778L45.9705 38.5563L45.4252 39.6643L44.8063 40.6989L44.1246 41.6549L43.3703 42.5513L42.5513 43.3703L41.6549 44.1246L40.6989 44.8063L39.6643 45.4252L38.5563 45.9705L37.3778 46.4506L36.1143 46.8689L34.7462 47.2152L33.2775 47.4986L31.6611 47.721L29.8347 47.8739L27.669 47.9666L23.9958 48L20.331 47.9666L18.1653 47.8739L16.3389 47.721L14.7225 47.4986L13.2538 47.2152L11.8857 46.8689L10.6222 46.4506L9.44375 45.9705L8.33566 45.4252L7.30108 44.8063L6.34505 44.1246L5.44874 43.3703L4.62968 42.5513L3.87536 41.6549L3.19375 40.6989L2.57477 39.6643L2.02952 38.5563L1.5494 37.3778L1.13115 36.1143L0.784784 34.7462L0.501365 33.2775L0.278993 31.6611L0.126091 29.8347L0.0333924 27.669L0 24.0042L0.033392 20.331L0.126091 18.1653L0.278993 16.3389L0.501365 14.7225L0.784784 13.2538L1.13115 11.8857L1.5494 10.6222L2.02952 9.44375L2.57477 8.33566L3.19375 7.30108L3.87536 6.34505L4.62968 5.44874L5.44874 4.62968L6.34505 3.87536L7.30108 3.19375L8.33566 2.57477L9.44375 2.02952L10.6222 1.5494L11.8857 1.13115L13.2538 0.784784L14.7225 0.501365L16.3389 0.278993L18.1653 0.126091L20.331 0.0333924L23.9958 0ZM23.9959 1.84623L20.3789 1.87918L18.2818 1.96894L16.5419 2.11461L15.0234 2.32351L13.6556 2.58746L12.403 2.90458L11.2613 3.28252L10.2005 3.71469L9.2186 4.19785L8.3125 4.73997L7.4771 5.33557L6.69812 5.99115L5.99115 6.69812L5.33557 7.4771L4.73997 8.3125L4.19785 9.2186L3.71469 10.2005L3.28252 11.2613L2.90458 12.403L2.58746 13.6556L2.32351 15.0234L2.11461 16.5419L1.96894 18.2818L1.87918 20.3789L1.84623 24.0041L1.87918 27.6211L1.96894 29.7182L2.11461 31.4581L2.32351 32.9766L2.58746 34.3444L2.90458 35.597L3.28252 36.7387L3.71469 37.7995L4.19785 38.7814L4.73996 39.6875L5.33556 40.5229L5.99116 41.3019L6.69812 42.0089L7.47711 42.6644L8.31247 43.26L9.21859 43.8021L10.2005 44.2853L11.2613 44.7175L12.403 45.0954L13.6556 45.4125L15.0234 45.6765L16.5419 45.8854L18.2818 46.0311L20.3789 46.1208L23.9959 46.1538L27.6211 46.1208L29.7182 46.0311L31.4581 45.8854L32.9766 45.6765L34.3444 45.4125L35.597 45.0954L36.7387 44.7175L37.7995 44.2853L38.7814 43.8021L39.6875 43.26L40.5229 42.6644L41.3019 42.0088L42.0088 41.3019L42.6644 40.5229L43.26 39.6875L43.8021 38.7814L44.2853 37.7995L44.7175 36.7387L45.0954 35.597L45.4125 34.3444L45.6765 32.9766L45.8854 31.4581L46.0311 29.7182L46.1208 27.6211L46.1538 23.9959L46.1208 20.3789L46.0311 18.2818L45.8854 16.5419L45.6765 15.0234L45.4125 13.6556L45.0954 12.403L44.7175 11.2613L44.2853 10.2005L43.8021 9.21859L43.26 8.31247L42.6644 7.47711L42.0089 6.69812L41.3019 5.99116L40.5229 5.33556L39.6875 4.73996L38.7814 4.19785L37.7995 3.71469L36.7387 3.28252L35.597 2.90458L34.3444 2.58746L32.9766 2.32351L31.4581 2.11461L29.7182 1.96894L27.6211 1.87918L23.9959 1.84623Z" fill="#F2CFBE"/>
<path fill-rule="evenodd" clip-rule="evenodd" d="M24.1113 14.7695C24.1124 14.7968 24.223 17.5546 24.3337 18.5506L24.3491 18.6911C24.4576 19.693 24.6171 21.1644 25.8907 22.3319C27.1099 23.4494 28.9787 23.6389 30.0559 23.7481C30.1578 23.7584 30.2527 23.768 30.3393 23.7777C31.3402 23.8889 33.2308 23.8889 33.2308 23.8889H33.231V24.1116H33.2308C33.2308 24.1116 31.3402 24.1116 30.3393 24.2228C30.2527 24.2324 30.1578 24.2421 30.0559 24.2524C28.9787 24.3616 27.1099 24.551 25.8907 25.6686C24.6171 26.8361 24.4576 28.3075 24.3491 29.3094L24.3337 29.4499C24.2229 30.4471 24.1121 33.2107 24.1113 33.231H23.8886C23.8878 33.2107 23.777 30.4471 23.6662 29.4499L23.6509 29.3094C23.5423 28.3075 23.3828 26.8361 22.1092 25.6686C20.89 24.551 19.0212 24.3616 17.944 24.2524H17.944L17.9439 24.2524L17.9437 24.2524C17.8419 24.242 17.7471 24.2324 17.6606 24.2228C16.6686 24.1126 14.8026 24.1116 14.7695 24.1116V23.8889C14.8026 23.8889 16.6686 23.8879 17.6606 23.7777C17.7472 23.768 17.8421 23.7584 17.944 23.7481C19.0212 23.6389 20.89 23.4494 22.1092 22.3319C23.3828 21.1644 23.5423 19.693 23.6509 18.6911L23.6662 18.5506C23.7769 17.5546 23.8875 14.7968 23.8886 14.7695H24.1113Z" fill="#F2CFBE"/>
</g>
<defs>
<clipPath id="clip0_82_733">
<rect width="48" height="48" fill="white"/>
</clipPath>
</defs>
</svg>
