<svg width="236" height="104" viewBox="0 0 236 104" fill="none" xmlns="http://www.w3.org/2000/svg">
<rect width="24" height="50" transform="matrix(1 -8.74228e-08 -8.74228e-08 -1 2 76)" fill="#F2CFBE"/>
<rect width="24" height="50" transform="matrix(1 -8.74228e-08 -8.74228e-08 -1 106 76)" fill="#F2CFBE"/>
<rect width="24" height="50" transform="matrix(1 -8.74228e-08 -8.74228e-08 -1 54 76)" fill="#F2CFBE"/>
<rect width="24" height="50" transform="matrix(1 -8.74228e-08 -8.74228e-08 -1 158 76)" fill="#F2CFBE"/>
<rect width="24" height="50" transform="matrix(1 -8.74228e-08 -8.74228e-08 -1 28 76)" fill="#F2CFBE"/>
<rect width="24" height="50" transform="matrix(1 -8.74228e-08 -8.74228e-08 -1 132 76)" fill="#F2CFBE"/>
<rect width="24" height="50" transform="matrix(1 -8.74228e-08 -8.74228e-08 -1 80 76)" fill="#F2CFBE"/>
<rect width="24" height="50" transform="matrix(1 -8.74228e-08 -8.74228e-08 -1 184 76)" fill="#F2CFBE"/>
<rect width="24" height="50" transform="matrix(1 -8.74228e-08 -8.74228e-08 -1 210 76)" fill="#F2CFBE"/>
<rect x="-1" y="1" width="26" height="32" transform="matrix(1 -8.74228e-08 -8.74228e-08 -1 2 104)" fill="#BBD7B6" stroke="white" stroke-width="2"/>
<rect x="-1" y="1" width="26" height="32" transform="matrix(1 -8.74228e-08 -8.74228e-08 -1 106 104)" fill="#BBD7B6" stroke="white" stroke-width="2"/>
<rect x="-1" y="1" width="26" height="32" transform="matrix(1 -8.74228e-08 -8.74228e-08 -1 54 104)" fill="#BBD7B6" stroke="white" stroke-width="2"/>
<rect x="-1" y="1" width="26" height="32" transform="matrix(1 -8.74228e-08 -8.74228e-08 -1 158 104)" fill="#BBD7B6" stroke="white" stroke-width="2"/>
<rect x="-1" y="1" width="26" height="32" transform="matrix(1 -8.74228e-08 -8.74228e-08 -1 28 104)" fill="#BBD7B6" stroke="white" stroke-width="2"/>
<rect x="-1" y="1" width="26" height="32" transform="matrix(1 -8.74228e-08 -8.74228e-08 -1 132 104)" fill="#BBD7B6" stroke="white" stroke-width="2"/>
<rect x="-1" y="1" width="26" height="32" transform="matrix(1 -8.74228e-08 -8.74228e-08 -1 80 104)" fill="#BBD7B6" stroke="white" stroke-width="2"/>
<rect x="-1" y="1" width="26" height="32" transform="matrix(1 -8.74228e-08 -8.74228e-08 -1 184 104)" fill="#BBD7B6" stroke="white" stroke-width="2"/>
<rect x="-1" y="1" width="26" height="32" transform="matrix(1 -8.74228e-08 -8.74228e-08 -1 210 104)" fill="#BBD7B6" stroke="white" stroke-width="2"/>
<rect width="24" height="30" transform="matrix(1 -8.74228e-08 -8.74228e-08 -1 2 30)" fill="#F8F8F8"/>
<rect width="24" height="30" transform="matrix(1 -8.74228e-08 -8.74228e-08 -1 106 30)" fill="#F8F8F8"/>
<rect width="24" height="30" transform="matrix(1 -8.74228e-08 -8.74228e-08 -1 54 30)" fill="#F8F8F8"/>
<rect width="24" height="30" transform="matrix(1 -8.74228e-08 -8.74228e-08 -1 158 30)" fill="#F8F8F8"/>
<rect width="24" height="30" transform="matrix(1 -8.74228e-08 -8.74228e-08 -1 28 30)" fill="#F8F8F8"/>
<rect width="24" height="30" transform="matrix(1 -8.74228e-08 -8.74228e-08 -1 132 30)" fill="#F8F8F8"/>
<rect width="24" height="30" transform="matrix(1 -8.74228e-08 -8.74228e-08 -1 80 30)" fill="#F8F8F8"/>
<rect width="24" height="30" transform="matrix(1 -8.74228e-08 -8.74228e-08 -1 184 30)" fill="#F8F8F8"/>
<rect width="24" height="30" transform="matrix(1 -8.74228e-08 -8.74228e-08 -1 210 30)" fill="#F8F8F8"/>
</svg>
