<svg width="236" height="104" viewBox="0 0 236 104" fill="none" xmlns="http://www.w3.org/2000/svg">
<rect x="2" y="28" width="24" height="50" fill="#F2CFBE"/>
<rect x="106" y="28" width="24" height="50" fill="#F2CFBE"/>
<rect x="54" y="28" width="24" height="50" fill="#F2CFBE"/>
<rect x="158" y="28" width="24" height="50" fill="#F2CFBE"/>
<rect x="28" y="28" width="24" height="50" fill="#F2CFBE"/>
<rect x="132" y="28" width="24" height="50" fill="#F2CFBE"/>
<rect x="80" y="28" width="24" height="50" fill="#F2CFBE"/>
<rect x="184" y="28" width="24" height="50" fill="#F2CFBE"/>
<rect x="210" y="28" width="24" height="50" fill="#F2CFBE"/>
<rect x="1" y="1" width="26" height="32" fill="#BBD7B6" stroke="white" stroke-width="2"/>
<rect x="105" y="1" width="26" height="32" fill="#BBD7B6" stroke="white" stroke-width="2"/>
<rect x="53" y="1" width="26" height="32" fill="#BBD7B6" stroke="white" stroke-width="2"/>
<rect x="157" y="1" width="26" height="32" fill="#BBD7B6" stroke="white" stroke-width="2"/>
<rect x="27" y="1" width="26" height="32" fill="#BBD7B6" stroke="white" stroke-width="2"/>
<rect x="131" y="1" width="26" height="32" fill="#BBD7B6" stroke="white" stroke-width="2"/>
<rect x="79" y="1" width="26" height="32" fill="#BBD7B6" stroke="white" stroke-width="2"/>
<rect x="183" y="1" width="26" height="32" fill="#BBD7B6" stroke="white" stroke-width="2"/>
<rect x="209" y="1" width="26" height="32" fill="#BBD7B6" stroke="white" stroke-width="2"/>
<rect x="2" y="74" width="24" height="30" fill="#F8F8F8"/>
<rect x="106" y="74" width="24" height="30" fill="#F8F8F8"/>
<rect x="54" y="74" width="24" height="30" fill="#F8F8F8"/>
<rect x="158" y="74" width="24" height="30" fill="#F8F8F8"/>
<rect x="28" y="74" width="24" height="30" fill="#F8F8F8"/>
<rect x="132" y="74" width="24" height="30" fill="#F8F8F8"/>
<rect x="80" y="74" width="24" height="30" fill="#F8F8F8"/>
<rect x="184" y="74" width="24" height="30" fill="#F8F8F8"/>
<rect x="210" y="74" width="24" height="30" fill="#F8F8F8"/>
</svg>
