<svg width="270" height="368" fill="none" xmlns="http://www.w3.org/2000/svg"><path d="M264.22 322.109a6.52 6.52 0 0 1-.492 2.54 6.053 6.053 0 0 1-1.345 2.013 6.177 6.177 0 0 1-2.074 1.31 7.112 7.112 0 0 1-2.611.474c-1.242 0-2.358-.269-3.348-.808a5.896 5.896 0 0 1-2.329-2.268c-.557-.967-.835-2.054-.835-3.261 0-1.5.418-2.78 1.256-3.84.838-1.061 1.954-1.785 3.349-2.171v1.617c-.99.351-1.77.908-2.338 1.67-.574.756-.861 1.664-.861 2.724 0 1.389.48 2.535 1.441 3.437.955.902 2.177 1.353 3.665 1.353 1.489 0 2.713-.451 3.674-1.353.961-.902 1.441-2.048 1.441-3.437 0-1.06-.284-1.968-.852-2.724-.574-.762-1.359-1.319-2.356-1.67v-1.617c1.395.386 2.514 1.11 3.358 2.171.838 1.06 1.257 2.34 1.257 3.84Zm-.598-15.047c.399.709.598 1.498.598 2.365 0 .867-.199 1.658-.598 2.373a4.398 4.398 0 0 1-1.679 1.696c-.726.41-1.541.615-2.443.615-.902 0-1.714-.205-2.435-.615a4.385 4.385 0 0 1-1.687-1.696 4.786 4.786 0 0 1-.598-2.373c0-.867.199-1.656.598-2.365a4.33 4.33 0 0 1 1.687-1.687c.721-.416 1.533-.624 2.435-.624.902 0 1.717.208 2.443.624.721.41 1.281.973 1.679 1.687Zm-1.661 4.694c.639-.615.958-1.392.958-2.329 0-.938-.319-1.711-.958-2.321-.639-.609-1.459-.914-2.461-.914-1.002 0-1.822.305-2.461.914-.639.61-.958 1.383-.958 2.321 0 .937.319 1.714.958 2.329.639.609 1.459.914 2.461.914 1.002 0 1.822-.305 2.461-.914ZM255 294.09h9v1.441h-7.708v4.386l5.546.325c1.465.076 2.197.809 2.197 2.197v.906h-1.441v-.721c0-.357-.071-.603-.211-.738-.141-.141-.393-.22-.756-.238l-6.627-.395v-7.163Zm8.622-9.492c.399.709.598 1.497.598 2.364 0 .867-.199 1.658-.598 2.373a4.398 4.398 0 0 1-1.679 1.696c-.726.41-1.541.615-2.443.615-.902 0-1.714-.205-2.435-.615a4.385 4.385 0 0 1-1.687-1.696 4.786 4.786 0 0 1-.598-2.373c0-.867.199-1.655.598-2.364a4.325 4.325 0 0 1 1.687-1.688c.721-.416 1.533-.624 2.435-.624.902 0 1.717.208 2.443.624.721.41 1.281.973 1.679 1.688Zm-1.661 4.693c.639-.615.958-1.392.958-2.329 0-.938-.319-1.711-.958-2.32-.639-.61-1.459-.914-2.461-.914-1.002 0-1.822.304-2.461.914-.639.609-.958 1.382-.958 2.32 0 .937.319 1.714.958 2.329.639.609 1.459.914 2.461.914 1.002 0 1.822-.305 2.461-.914Zm-5.669-8.42H255v-8.64h1.292v3.604H264v1.433h-7.708v3.603ZM255 262.52h9v1.441h-3.454c.193.896.29 1.761.29 2.593 0 1.383-.243 2.376-.73 2.979-.492.604-1.353.905-2.584.905H255v-1.441h2.522c.774 0 1.304-.182 1.591-.545.282-.363.422-.996.422-1.898 0-.809-.097-1.673-.29-2.593H255v-1.441Zm0-11.163h9v1.442h-6.768v.07l6.768 5.045v1.441h-9v-1.441h6.768v-.07L255 252.799v-1.442Zm4.966-4.605H264v1.441h-9v-1.441h3.674v-5.045H255v-1.433h9v1.433h-4.034v5.045Zm4.254-13.544c0 1.336-.443 2.44-1.327 3.313-.885.868-2.016 1.301-3.393 1.301-1.377 0-2.508-.433-3.393-1.301-.884-.873-1.327-1.977-1.327-3.313 0-1.102.314-2.051.941-2.848.621-.797 1.462-1.321 2.522-1.573v1.477c-.691.234-1.224.606-1.599 1.116-.375.504-.563 1.113-.563 1.828 0 .949.316 1.717.949 2.303.633.58 1.456.87 2.47.87 1.014 0 1.837-.29 2.47-.87.633-.586.949-1.354.949-2.303 0-.715-.188-1.324-.563-1.828-.375-.51-.908-.882-1.599-1.116v-1.477c1.06.252 1.904.776 2.531 1.573.621.797.932 1.746.932 2.848Zm-.22-6.759h-9v-1.441h3.674v-1.406l-3.674-3.56v-1.837l4.28 4.175 4.72-4.21v1.837l-4.034 3.559v1.442H264v1.441Zm-.378-16.066c.399.709.598 1.497.598 2.364 0 .867-.199 1.658-.598 2.373a4.398 4.398 0 0 1-1.679 1.696c-.726.411-1.541.616-2.443.616-.902 0-1.714-.205-2.435-.616a4.385 4.385 0 0 1-1.687-1.696 4.786 4.786 0 0 1-.598-2.373c0-.867.199-1.655.598-2.364a4.325 4.325 0 0 1 1.687-1.688c.721-.416 1.533-.624 2.435-.624.902 0 1.717.208 2.443.624.721.41 1.281.973 1.679 1.688Zm-1.661 4.693c.639-.615.958-1.391.958-2.329 0-.937-.319-1.711-.958-2.32-.639-.61-1.459-.914-2.461-.914-1.002 0-1.822.304-2.461.914-.639.609-.958 1.383-.958 2.32 0 .938.319 1.714.958 2.329.639.61 1.459.914 2.461.914 1.002 0 1.822-.304 2.461-.914Zm2.259-13.473c0 1.324-.443 2.431-1.327 3.322-.891.885-2.022 1.327-3.393 1.327-.902 0-1.714-.205-2.435-.615a4.424 4.424 0 0 1-1.687-1.679 4.718 4.718 0 0 1-.598-2.355c0-1.307.428-2.382 1.283-3.226.85-.85 1.96-1.274 3.332-1.274l.641.035v7.637c.873-.111 1.579-.457 2.118-1.037.534-.586.8-1.298.8-2.135 0-.604-.141-1.146-.422-1.626a2.776 2.776 0 0 0-1.16-1.108v-1.547c.879.34 1.573.897 2.083 1.67.51.768.765 1.638.765 2.611Zm-5.441 3.155v-6.179c-.832.135-1.494.472-1.986 1.011-.498.539-.747 1.21-.747 2.013 0 .808.249 1.5.747 2.074.498.574 1.16.934 1.986 1.081ZM255 175.446h9v13.825h-9v-1.441h7.708v-4.755H255v-1.441h7.708v-4.746H255v-1.442Zm8.622-9.501c.399.709.598 1.497.598 2.365 0 .867-.199 1.658-.598 2.373a4.405 4.405 0 0 1-1.679 1.696c-.726.41-1.541.615-2.443.615-.902 0-1.714-.205-2.435-.615a4.392 4.392 0 0 1-1.687-1.696 4.786 4.786 0 0 1-.598-2.373c0-.868.199-1.656.598-2.365a4.323 4.323 0 0 1 1.687-1.687c.721-.416 1.533-.624 2.435-.624.902 0 1.717.208 2.443.624.721.41 1.281.972 1.679 1.687Zm-1.661 4.694c.639-.616.958-1.392.958-2.329 0-.938-.319-1.711-.958-2.321-.639-.609-1.459-.914-2.461-.914-1.002 0-1.822.305-2.461.914-.639.61-.958 1.383-.958 2.321 0 .937.319 1.713.958 2.329.639.609 1.459.914 2.461.914 1.002 0 1.822-.305 2.461-.914Zm2.259-13.439c0 1.336-.443 2.441-1.327 3.314-.885.867-2.016 1.3-3.393 1.3-1.377 0-2.508-.433-3.393-1.3-.884-.873-1.327-1.978-1.327-3.314 0-1.101.314-2.051.941-2.847.621-.797 1.462-1.322 2.522-1.574v1.477c-.691.234-1.224.606-1.599 1.116-.375.504-.563 1.113-.563 1.828 0 .949.316 1.717.949 2.303.633.58 1.456.87 2.47.87 1.014 0 1.837-.29 2.47-.87.633-.586.949-1.354.949-2.303 0-.715-.188-1.324-.563-1.828-.375-.51-.908-.882-1.599-1.116v-1.477c1.06.252 1.904.777 2.531 1.574.621.796.932 1.746.932 2.847Zm0-10.74c0 1.336-.443 2.44-1.327 3.313-.885.868-2.016 1.301-3.393 1.301-1.377 0-2.508-.433-3.393-1.301-.884-.873-1.327-1.977-1.327-3.313 0-1.102.314-2.051.941-2.848.621-.797 1.462-1.321 2.522-1.573v1.477c-.691.234-1.224.606-1.599 1.116-.375.504-.563 1.113-.563 1.828 0 .949.316 1.717.949 2.303.633.58 1.456.87 2.47.87 1.014 0 1.837-.29 2.47-.87.633-.586.949-1.354.949-2.303 0-.715-.188-1.324-.563-1.828-.375-.51-.908-.882-1.599-1.116v-1.477c1.06.252 1.904.776 2.531 1.573.621.797.932 1.746.932 2.848Zm0-10.775c0 1.324-.443 2.431-1.327 3.322-.891.885-2.022 1.327-3.393 1.327-.902 0-1.714-.205-2.435-.615a4.424 4.424 0 0 1-1.687-1.679 4.718 4.718 0 0 1-.598-2.355c0-1.307.428-2.382 1.283-3.226.85-.85 1.96-1.274 3.332-1.274l.641.035v7.637c.873-.111 1.579-.457 2.118-1.037.534-.586.8-1.298.8-2.135 0-.604-.141-1.146-.422-1.626a2.776 2.776 0 0 0-1.16-1.108v-1.547c.879.34 1.573.897 2.083 1.67.51.768.765 1.638.765 2.611Zm-5.441 3.155v-6.179c-.832.135-1.494.472-1.986 1.011-.498.539-.747 1.21-.747 2.013 0 .808.249 1.5.747 2.074.498.574 1.16.934 1.986 1.081Z" fill="#F2CFBE"/><path d="M259 340v26.5M259 93v26.5" stroke="#F3D1C1" stroke-width="2"/><path d="M38.505 8.302H34.39V12h-1.203V2.197h5.318c.934 0 1.7.274 2.297.82.597.547.895 1.293.895 2.236 0 .943-.298 1.688-.895 2.235-.597.543-1.363.814-2.297.814ZM34.39 7.215h4.115c.638 0 1.128-.18 1.47-.54.346-.365.52-.839.52-1.422s-.174-1.055-.52-1.415c-.342-.365-.832-.547-1.47-.547H34.39v3.924Zm10.78 4.956c-.21 0-.408-.014-.595-.041a2.561 2.561 0 0 1-.601-.157 1.905 1.905 0 0 1-.547-.322 1.51 1.51 0 0 1-.376-.546 2.04 2.04 0 0 1-.15-.814c0-.273.04-.52.122-.738.082-.219.187-.399.315-.54.127-.146.294-.276.499-.39.21-.118.41-.212.601-.28.196-.069.431-.137.705-.205l2.83-.732v-.191c0-.264-.053-.492-.158-.684a1.047 1.047 0 0 0-.417-.437c-.173-.1-.35-.171-.533-.212a2.36 2.36 0 0 0-.574-.069c-.492 0-.927.119-1.306.356a1.35 1.35 0 0 0-.656.984h-1.148c.082-.738.405-1.31.97-1.715.566-.406 1.279-.609 2.14-.609.255 0 .497.018.725.055.227.032.471.105.731.219.26.109.48.252.663.43.187.178.342.424.465.738.123.31.185.67.185 1.08v3.166c0 .168.032.284.095.348.069.064.187.096.356.096h.362V12h-.786c-.542 0-.877-.242-1.005-.725L48 10.961h-.062a3.143 3.143 0 0 1-1.196.902 3.918 3.918 0 0 1-1.572.308Zm.137-.984a3.147 3.147 0 0 0 1.812-.547c.259-.183.466-.427.621-.732.155-.305.233-.654.233-1.046v-.444l-2.83.725c-.392.1-.677.232-.855.396-.178.16-.266.383-.266.67 0 .652.428.978 1.285.978Zm8.968.984c-1.048 0-1.868-.203-2.46-.608-.593-.41-.903-.964-.93-1.662h1.148c.041.401.25.711.63.93.382.219.92.328 1.612.328.638 0 1.147-.1 1.525-.3.383-.201.574-.493.574-.876 0-.378-.194-.658-.581-.84-.383-.187-.91-.28-1.58-.28h-1.059V7.856h1.094c.606 0 1.078-.084 1.415-.253.342-.168.513-.421.513-.758 0-.338-.169-.588-.506-.752-.337-.169-.811-.253-1.422-.253-.264 0-.51.02-.738.061-.228.037-.451.1-.67.192a1.31 1.31 0 0 0-.533.39 1.269 1.269 0 0 0-.274.615h-1.148c.055-.716.385-1.272.991-1.668.61-.401 1.401-.602 2.372-.602.902 0 1.636.166 2.201.5.565.332.848.82.848 1.462 0 .67-.374 1.164-1.121 1.483v.055c.41.119.731.317.964.595.237.273.355.626.355 1.06 0 .683-.287 1.219-.861 1.606-.574.387-1.36.58-2.359.58ZM59.43 12V5h3.807c.725 0 1.308.17 1.75.513.442.337.663.781.663 1.333 0 .656-.346 1.15-1.039 1.483v.062c.392.155.695.382.91.683.214.296.32.636.32 1.019 0 .537-.209.991-.628 1.36-.415.365-.98.547-1.695.547H59.43Zm1.12-4.115h2.687c.392 0 .704-.08.937-.24a.798.798 0 0 0 .355-.697c0-.3-.118-.533-.355-.697-.233-.164-.545-.246-.937-.246h-2.686v1.88Zm0 3.11h2.858c.401 0 .72-.098.957-.294a.94.94 0 0 0 .356-.759.94.94 0 0 0-.356-.758c-.237-.196-.556-.294-.957-.294h-2.857v2.105ZM74.155 5v7h-1.12V6.005h-3.412l-.253 4.313c-.06 1.14-.629 1.71-1.709 1.71h-.704v-1.122h.56c.279 0 .47-.054.575-.164.11-.11.17-.305.184-.588L68.583 5h5.571Zm5.517 7.17c-1.03 0-1.891-.343-2.584-1.031-.688-.693-1.032-1.573-1.032-2.639 0-.702.16-1.333.478-1.894a3.44 3.44 0 0 1 1.306-1.312 3.675 3.675 0 0 1 1.832-.465c1.016 0 1.852.333 2.509.998.66.661.99 1.525.99 2.591l-.026.499h-5.94c.086.679.355 1.228.806 1.648.456.414 1.01.622 1.66.622.47 0 .892-.11 1.266-.329.378-.218.665-.52.86-.902H83a3.33 3.33 0 0 1-1.299 1.62 3.587 3.587 0 0 1-2.03.595Zm-2.454-4.23h4.805c-.104-.648-.366-1.163-.786-1.545-.419-.388-.94-.582-1.565-.582-.629 0-1.167.194-1.613.582-.447.387-.727.902-.841 1.544ZM85.064 12V5h1.122v2.857h1.093L90.048 5h1.429l-3.248 3.33L91.505 12h-1.429l-2.768-3.138h-1.121V12h-1.122Zm9.475.17c-.21 0-.408-.013-.595-.04a2.562 2.562 0 0 1-.601-.157 1.904 1.904 0 0 1-.547-.322 1.51 1.51 0 0 1-.376-.546c-.1-.233-.15-.504-.15-.814 0-.273.04-.52.123-.738a1.67 1.67 0 0 1 .314-.54c.128-.146.294-.276.5-.39.209-.118.41-.212.6-.28.197-.069.431-.137.705-.205l2.83-.732v-.191c0-.264-.053-.492-.157-.684a1.047 1.047 0 0 0-.417-.437c-.174-.1-.351-.171-.534-.212a2.36 2.36 0 0 0-.574-.069c-.492 0-.927.119-1.305.356a1.35 1.35 0 0 0-.657.984H92.55c.082-.738.405-1.31.97-1.715.566-.406 1.279-.609 2.14-.609.255 0 .497.018.725.055.228.032.471.105.731.219.26.109.481.252.663.43.187.178.342.424.465.738.123.31.185.67.185 1.08v3.166c0 .168.032.284.095.348.069.064.187.096.356.096h.362V12h-.786c-.542 0-.877-.242-1.005-.725l-.082-.314h-.061a3.143 3.143 0 0 1-1.197.902 3.917 3.917 0 0 1-1.572.308Zm.137-.983a3.147 3.147 0 0 0 1.812-.547c.26-.183.466-.427.621-.732a2.28 2.28 0 0 0 .233-1.046v-.444l-2.83.725c-.392.1-.677.232-.855.396-.177.16-.266.383-.266.67 0 .652.428.978 1.285.978Zm5.127-5.182V5h6.719v1.005h-2.802V12h-1.115V6.005h-2.802Zm11.423 6.166c-1.03 0-1.892-.344-2.584-1.032-.689-.693-1.033-1.573-1.033-2.639 0-.702.16-1.333.479-1.894a3.436 3.436 0 0 1 1.306-1.312 3.673 3.673 0 0 1 1.832-.465c1.016 0 1.852.333 2.508.998.661.661.992 1.525.992 2.591l-.028.499h-5.94c.086.679.355 1.228.806 1.648.456.414 1.01.622 1.662.622.469 0 .891-.11 1.264-.329.378-.218.666-.52.862-.902h1.203a3.337 3.337 0 0 1-1.299 1.62 3.587 3.587 0 0 1-2.03.595Zm-2.455-4.232h4.806c-.105-.647-.367-1.162-.786-1.544-.419-.388-.941-.582-1.565-.582-.629 0-1.167.194-1.614.582-.446.387-.727.902-.841 1.544ZM123.004 5v7h-1.121V6.005h-3.411l-.253 4.313c-.059 1.14-.629 1.71-1.709 1.71h-.704v-1.122h.56c.278 0 .47-.054.574-.164.11-.11.171-.305.185-.588L117.433 5h5.571Zm2.461 7V5h1.121v2.495h2.632c.323 0 .631.046.923.137.296.086.565.219.806.396.242.173.433.41.574.711.146.296.219.636.219 1.019 0 .31-.048.592-.143.848-.091.25-.217.462-.376.635a2.18 2.18 0 0 1-.554.43c-.214.115-.44.2-.677.254-.237.05-.485.075-.745.075h-3.78Zm1.121-1.005h2.659c.429 0 .763-.114 1.005-.342.246-.228.369-.526.369-.895 0-.374-.125-.677-.376-.91-.246-.232-.588-.348-1.025-.348h-2.632v2.495Zm8.176-2.133V12h-1.121V5h1.121v2.857h3.924V5h1.114v7h-1.114V8.862h-3.924ZM150.724 5v7h-1.121V5h1.121Zm-4.956 7h-3.5V5h1.121v2.495h2.351c.324 0 .631.046.923.137.296.086.565.219.807.396.241.173.433.41.574.711.146.296.219.636.219 1.019 0 .31-.048.592-.144.848-.091.25-.216.462-.376.635a2.163 2.163 0 0 1-.554.43 2.746 2.746 0 0 1-.676.254c-.237.05-.486.075-.745.075Zm-2.379-3.5v2.495h2.379c.428 0 .763-.114 1.004-.342.247-.228.37-.526.37-.895 0-.374-.126-.677-.376-.91-.246-.232-.588-.348-1.026-.348h-2.351Zm13.658-4.587a2.48 2.48 0 0 1-.745.11 2.47 2.47 0 0 1-.745-.11 2.238 2.238 0 0 1-.65-.328 1.698 1.698 0 0 1-.485-.615 2.35 2.35 0 0 1-.219-.91h.95c.019.201.066.374.144.52a.905.905 0 0 0 .287.335c.114.073.228.128.342.164a1.439 1.439 0 0 0 .745 0c.118-.036.235-.091.349-.164a.924.924 0 0 0 .287-.335c.077-.146.125-.319.143-.52h.95a2.368 2.368 0 0 1-.218.91c-.128.26-.292.465-.493.615-.196.146-.41.255-.642.328ZM159.412 5v7h-1.121V6.736h-.055L154.312 12h-1.121V5h1.121v5.264h.055L158.291 5h1.121Zm6.658 7V5h1.121v2.857h1.094L171.054 5h1.428l-3.247 3.33L172.51 12h-1.429l-2.769-3.138h-1.121V12h-1.121Zm12.496-.294a3.685 3.685 0 0 1-1.838.465c-.675 0-1.29-.155-1.846-.465a3.43 3.43 0 0 1-1.32-1.306 3.798 3.798 0 0 1-.478-1.9c0-.702.159-1.333.478-1.894a3.417 3.417 0 0 1 1.32-1.312 3.726 3.726 0 0 1 1.846-.465c.674 0 1.287.155 1.838.465.556.31.994.747 1.313 1.312.323.561.485 1.192.485 1.894s-.162 1.335-.485 1.9a3.38 3.38 0 0 1-1.313 1.306Zm-3.65-1.292c.479.497 1.082.745 1.812.745.729 0 1.33-.248 1.804-.745s.711-1.135.711-1.914c0-.78-.237-1.417-.711-1.914-.474-.497-1.075-.745-1.804-.745-.73 0-1.333.248-1.812.745-.474.497-.711 1.135-.711 1.914 0 .78.237 1.417.711 1.914ZM190.782 5v7h-1.114V6.593h-.062L187.118 12h-1.176l-2.495-5.407h-.054V12h-1.122V5h1.573l2.659 5.77h.055L189.217 5h1.565Zm3.589 1.005V12h-1.121V5h6.159v7h-1.114V6.005h-3.924ZM208.262 5v7h-1.121V6.005h-3.412l-.252 4.313c-.06 1.14-.629 1.71-1.709 1.71h-.705v-1.122h.561c.278 0 .469-.054.574-.164.11-.11.171-.305.185-.588L202.69 5h5.572Zm5.516 7.17c-1.03 0-1.891-.343-2.584-1.031-.688-.693-1.032-1.573-1.032-2.639 0-.702.16-1.333.479-1.894a3.434 3.434 0 0 1 1.305-1.312 3.676 3.676 0 0 1 1.832-.465c1.017 0 1.853.333 2.509.998.661.661.991 1.525.991 2.591l-.027.499h-5.94c.086.679.355 1.228.806 1.648.456.414 1.01.622 1.661.622.47 0 .891-.11 1.265-.329.378-.218.665-.52.861-.902h1.203a3.33 3.33 0 0 1-1.298 1.62 3.588 3.588 0 0 1-2.031.595Zm-2.454-4.23h4.806c-.105-.648-.367-1.163-.786-1.545-.42-.388-.941-.582-1.566-.582-.629 0-1.166.194-1.613.582-.447.387-.727.902-.841 1.544Zm7.848 4.06V5h1.121v2.857h1.094L224.155 5h1.429l-3.247 3.33 3.274 3.67h-1.428l-2.769-3.138h-1.121V12h-1.121Zm10.602.17c-1.039 0-1.898-.343-2.577-1.031-.674-.688-1.011-1.568-1.011-2.639 0-1.071.337-1.95 1.011-2.639.679-.688 1.538-1.032 2.577-1.032.857 0 1.595.244 2.215.732.62.483 1.028 1.137 1.224 1.961h-1.149c-.182-.537-.471-.952-.868-1.244-.392-.291-.866-.437-1.422-.437-.738 0-1.335.246-1.791.738-.451.492-.676 1.133-.676 1.921s.225 1.429.676 1.92c.456.493 1.053.74 1.791.74.556 0 1.03-.147 1.422-.438.397-.292.686-.707.868-1.244h1.149c-.196.824-.604 1.48-1.224 1.968-.62.483-1.358.725-2.215.725ZM53.197 25.36l1.61-2.52h.98l-1.47 2.52 1.47 2.52h-.98l-1.61-2.52Zm2.1 0 1.61-2.52h.98l-1.47 2.52 1.47 2.52h-.98l-1.61-2.52Zm4.917-6.16h4.788c.402 0 .775.07 1.12.21.355.13.658.313.91.546.262.233.462.513.602.84.15.317.224.658.224 1.022 0 .457-.116.863-.35 1.218a1.922 1.922 0 0 1-.966.756c.243.065.476.168.7.308.224.14.42.313.588.518.168.205.304.443.406.714.103.27.154.574.154.91 0 .383-.074.742-.224 1.078-.14.336-.34.63-.602.882a2.94 2.94 0 0 1-.91.588c-.354.14-.742.21-1.162.21h-5.278v-9.8Zm4.788 4.284c.271 0 .518-.042.742-.126.224-.093.416-.215.574-.364.16-.15.28-.327.364-.532a1.538 1.538 0 0 0 0-1.288 1.502 1.502 0 0 0-.364-.532 1.694 1.694 0 0 0-.574-.35 1.911 1.911 0 0 0-.742-.14h-3.78v3.332h3.78Zm.49 4.564c.3 0 .56-.047.784-.14.234-.103.43-.233.588-.392.16-.168.28-.36.364-.574a1.977 1.977 0 0 0 0-1.386 1.588 1.588 0 0 0-.364-.574 1.625 1.625 0 0 0-.588-.392 1.865 1.865 0 0 0-.784-.154h-4.27v3.612h4.27ZM79.05 22h.98v7h-.98v-3.136h-4.2V29h-.98v-7h.98v2.968h4.2V22Zm6.38 7.168c-.55 0-1.055-.093-1.512-.28a3.56 3.56 0 0 1-1.162-.77A3.383 3.383 0 0 1 82 26.956a3.921 3.921 0 0 1-.266-1.456c0-.523.093-1.008.28-1.456a3.56 3.56 0 0 1 .77-1.162c.327-.327.71-.583 1.148-.77a3.71 3.71 0 0 1 1.442-.28c.476 0 .924.08 1.344.238.42.15.784.378 1.092.686.308.308.55.69.728 1.148.187.457.28.99.28 1.596v.224c0 .065-.01.135-.028.21h-6.048c.094.7.392 1.27.896 1.708.504.439 1.153.658 1.946.658a4.88 4.88 0 0 0 1.232-.168 5.2 5.2 0 0 0 1.218-.518l.392.616c-.382.27-.816.495-1.302.672-.485.177-1.05.266-1.694.266Zm2.422-4.102a2.525 2.525 0 0 0-.238-.98 2.072 2.072 0 0 0-.532-.742 2.234 2.234 0 0 0-.77-.476 2.576 2.576 0 0 0-.938-.168c-.345 0-.672.06-.98.182-.299.112-.564.27-.798.476-.224.205-.41.453-.56.742a2.92 2.92 0 0 0-.294.966h5.11ZM90.467 22h.98v3.164L95.003 22h1.302l-3.78 3.36L96.403 29h-1.316l-3.64-3.43V29h-.98v-7Zm9.74 7.168a3.71 3.71 0 0 1-1.442-.28 3.597 3.597 0 0 1-1.148-.77 3.558 3.558 0 0 1-.77-1.162 3.747 3.747 0 0 1-.28-1.456c0-.523.094-1.008.28-1.456.187-.448.444-.835.77-1.162.327-.327.71-.583 1.148-.77a3.71 3.71 0 0 1 1.442-.28c.514 0 .99.093 1.428.28.448.187.836.443 1.162.77.327.327.584.714.77 1.162.187.448.28.933.28 1.456 0 .523-.093 1.008-.28 1.456a3.544 3.544 0 0 1-.77 1.162 3.552 3.552 0 0 1-1.162.77c-.438.187-.914.28-1.428.28Zm0-.896c.383 0 .733-.07 1.05-.21.327-.14.607-.331.84-.574.234-.252.416-.546.546-.882a3.02 3.02 0 0 0 .196-1.106c0-.401-.065-.77-.196-1.106a2.57 2.57 0 0 0-.546-.868 2.433 2.433 0 0 0-.84-.588 2.57 2.57 0 0 0-1.05-.21c-.382 0-.737.07-1.064.21-.317.14-.593.336-.826.588a2.59 2.59 0 0 0-.546.868c-.13.336-.196.705-.196 1.106 0 .401.066.77.196 1.106.13.336.313.63.546.882.234.243.509.434.826.574.327.14.681.21 1.064.21ZM104.472 22h6.16v.896h-2.59V29h-.98v-6.104h-2.59V22Zm10.419 7.168a3.587 3.587 0 0 1-2.59-1.05 3.544 3.544 0 0 1-.77-1.162 3.741 3.741 0 0 1-.28-1.456c0-.523.093-1.008.28-1.456a3.544 3.544 0 0 1 1.918-1.932c.448-.187.928-.28 1.442-.28.513 0 .989.093 1.428.28.448.187.835.443 1.162.77.326.327.583.714.77 1.162.186.448.28.933.28 1.456a3.76 3.76 0 0 1-.28 1.456 3.576 3.576 0 0 1-.77 1.162 3.563 3.563 0 0 1-1.162.77 3.61 3.61 0 0 1-1.428.28Zm0-.896c.382 0 .732-.07 1.05-.21a2.55 2.55 0 0 0 .84-.574c.233-.252.415-.546.546-.882a3.04 3.04 0 0 0 .196-1.106c0-.401-.066-.77-.196-1.106a2.602 2.602 0 0 0-1.386-1.456 2.577 2.577 0 0 0-1.05-.21c-.383 0-.738.07-1.064.21-.318.14-.593.336-.826.588a2.57 2.57 0 0 0-.546.868 3.02 3.02 0 0 0-.196 1.106c0 .401.065.77.196 1.106.13.336.312.63.546.882.233.243.508.434.826.574.326.14.681.21 1.064.21Zm9.105.896c-.317 0-.616-.042-.896-.126a3.614 3.614 0 0 1-.784-.308 3.501 3.501 0 0 1-.63-.448 4.145 4.145 0 0 1-.462-.546v4.76h-.98V22h.98v1.26a3.53 3.53 0 0 1 .462-.532c.187-.177.397-.331.63-.462.243-.13.504-.233.784-.308.28-.084.579-.126.896-.126.495 0 .952.093 1.372.28.43.187.798.443 1.106.77.318.327.565.714.742 1.162.187.448.28.933.28 1.456 0 .523-.093 1.008-.28 1.456a3.475 3.475 0 0 1-.742 1.162 3.314 3.314 0 0 1-1.106.77c-.42.187-.877.28-1.372.28Zm-.14-.896c.383 0 .733-.07 1.05-.21.327-.14.607-.331.84-.574.234-.252.416-.546.546-.882a3.02 3.02 0 0 0 .196-1.106c0-.401-.065-.77-.196-1.106a2.57 2.57 0 0 0-.546-.868 2.433 2.433 0 0 0-.84-.588 2.57 2.57 0 0 0-1.05-.21c-.382 0-.737.07-1.064.21-.317.14-.592.336-.826.588a2.602 2.602 0 0 0-.546.868 3.04 3.04 0 0 0-.196 1.106c0 .401.066.77.196 1.106.131.336.313.63.546.882.234.243.509.434.826.574.327.14.682.21 1.064.21Zm8.507.896c-.513 0-.994-.093-1.442-.28a3.61 3.61 0 0 1-1.148-.77 3.576 3.576 0 0 1-.77-1.162 3.76 3.76 0 0 1-.28-1.456c0-.523.094-1.008.28-1.456.187-.448.444-.835.77-1.162a3.61 3.61 0 0 1 1.148-.77c.448-.187.929-.28 1.442-.28.514 0 .99.093 1.428.28.448.187.836.443 1.162.77.327.327.584.714.77 1.162.187.448.28.933.28 1.456 0 .523-.093 1.008-.28 1.456a3.544 3.544 0 0 1-.77 1.162 3.552 3.552 0 0 1-1.162.77c-.438.187-.914.28-1.428.28Zm0-.896c.383 0 .733-.07 1.05-.21.327-.14.607-.331.84-.574.234-.252.416-.546.546-.882a3.02 3.02 0 0 0 .196-1.106c0-.401-.065-.77-.196-1.106a2.57 2.57 0 0 0-.546-.868 2.433 2.433 0 0 0-.84-.588 2.57 2.57 0 0 0-1.05-.21c-.382 0-.737.07-1.064.21-.317.14-.592.336-.826.588a2.602 2.602 0 0 0-.546.868 3.04 3.04 0 0 0-.196 1.106c0 .401.066.77.196 1.106.131.336.313.63.546.882.234.243.509.434.826.574.327.14.682.21 1.064.21ZM137.717 22h.91l2.856 3.99 2.856-3.99h.91v7h-.98v-5.39l-2.716 3.78h-.14l-2.716-3.78V29h-.98v-7Zm18.397 0h.98v6.104h.98v2.646h-.84l-.14-1.75h-6.02v-7h.98v6.104h4.06V22Zm5.435 7.168c-.373 0-.709-.056-1.008-.168a2.506 2.506 0 0 1-.77-.448 2.108 2.108 0 0 1-.476-.672 2.29 2.29 0 0 1-.154-.84c0-.392.108-.756.322-1.092.215-.345.537-.635.966-.868.43-.233.962-.406 1.596-.518.644-.112 1.391-.13 2.24-.056l.168.014v-.196c0-.308-.051-.565-.154-.77a1.311 1.311 0 0 0-.406-.49 1.554 1.554 0 0 0-.602-.28 2.935 2.935 0 0 0-.714-.084c-.41 0-.84.06-1.288.182a5.973 5.973 0 0 0-1.33.546l-.336-.63c.392-.252.84-.476 1.344-.672a4.8 4.8 0 0 1 1.722-.294c.355 0 .696.042 1.022.126.327.075.616.21.868.406.252.187.453.439.602.756.15.317.224.719.224 1.204V29h-.952v-1.176a1.577 1.577 0 0 1-.448.504 3.732 3.732 0 0 1-.686.434c-.252.121-.532.22-.84.294a3.732 3.732 0 0 1-.91.112Zm.154-.868c.271 0 .565-.042.882-.126.327-.084.626-.233.896-.448.271-.224.495-.527.672-.91.187-.392.28-.887.28-1.484l-.168-.014c-.69-.056-1.297-.047-1.82.028-.513.065-.942.182-1.288.35-.345.159-.606.36-.784.602a1.372 1.372 0 0 0-.252.798c0 .42.15.728.448.924.308.187.686.28 1.134.28Zm9.557.868c-.317 0-.616-.042-.896-.126a3.614 3.614 0 0 1-.784-.308 3.501 3.501 0 0 1-.63-.448 4.145 4.145 0 0 1-.462-.546v4.76h-.98V22h.98v1.26a3.53 3.53 0 0 1 .462-.532c.187-.177.397-.331.63-.462.243-.13.504-.233.784-.308.28-.084.579-.126.896-.126.495 0 .952.093 1.372.28.429.187.798.443 1.106.77.317.327.565.714.742 1.162.187.448.28.933.28 1.456 0 .523-.093 1.008-.28 1.456a3.49 3.49 0 0 1-.742 1.162 3.324 3.324 0 0 1-1.106.77c-.42.187-.877.28-1.372.28Zm-.14-.896c.383 0 .733-.07 1.05-.21.327-.14.607-.331.84-.574.233-.252.415-.546.546-.882a3.02 3.02 0 0 0 .196-1.106c0-.401-.065-.77-.196-1.106a2.602 2.602 0 0 0-.546-.868 2.433 2.433 0 0 0-.84-.588 2.57 2.57 0 0 0-1.05-.21c-.383 0-.737.07-1.064.21-.317.14-.593.336-.826.588a2.602 2.602 0 0 0-.546.868 3.02 3.02 0 0 0-.196 1.106c0 .401.065.77.196 1.106.131.336.313.63.546.882.233.243.509.434.826.574.327.14.681.21 1.064.21Zm8.381.896c-.513 0-.985-.093-1.414-.28a3.477 3.477 0 0 1-1.12-.77 3.605 3.605 0 0 1-.728-1.162 4.114 4.114 0 0 1-.252-1.456c0-.523.089-1.008.266-1.456a3.69 3.69 0 0 1 .756-1.162 3.65 3.65 0 0 1 1.134-.77 3.61 3.61 0 0 1 1.428-.28c.485 0 .947.084 1.386.252.439.168.84.406 1.204.714l-.336.63a5.434 5.434 0 0 0-1.022-.504c-.336-.13-.7-.196-1.092-.196-.401 0-.77.07-1.106.21-.336.14-.625.336-.868.588a2.602 2.602 0 0 0-.546.868 3.02 3.02 0 0 0-.196 1.106c0 .401.061.77.182 1.106.121.336.299.63.532.882.233.243.513.434.84.574.327.14.691.21 1.092.21.308 0 .667-.047 1.078-.14a4.842 4.842 0 0 0 1.246-.518l.392.616a7.332 7.332 0 0 1-1.19.644c-.467.196-1.022.294-1.666.294ZM182.99 22h6.16v.896h-2.59V29h-.98v-6.104h-2.59V22Zm7.391 0h3.458c.7 0 1.251.173 1.652.518.411.345.616.798.616 1.358 0 .42-.107.737-.322.952a2.044 2.044 0 0 1-.728.49c.14.028.294.08.462.154.168.075.322.182.462.322.149.13.275.299.378.504.103.205.154.457.154.756 0 .261-.047.509-.14.742a1.575 1.575 0 0 1-.406.616 2.155 2.155 0 0 1-.714.434c-.28.103-.611.154-.994.154h-3.878v-7Zm3.458 2.996c.448 0 .775-.107.98-.322.205-.215.308-.48.308-.798 0-.317-.107-.565-.322-.742-.215-.177-.537-.266-.966-.266h-2.506v2.128h2.506Zm.42 3.136c.448 0 .77-.093.966-.28.205-.196.308-.462.308-.798s-.103-.616-.308-.84c-.196-.233-.518-.35-.966-.35h-2.926v2.268h2.926Zm7.176 1.036a3.962 3.962 0 0 1-1.512-.28 3.563 3.563 0 0 1-1.162-.77 3.374 3.374 0 0 1-.756-1.162 3.927 3.927 0 0 1-.266-1.456c0-.523.093-1.008.28-1.456a3.56 3.56 0 0 1 .77-1.162 3.598 3.598 0 0 1 1.148-.77c.448-.187.929-.28 1.442-.28.476 0 .924.08 1.344.238.42.15.784.378 1.092.686.308.308.551.69.728 1.148.187.457.28.99.28 1.596v.224a.852.852 0 0 1-.028.21h-6.048c.093.7.392 1.27.896 1.708.504.439 1.153.658 1.946.658.392 0 .803-.056 1.232-.168a5.211 5.211 0 0 0 1.218-.518l.392.616c-.383.27-.817.495-1.302.672-.485.177-1.05.266-1.694.266Zm2.422-4.102a2.53 2.53 0 0 0-.238-.98 2.076 2.076 0 0 0-.532-.742 2.234 2.234 0 0 0-.77-.476 2.575 2.575 0 0 0-.938-.168c-.345 0-.672.06-.98.182-.299.112-.565.27-.798.476a2.628 2.628 0 0 0-.56.742c-.149.29-.247.611-.294.966h5.11Zm7.306.294-1.61 2.52h-.98l1.47-2.52-1.47-2.52h.98l1.61 2.52Zm-2.1 0-1.61 2.52h-.98l1.47-2.52-1.47-2.52h.98l1.61 2.52Z" fill="#F2CFBE"/><path d="M28.954 350.376h-1.775v-11.089h14.195v-1.331h48.792v1.331h17.429v25.283h-9.888v1.775H41.374v-1.331h-12.42v-14.638Z" fill="#F3D1C1" stroke="#4A4A60" stroke-width="2"/><path d="M119.441 366.824v-1.774h-11.847v-25.284h10.96v-1.33h50.124v1.33h6.653v27.058h-55.89ZM220.728 364.976h-45.244v-24.84h8.871v-11.089h3.105v-15.082h1.331V299.5h30.606v7.097h1.331v58.379Z" fill="#F3D1C1" stroke="#4A4A60" stroke-width="2"/><path d="m62 313.997-.026 2.846-.07 1.663-.117 1.39-.167 1.223-.213 1.106-.257 1.022-.31.938-.354.874-.4.815-.45.757-.497.698-.548.654-.592.595-.651.55-.696.498-.754.453-.812.401-.87.356-.934.31-1.018.259-1.102.213-1.218.169-1.385.116-1.656.071-2.986.026-2.82-.026-1.656-.071-1.385-.116-1.218-.169-1.102-.213-1.018-.259-.934-.31-.87-.356-.812-.401-.754-.453-.696-.498-.65-.55-.593-.595-.548-.654-.496-.698-.451-.757-.4-.815-.354-.874-.31-.938-.257-1.022-.213-1.106-.167-1.223-.116-1.39-.071-1.663-.026-2.84.026-2.846.07-1.663.117-1.39.167-1.223.213-1.106.258-1.022.309-.938.354-.874.4-.815.45-.757.497-.698.547-.654.593-.595.651-.55.696-.498.754-.453.812-.401.87-.356.934-.31 1.018-.259 1.102-.213 1.218-.169 1.385-.116 1.656-.071 2.82-.026 2.986.026 1.656.071 1.386.116 1.217.169 1.102.213 1.018.259.934.31.87.356.812.401.754.453.696.498.65.55.593.595.548.654.496.698.451.757.4.815.354.874.31.938.257 1.022.213 1.106.167 1.223.116 1.39.071 1.663.026 2.84Z" fill="#F2CFBE"/><path d="M45.312 313.936c-.256 0-.496-.04-.72-.12a1.79 1.79 0 0 1-.564-.36 1.565 1.565 0 0 1-.372-.552 1.859 1.859 0 0 1-.132-.708c0-.256.044-.492.132-.708a1.565 1.565 0 0 1 .936-.9c.224-.088.464-.132.72-.132.256 0 .492.044.708.132.224.08.416.196.576.348.16.152.284.336.372.552.088.216.132.452.132.708 0 .256-.044.492-.132.708-.088.216-.212.4-.372.552a1.76 1.76 0 0 1-.576.36c-.216.08-.452.12-.708.12ZM35.4 310.6h.72l5.304 6.816V310.6h.864v8.4h-.72l-5.304-6.816V319H35.4v-8.4Zm9.912 2.64c.312 0 .568-.096.768-.288.2-.192.3-.444.3-.756s-.1-.564-.3-.756c-.2-.192-.456-.288-.768-.288s-.568.096-.768.288c-.2.192-.3.444-.3.756s.1.564.3.756c.2.192.456.288.768.288Zm-1.704 1.56h3.408v.72h-3.408v-.72Zm7.114-6.96-2.286.504-.432-.918 2.988-1.026h1.08V319h-1.35v-11.16ZM202.054 331.84l-2.286.504-.432-.918 2.988-1.026h1.08V343h-1.35v-11.16ZM136.877 356.92l4.5-4.14c.684-.624 1.242-1.242 1.674-1.854.444-.624.666-1.272.666-1.944 0-.288-.054-.582-.162-.882a2.073 2.073 0 0 0-.486-.828 2.452 2.452 0 0 0-.864-.594c-.348-.156-.774-.234-1.278-.234-.96 0-2.118.3-3.474.9l-.432-.918a8.681 8.681 0 0 1 1.836-.882 6.634 6.634 0 0 1 2.178-.36c.78 0 1.422.126 1.926.378.516.252.93.564 1.242.936.312.372.528.774.648 1.206.132.432.198.834.198 1.206 0 .78-.24 1.554-.72 2.322-.48.756-1.134 1.512-1.962 2.268l-3.6 3.24h6.12V358h-8.01v-1.08ZM65.105 358.216c-.468 0-.9-.042-1.296-.126a6.972 6.972 0 0 1-1.098-.288c-.324-.132-.624-.27-.9-.414a14.634 14.634 0 0 1-.774-.468l.504-.9c.54.312 1.11.546 1.71.702.6.156 1.188.234 1.764.234.336 0 .702-.03 1.098-.09a4.322 4.322 0 0 0 1.134-.36c.348-.18.636-.426.864-.738.24-.312.36-.708.36-1.188 0-.324-.06-.624-.18-.9a1.962 1.962 0 0 0-.486-.72 2.042 2.042 0 0 0-.738-.468 2.278 2.278 0 0 0-.918-.18h-1.836v-1.224h1.584c.576 0 1.038-.216 1.386-.648.36-.432.54-.972.54-1.62 0-.432-.078-.798-.234-1.098a1.93 1.93 0 0 0-.612-.738 2.395 2.395 0 0 0-.882-.414 4.364 4.364 0 0 0-1.062-.126c-.528 0-1.044.084-1.548.252-.492.156-.99.372-1.494.648l-.432-.918a9.204 9.204 0 0 1 1.674-.9c.552-.228 1.176-.342 1.872-.342.612 0 1.164.084 1.656.252.504.168.93.414 1.278.738.36.312.636.69.828 1.134.192.444.288.948.288 1.512 0 .54-.126 1.056-.378 1.548s-.642.876-1.17 1.152c.696.276 1.236.678 1.62 1.206.384.516.576 1.134.576 1.854 0 .66-.138 1.224-.414 1.692a3.366 3.366 0 0 1-1.098 1.116 4.736 4.736 0 0 1-1.512.63 7.173 7.173 0 0 1-1.674.198Z" fill="#fff"/><path d="M88.04 240H105v26H26v-26h13v-2h49.04v2ZM110 196h4v-6h24v12h2v64h-35v-39h3l.051-12H110v-19ZM112 133l2-.043v-12.92h24.021v4.936H140V186h-1.979v3.979H114V180h-2v-47ZM108 84h-3V44h35v64h-2v12.014L114 120v-5h-3V96h-3V84ZM105 73H38V46h14v-2h16v2h17v-2h20v29ZM35 96h-2v17H3v-5H1V89h2V60H1V44h33v2h4v35h-3v15ZM16 180h-1v2H2v-11.044h2V136H2v-18h2v-4h28v41h-2v25H16Z" fill="#F3D1C1" stroke="#4A4A60" stroke-width="2"/><path d="m90 157.997-.026 2.846-.07 1.663-.117 1.39-.167 1.223-.213 1.106-.257 1.022-.31.938-.354.874-.4.815-.45.757-.497.698-.548.654-.592.595-.651.55-.696.498-.754.453-.812.401-.87.356-.934.31-1.018.259-1.102.213-1.218.169-1.385.116-1.656.071-2.986.026-2.82-.026-1.656-.071-1.385-.116-1.218-.169-1.102-.213-1.018-.259-.934-.31-.87-.356-.812-.401-.754-.453-.696-.498-.65-.55-.594-.595-.547-.654-.496-.698-.451-.757-.4-.815-.354-.874-.31-.938-.257-1.022-.213-1.106-.167-1.223-.116-1.39-.071-1.663-.026-2.84.026-2.846.07-1.663.117-1.39.167-1.223.213-1.106.257-1.022.31-.938.354-.874.4-.815.45-.757.497-.698.547-.654.593-.595.651-.55.696-.498.754-.453.812-.401.87-.356.934-.31 1.018-.259 1.102-.213 1.218-.169 1.385-.116 1.656-.071 2.82-.026 2.986.026 1.656.071 1.386.116 1.217.169 1.102.213 1.018.259.934.31.87.356.812.401.754.453.696.498.65.55.593.595.548.654.496.698.451.757.4.815.354.874.31.938.257 1.022.213 1.106.167 1.223.116 1.39.071 1.663.026 2.84Z" fill="#4A4A60"/><path d="M71.027 157.936c-.256 0-.496-.04-.72-.12a1.79 1.79 0 0 1-.564-.36 1.565 1.565 0 0 1-.372-.552 1.859 1.859 0 0 1-.132-.708c0-.256.044-.492.132-.708a1.565 1.565 0 0 1 .936-.9c.224-.088.464-.132.72-.132.256 0 .492.044.708.132.224.08.416.196.576.348.16.152.284.336.372.552.088.216.132.452.132.708 0 .256-.044.492-.132.708-.088.216-.212.4-.372.552a1.76 1.76 0 0 1-.576.36c-.216.08-.452.12-.708.12Zm-9.912-3.336h.72l5.304 6.816V154.6h.864v8.4h-.72l-5.304-6.816V163h-.864v-8.4Zm9.912 2.64c.312 0 .568-.096.768-.288.2-.192.3-.444.3-.756s-.1-.564-.3-.756c-.2-.192-.456-.288-.768-.288s-.568.096-.768.288c-.2.192-.3.444-.3.756s.1.564.3.756c.2.192.456.288.768.288Zm-1.704 1.56h3.408v.72h-3.408v-.72Zm8.95 4.416c-.468 0-.9-.042-1.296-.126a6.972 6.972 0 0 1-1.099-.288c-.323-.132-.624-.27-.9-.414a14.634 14.634 0 0 1-.773-.468l.504-.9c.54.312 1.11.546 1.71.702.6.156 1.188.234 1.764.234.335 0 .701-.03 1.097-.09a4.322 4.322 0 0 0 1.135-.36c.347-.18.635-.426.863-.738.24-.312.36-.708.36-1.188 0-.324-.06-.624-.18-.9a1.962 1.962 0 0 0-.486-.72 2.042 2.042 0 0 0-.737-.468 2.278 2.278 0 0 0-.918-.18H77.48v-1.224h1.584c.576 0 1.038-.216 1.386-.648.36-.432.54-.972.54-1.62 0-.432-.079-.798-.234-1.098a1.93 1.93 0 0 0-.613-.738 2.395 2.395 0 0 0-.882-.414 4.364 4.364 0 0 0-1.061-.126c-.528 0-1.044.084-1.548.252-.493.156-.99.372-1.495.648l-.431-.918a9.204 9.204 0 0 1 1.673-.9c.552-.228 1.176-.342 1.872-.342.612 0 1.164.084 1.656.252.505.168.93.414 1.279.738.36.312.636.69.828 1.134.192.444.288.948.288 1.512 0 .54-.126 1.056-.378 1.548s-.642.876-1.17 1.152c.695.276 1.235.678 1.62 1.206.383.516.576 1.134.576 1.854 0 .66-.139 1.224-.415 1.692a3.366 3.366 0 0 1-1.097 1.116 4.736 4.736 0 0 1-1.513.63 7.173 7.173 0 0 1-1.674.198ZM17.054 141.84l-2.286.504-.432-.918 2.988-1.026h1.08V153h-1.35v-11.16ZM15.877 82.92l4.5-4.14c.684-.624 1.242-1.242 1.674-1.854.444-.624.666-1.272.666-1.944 0-.288-.054-.582-.162-.882a2.073 2.073 0 0 0-.486-.828 2.452 2.452 0 0 0-.864-.594c-.348-.156-.774-.234-1.278-.234-.96 0-2.118.3-3.474.9l-.432-.918a8.681 8.681 0 0 1 1.836-.882 6.634 6.634 0 0 1 2.178-.36c.78 0 1.422.126 1.926.378.516.252.93.564 1.242.936.312.372.528.774.648 1.206.132.432.198.834.198 1.206 0 .78-.24 1.554-.72 2.322-.48.756-1.134 1.512-1.962 2.268l-3.6 3.24h6.12V84h-8.01v-1.08ZM71.105 65.216c-.468 0-.9-.042-1.296-.126a6.972 6.972 0 0 1-1.098-.288c-.324-.132-.624-.27-.9-.414a14.634 14.634 0 0 1-.774-.468l.504-.9c.54.312 1.11.546 1.71.702.6.156 1.188.234 1.764.234.336 0 .702-.03 1.098-.09a4.322 4.322 0 0 0 1.134-.36c.348-.18.636-.426.864-.738.24-.312.36-.708.36-1.188 0-.324-.06-.624-.18-.9a1.962 1.962 0 0 0-.486-.72 2.042 2.042 0 0 0-.738-.468 2.278 2.278 0 0 0-.918-.18h-1.836v-1.224h1.584c.576 0 1.038-.216 1.386-.648.36-.432.54-.972.54-1.62 0-.432-.078-.798-.234-1.098a1.93 1.93 0 0 0-.612-.738 2.395 2.395 0 0 0-.882-.414 4.364 4.364 0 0 0-1.062-.126c-.528 0-1.044.084-1.548.252-.492.156-.99.372-1.494.648l-.432-.918a9.204 9.204 0 0 1 1.674-.9c.552-.228 1.176-.342 1.872-.342.612 0 1.164.084 1.656.252.504.168.93.414 1.278.738.36.312.636.69.828 1.134.192.444.288.948.288 1.512 0 .54-.126 1.056-.378 1.548s-.642.876-1.17 1.152c.696.276 1.236.678 1.62 1.206.384.516.576 1.134.576 1.854 0 .66-.138 1.224-.414 1.692a3.366 3.366 0 0 1-1.098 1.116 4.736 4.736 0 0 1-1.512.63 7.173 7.173 0 0 1-1.674.198ZM126.387 81.39h-6.57v-1.08l6.57-8.91h1.35v8.73h1.44v1.26h-1.44V84h-1.35v-2.61Zm0-1.26v-6.66l-4.95 6.66h4.95ZM125.021 153.7c-.504 0-.96.048-1.368.144a4.663 4.663 0 0 0-1.242.504l-.666-.252 1.026-6.696h6.354v1.224h-5.364l-.648 4.176a7.775 7.775 0 0 1 1.008-.234c.372-.06.78-.09 1.224-.09.672 0 1.284.084 1.836.252a4.103 4.103 0 0 1 1.422.738c.408.324.72.726.936 1.206.228.48.342 1.032.342 1.656 0 .72-.138 1.332-.414 1.836a3.535 3.535 0 0 1-1.098 1.206c-.444.3-.948.516-1.512.648a7.173 7.173 0 0 1-1.674.198c-.468 0-.9-.042-1.296-.126a6.972 6.972 0 0 1-1.098-.288c-.324-.132-.624-.27-.9-.414a14.634 14.634 0 0 1-.774-.468l.504-.9c.54.312 1.122.546 1.746.702a7.635 7.635 0 0 0 1.818.234c.288 0 .624-.03 1.008-.09.396-.06.768-.18 1.116-.36.348-.18.642-.444.882-.792.24-.348.36-.81.36-1.386 0-.828-.288-1.47-.864-1.926-.576-.468-1.464-.702-2.664-.702ZM124.496 242.216c-.696 0-1.332-.12-1.908-.36a4.25 4.25 0 0 1-1.476-1.008 4.61 4.61 0 0 1-.954-1.548 5.532 5.532 0 0 1-.342-1.98v-2.7c0-.744.084-1.446.252-2.106.18-.66.462-1.236.846-1.728.396-.492.912-.882 1.548-1.17.636-.288 1.41-.432 2.322-.432.72 0 1.386.12 1.998.36a6.4 6.4 0 0 1 1.656.882l-.432.918c-.588-.348-1.158-.582-1.71-.702a6.548 6.548 0 0 0-1.512-.198c-1.236 0-2.16.36-2.772 1.08-.6.708-.9 1.74-.9 3.096v.36c.324-.42.78-.762 1.368-1.026.6-.276 1.272-.414 2.016-.414.66 0 1.272.114 1.836.342a4.404 4.404 0 0 1 1.494.918c.42.384.75.84.99 1.368.24.528.36 1.098.36 1.71 0 .612-.12 1.182-.36 1.71s-.57.99-.99 1.386c-.42.384-.918.69-1.494.918a5.091 5.091 0 0 1-1.836.324Zm-3.384-4.338c0 .444.084.858.252 1.242.168.384.402.714.702.99.3.276.654.492 1.062.648.42.156.876.234 1.368.234.492 0 .942-.078 1.35-.234a3.24 3.24 0 0 0 1.08-.648c.3-.276.534-.606.702-.99.168-.384.252-.798.252-1.242 0-.456-.084-.87-.252-1.242a2.917 2.917 0 0 0-.702-.99 3.24 3.24 0 0 0-1.08-.648 3.752 3.752 0 0 0-1.35-.234c-.492 0-.948.078-1.368.234a3.28 3.28 0 0 0-1.062.648c-.3.276-.534.606-.702.99a2.984 2.984 0 0 0-.252 1.242ZM67.566 246.66h-6.57v-1.26h8.01v1.08L63.696 258h-1.44l5.31-11.34Z" fill="#fff"/><path d="M219 180h2v-62h-26v9h-2v49h2v13h24v-9ZM221 197.059h-2V189h-24v12.037h-2V250h2v16h26v-68.941ZM218.754 44H190v66.649h4.942V118H221V90.479h-2.246v-11.84H221V58.47h-2.246V44Z" fill="#F3D1C1" stroke="#4A4A60" stroke-width="2"/><path d="m266 61.997-.026 2.846-.071 1.663-.116 1.39-.167 1.223-.213 1.106-.258 1.022-.309.938-.354.874-.4.815-.451.757-.496.698-.548.654-.592.595-.651.55-.696.498-.754.453-.812.4-.87.357-.934.31-1.018.259-1.102.213-1.218.169-1.385.116-1.656.071-2.986.026-2.82-.026-1.656-.071-1.385-.117-1.218-.168-1.102-.213-1.018-.259-.934-.31-.87-.356-.812-.401-.754-.453-.696-.498-.651-.55-.592-.595-.548-.654-.496-.698-.451-.757-.4-.815-.354-.874-.309-.938-.258-1.022-.213-1.106-.167-1.222-.116-1.391-.071-1.663-.026-2.84.026-2.846.071-1.663.116-1.39.167-1.223.213-1.106.258-1.022.309-.938.354-.874.4-.815.451-.757.496-.698.548-.654.592-.595.651-.55.696-.498.754-.453.812-.4.87-.357.934-.31 1.018-.259 1.102-.213 1.218-.168 1.385-.117 1.656-.071 2.82-.026 2.986.026 1.656.071 1.385.117 1.218.168 1.102.213 1.018.259.934.31.87.356.812.401.754.453.696.498.651.55.592.595.548.654.496.698.451.757.4.815.354.874.309.938.258 1.022.213 1.106.167 1.222.116 1.391.071 1.663.026 2.84Z" fill="#F2CFBE"/><path d="M247.457 61.936c-.256 0-.496-.04-.72-.12a1.79 1.79 0 0 1-.564-.36 1.565 1.565 0 0 1-.372-.552 1.859 1.859 0 0 1-.132-.708c0-.256.044-.492.132-.708a1.565 1.565 0 0 1 .936-.9c.224-.088.464-.132.72-.132.256 0 .492.044.708.132.224.08.416.196.576.348.16.152.284.336.372.552.088.216.132.452.132.708 0 .256-.044.492-.132.708-.088.216-.212.4-.372.552a1.76 1.76 0 0 1-.576.36c-.216.08-.452.12-.708.12Zm-9.912-3.336h.72l5.304 6.816V58.6h.864V67h-.72l-5.304-6.816V67h-.864v-8.4Zm9.912 2.64c.312 0 .568-.096.768-.288.2-.192.3-.444.3-.756s-.1-.564-.3-.756c-.2-.192-.456-.288-.768-.288s-.568.096-.768.288c-.2.192-.3.444-.3.756s.1.564.3.756c.2.192.456.288.768.288Zm-1.704 1.56h3.408v.72h-3.408v-.72Zm4.792 3.12 4.5-4.14c.684-.624 1.242-1.242 1.674-1.854.444-.624.666-1.272.666-1.944 0-.288-.054-.582-.162-.882a2.073 2.073 0 0 0-.486-.828 2.452 2.452 0 0 0-.864-.594c-.348-.156-.774-.234-1.278-.234-.96 0-2.118.3-3.474.9l-.432-.918a8.681 8.681 0 0 1 1.836-.882 6.634 6.634 0 0 1 2.178-.36c.78 0 1.422.126 1.926.378.516.252.93.564 1.242.936.312.372.528.774.648 1.206.132.432.198.834.198 1.206 0 .78-.24 1.554-.72 2.322-.48.756-1.134 1.512-1.962 2.268l-3.6 3.24h6.12V67h-8.01v-1.08ZM206.054 77.84l-2.286.504-.432-.918 2.988-1.026h1.08V89h-1.35V77.84ZM202.877 157.92l4.5-4.14c.684-.624 1.242-1.242 1.674-1.854.444-.624.666-1.272.666-1.944 0-.288-.054-.582-.162-.882a2.073 2.073 0 0 0-.486-.828 2.452 2.452 0 0 0-.864-.594c-.348-.156-.774-.234-1.278-.234-.96 0-2.118.3-3.474.9l-.432-.918a8.681 8.681 0 0 1 1.836-.882 6.634 6.634 0 0 1 2.178-.36c.78 0 1.422.126 1.926.378.516.252.93.564 1.242.936.312.372.528.774.648 1.206.132.432.198.834.198 1.206 0 .78-.24 1.554-.72 2.322-.48.756-1.134 1.512-1.962 2.268l-3.6 3.24h6.12V159h-8.01v-1.08ZM207.105 233.216c-.468 0-.9-.042-1.296-.126a6.972 6.972 0 0 1-1.098-.288c-.324-.132-.624-.27-.9-.414a14.634 14.634 0 0 1-.774-.468l.504-.9c.54.312 1.11.546 1.71.702.6.156 1.188.234 1.764.234.336 0 .702-.03 1.098-.09a4.322 4.322 0 0 0 1.134-.36c.348-.18.636-.426.864-.738.24-.312.36-.708.36-1.188 0-.324-.06-.624-.18-.9a1.962 1.962 0 0 0-.486-.72 2.042 2.042 0 0 0-.738-.468 2.278 2.278 0 0 0-.918-.18h-1.836v-1.224h1.584c.576 0 1.038-.216 1.386-.648.36-.432.54-.972.54-1.62 0-.432-.078-.798-.234-1.098a1.93 1.93 0 0 0-.612-.738 2.395 2.395 0 0 0-.882-.414 4.364 4.364 0 0 0-1.062-.126c-.528 0-1.044.084-1.548.252-.492.156-.99.372-1.494.648l-.432-.918a9.204 9.204 0 0 1 1.674-.9c.552-.228 1.176-.342 1.872-.342.612 0 1.164.084 1.656.252.504.168.93.414 1.278.738.36.312.636.69.828 1.134.192.444.288.948.288 1.512 0 .54-.126 1.056-.378 1.548s-.642.876-1.17 1.152c.696.276 1.236.678 1.62 1.206.384.516.576 1.134.576 1.854 0 .66-.138 1.224-.414 1.692a3.366 3.366 0 0 1-1.098 1.116 4.736 4.736 0 0 1-1.512.63 7.173 7.173 0 0 1-1.674.198Z" fill="#fff"/></svg>