<svg width="226" height="108" viewBox="0 0 226 108" fill="none" xmlns="http://www.w3.org/2000/svg">
<path d="M68.9844 28.0391C70.2344 36.5547 69.9609 45.0312 68.1641 53.4688C66.3672 61.8802 63.4375 69.849 59.375 77.375C56.9792 81.8281 54.2057 86.0469 51.0547 90.0312C47.9036 94.0156 44.2578 97.4792 40.1172 100.422C36.8099 102.792 33.1771 104.484 29.2188 105.5C25.2604 106.516 21.3021 106.438 17.3438 105.266C12.6042 103.625 8.95833 101.125 6.40625 97.7656C3.85417 94.4062 2.17448 90.5521 1.36719 86.2031C0.585938 81.8542 0.455729 77.388 0.976562 72.8047C1.4974 68.2474 2.44792 63.9375 3.82812 59.875C5.85938 53.1562 8.8151 46.8802 12.6953 41.0469C13.0339 40.5781 13.3724 40.1224 13.7109 39.6797C14.1536 33.7682 15.5078 28 17.7734 22.375C20.0651 16.724 23.2682 11.763 27.3828 7.49219C30.638 4.23698 34.5182 2.10156 39.0234 1.08594C42.1484 0.513021 45.2865 0.526042 48.4375 1.125C51.5885 1.69792 54.4792 2.92188 57.1094 4.79688C60.7292 7.58333 63.4505 11.0469 65.2734 15.1875C67.0964 19.3281 68.3333 23.612 68.9844 28.0391ZM65.4297 48.3906C66.263 43.9115 66.5755 39.0417 66.3672 33.7812C66.1849 28.4948 65.2604 23.4688 63.5938 18.7031C61.9531 13.9375 59.362 10.0964 55.8203 7.17969C52.3047 4.23698 47.6432 2.86979 41.8359 3.07812C37.9557 3.36458 34.4661 4.6276 31.3672 6.86719C28.2943 9.08073 25.638 11.9193 23.3984 15.3828C21.1589 18.8203 19.349 22.5052 17.9688 26.4375C16.6146 30.3438 15.7031 34.1198 15.2344 37.7656C16.6406 36.125 18.2031 34.6146 19.9219 33.2344C20.2344 33 20.5729 32.9089 20.9375 32.9609C21.3021 32.987 21.6016 33.1562 21.8359 33.4688C22.0703 33.7812 22.1615 34.1198 22.1094 34.4844C22.0833 34.849 21.9141 35.1484 21.6016 35.3828C19.0755 37.4922 16.849 39.888 14.9219 42.5703C15.026 45.5391 15.625 48.5339 16.7188 51.5547C17.8385 54.5495 19.2969 57.1146 21.0938 59.25C23.3073 61.9062 26.0938 63.5078 29.4531 64.0547C32.8125 64.4193 35.9766 63.7812 38.9453 62.1406C41.9401 60.5 44.1146 58.1302 45.4688 55.0312C45.7812 54.4323 46.1979 54.1458 46.7188 54.1719C47.2396 54.1979 47.6432 54.4323 47.9297 54.875C48.2422 55.2917 48.2292 55.7865 47.8906 56.3594C45.7292 59.3021 43.0078 61.5807 39.7266 63.1953C36.4453 64.8099 32.9818 65.4479 29.3359 65.1094C26.6276 64.7448 24.2448 63.6771 22.1875 61.9062C20.1562 60.1094 18.5286 58.026 17.3047 55.6562C15.4297 52.0625 14.2448 48.2734 13.75 44.2891C11.1719 48.2474 9.0625 52.4792 7.42188 56.9844C5.80729 61.4896 4.57031 65.9688 3.71094 70.4219C3.0599 73.8854 2.78646 77.4531 2.89062 81.125C3.02083 84.8229 3.73698 88.3255 5.03906 91.6328C6.34115 94.9661 8.45052 97.8047 11.3672 100.148C14.6224 102.596 17.9297 103.951 21.2891 104.211C24.6745 104.471 27.9688 103.885 31.1719 102.453C34.401 101.021 37.3958 98.9896 40.1562 96.3594C46.7188 90.0573 52.1745 82.7266 56.5234 74.3672C60.8724 66.0078 63.8411 57.349 65.4297 48.3906ZM82.1875 51.0859C82.1875 51.112 82.1745 51.125 82.1484 51.125C82.1745 51.125 82.1875 51.112 82.1875 51.0859ZM82.1094 51.2031V51.1641C82.1354 51.1641 82.1484 51.151 82.1484 51.125C82.1224 51.151 82.1094 51.1771 82.1094 51.2031ZM86.9531 55.0703C85.9375 56.2161 84.8177 57.2708 83.5938 58.2344C82.0312 59.1719 80.7943 59.3542 79.8828 58.7812C78.9714 58.2083 78.3984 57.2578 78.1641 55.9297C77.9297 54.6016 78.0469 53.2734 78.5156 51.9453C78.9323 50.3568 79.4531 49.3151 80.0781 48.8203C80.7292 48.3255 81.3151 48.1823 81.8359 48.3906C82.3828 48.599 82.7083 48.9896 82.8125 49.5625C82.9427 50.1094 82.6823 50.6562 82.0312 51.2031H82.1094C82.0833 51.2031 82.0703 51.2161 82.0703 51.2422C81.5755 52.0755 81.1458 53.0391 80.7812 54.1328C80.4427 55.2005 80.4688 56.1901 80.8594 57.1016C81.4583 57.362 82.1484 57.1667 82.9297 56.5156C83.7109 55.8385 84.4792 54.9922 85.2344 53.9766C85.9896 52.9349 86.6406 51.9974 87.1875 51.1641C87.5 50.6953 87.7474 50.3307 87.9297 50.0703C88.138 49.7839 88.3464 49.4583 88.5547 49.0938C88.9974 48.2344 89.5703 47.5573 90.2734 47.0625C90.7422 46.776 91.1849 46.737 91.6016 46.9453C92.0443 47.1276 92.3438 47.4531 92.5 47.9219C92.6562 48.3646 92.5651 48.7943 92.2266 49.2109C92.1224 49.3411 92.0312 49.4583 91.9531 49.5625H91.9141L91.9531 49.6016C91.9271 49.6276 91.888 49.6667 91.8359 49.7188C91.8099 49.7448 91.7969 49.7708 91.7969 49.7969C91.4323 50.2656 91.1198 50.7474 90.8594 51.2422C90.6771 51.6068 90.5078 51.9583 90.3516 52.2969C89.5703 54.5885 89.375 56.1901 89.7656 57.1016C90.3646 57.362 91.0547 57.1667 91.8359 56.5156C92.6172 55.8385 93.3854 54.9922 94.1406 53.9766C94.8958 52.9349 95.5469 51.9974 96.0938 51.1641C96.4062 50.6953 96.6536 50.3307 96.8359 50.0703C97.0443 49.7839 97.2526 49.4583 97.4609 49.0938C97.9036 48.2344 98.4766 47.5573 99.1797 47.0625C99.6484 46.776 100.091 46.737 100.508 46.9453C100.951 47.1276 101.25 47.4531 101.406 47.9219C101.562 48.3646 101.471 48.7943 101.133 49.2109C101.029 49.3411 100.938 49.4583 100.859 49.5625H100.82L100.859 49.6016C100.833 49.6276 100.794 49.6667 100.742 49.7188C100.716 49.7448 100.703 49.7708 100.703 49.7969C100.339 50.2656 100.026 50.7474 99.7656 51.2422C98.6198 53.4036 97.9297 55.6953 97.6953 58.1172C97.6432 60.9297 98.5286 62.2578 100.352 62.1016C102.201 61.9453 104.414 60.9818 106.992 59.2109C109.596 57.4401 112.005 55.5391 114.219 53.5078C116.432 51.4766 117.865 49.9922 118.516 49.0547C119.323 48.8203 119.661 48.9115 119.531 49.3281C119.401 49.7188 118.984 50.3047 118.281 51.0859C117.578 51.8411 116.771 52.6354 115.859 53.4688C114.948 54.276 114.128 54.9922 113.398 55.6172C112.695 56.2161 112.266 56.5677 112.109 56.6719C111.51 57.1146 110.898 57.5833 110.273 58.0781C108.711 59.3281 107.083 60.474 105.391 61.5156C103.698 62.5312 101.862 63.1562 99.8828 63.3906C98.3984 63.2083 97.3958 62.5964 96.875 61.5547C96.3542 60.513 96.1328 59.3021 96.2109 57.9219C96.2891 56.5417 96.4844 55.2396 96.7969 54.0156C95.5208 55.5781 94.0885 56.9844 92.5 58.2344C90.9375 59.1719 89.7005 59.3542 88.7891 58.7812C87.8776 58.2083 87.3047 57.2578 87.0703 55.9297C87.0182 55.6432 86.9792 55.3568 86.9531 55.0703ZM120.859 51.0859C120.859 51.112 120.846 51.125 120.82 51.125C120.846 51.125 120.859 51.112 120.859 51.0859ZM148.281 49.0547C149.089 48.8203 149.427 48.9115 149.297 49.3281C149.167 49.7188 148.75 50.3047 148.047 51.0859C147.344 51.8411 146.536 52.6354 145.625 53.4688C144.714 54.276 143.893 54.9922 143.164 55.6172C142.461 56.2161 142.031 56.5677 141.875 56.6719C141.276 57.1146 140.664 57.5833 140.039 58.0781C138.477 59.3281 136.849 60.474 135.156 61.5156C133.464 62.5312 131.628 63.1562 129.648 63.3906C128.164 63.2083 127.161 62.5964 126.641 61.5547C126.12 60.513 125.898 59.3021 125.977 57.9219C126.055 56.5417 126.25 55.2396 126.562 54.0156C125.286 55.5781 123.854 56.9844 122.266 58.2344C120.703 59.1719 119.466 59.3542 118.555 58.7812C117.643 58.2083 117.07 57.2578 116.836 55.9297C116.602 54.6016 116.719 53.2734 117.188 51.9453C117.604 50.3568 118.125 49.3151 118.75 48.8203C119.401 48.3255 119.987 48.1823 120.508 48.3906C121.055 48.599 121.38 48.9896 121.484 49.5625C121.615 50.1094 121.354 50.6562 120.703 51.2031C120.729 51.2031 120.755 51.2031 120.781 51.2031C120.807 51.1771 120.82 51.151 120.82 51.125C120.794 51.151 120.768 51.1901 120.742 51.2422C120.247 52.0755 119.818 53.0391 119.453 54.1328C119.115 55.2005 119.141 56.1901 119.531 57.1016C120.13 57.362 120.82 57.1667 121.602 56.5156C122.383 55.8385 123.151 54.9922 123.906 53.9766C124.661 52.9349 125.312 51.9974 125.859 51.1641C126.172 50.6953 126.419 50.3307 126.602 50.0703C126.81 49.7839 127.018 49.4583 127.227 49.0938C127.669 48.2344 128.242 47.5573 128.945 47.0625C129.414 46.776 129.857 46.737 130.273 46.9453C130.716 47.1276 131.016 47.4531 131.172 47.9219C131.328 48.3646 131.237 48.7943 130.898 49.2109C130.794 49.3411 130.703 49.4583 130.625 49.5625C130.599 49.5625 130.586 49.5625 130.586 49.5625L130.625 49.6016C130.599 49.6276 130.56 49.6667 130.508 49.7188C130.482 49.7448 130.469 49.7708 130.469 49.7969C130.104 50.2656 129.792 50.7474 129.531 51.2422C128.385 53.4036 127.695 55.6953 127.461 58.1172C127.409 60.9297 128.294 62.2578 130.117 62.1016C131.966 61.9453 134.18 60.9818 136.758 59.2109C139.362 57.4401 141.771 55.5391 143.984 53.5078C146.198 51.4766 147.63 49.9922 148.281 49.0547ZM172.266 54.2891L172.227 54.3281C172.253 54.3281 172.266 54.3411 172.266 54.3672V54.2891ZM168.75 56.8672L168.711 56.9062C168.737 56.9062 168.75 56.9193 168.75 56.9453V56.8672ZM157.539 28.6641L156.172 28.5469L153.125 28.5078C151.667 28.612 150.391 28.9505 149.297 29.5234C148.125 30.0964 147.24 31.1901 146.641 32.8047C146.068 34.1849 146.081 35.3177 146.68 36.2031C147.279 37.0625 148.06 37.7786 149.023 38.3516C150.013 38.8984 151.055 39.8229 152.148 41.125C153.294 42.6875 154.036 43.8724 154.375 44.6797L155.039 45.8516L155.156 46.0859C155.26 46.2943 155.365 46.4766 155.469 46.6328C155.99 47.4401 156.328 48.4167 156.484 49.5625C156.536 49.901 156.576 50.3047 156.602 50.7734C156.654 52.7526 156.315 54.6797 155.586 56.5547C155.247 57.362 154.87 58.0911 154.453 58.7422C154.583 58.6641 154.727 58.599 154.883 58.5469C157.253 57.5833 159.284 56.6849 160.977 55.8516C162.669 54.9922 164.349 54.1328 166.016 53.2734C168.594 52.0755 170.456 50.7734 171.602 49.3672C171.706 49.237 171.823 49.1719 171.953 49.1719C172.109 49.1458 172.24 49.1719 172.344 49.25C172.604 49.5625 172.565 49.9141 172.227 50.3047C171.914 50.6953 171.536 51.0729 171.094 51.4375C170.781 51.6979 170.326 51.9974 169.727 52.3359C167.669 53.4557 165.56 54.5885 163.398 55.7344C161.263 56.8542 158.828 58.0391 156.094 59.2891C154.922 59.8099 153.802 60.2526 152.734 60.6172C152.63 60.6953 152.539 60.7604 152.461 60.8125C150.898 61.9323 149.466 62.2448 148.164 61.75C146.862 61.2552 146.029 60.0703 145.664 58.1953C145.273 54.7578 146.12 51.6198 148.203 48.7812C149.036 47.6615 149.701 46.9583 150.195 46.6719C151.029 46.151 151.706 46.125 152.227 46.5938C153.008 47.5573 152.956 48.4036 152.07 49.1328C151.549 49.4974 150.859 50.3307 150 51.6328C149.141 52.9349 148.581 54.3802 148.32 55.9688C148.32 56.0729 148.307 56.1771 148.281 56.2812C148.203 57.0365 148.203 57.8177 148.281 58.625C148.385 59.4323 148.802 59.9531 149.531 60.1875C151.536 59.7188 153.021 58.4818 153.984 56.4766C154.974 54.4714 155.378 52.362 155.195 50.1484C155.169 50.1224 155.104 49.8359 155 49.2891C154.922 48.7422 154.883 48.4818 154.883 48.5078C154.857 48.4036 154.831 48.2995 154.805 48.1953C154.753 48.013 154.609 47.6875 154.375 47.2188L154.023 46.5547L153.867 46.2422L153.203 44.9141C152.682 43.8724 151.849 42.6745 150.703 41.3203C149.922 40.487 148.737 39.5755 147.148 38.5859C145.872 38.0651 144.857 37.1276 144.102 35.7734C143.451 34.3672 143.242 33.0911 143.477 31.9453C143.685 30.3307 144.753 29.0938 146.68 28.2344C147.174 28 147.839 27.8047 148.672 27.6484C149.271 27.4922 150.547 27.401 152.5 27.375H155.234L157.188 27.4922C158.594 27.7005 159.57 27.7917 160.117 27.7656C160.794 27.8177 161.536 27.6875 162.344 27.375C163.177 27.0365 163.867 26.6198 164.414 26.125C165.299 25.3177 165.924 24.901 166.289 24.875C166.576 25.1354 166.667 25.4609 166.562 25.8516L166.133 26.3984C164.753 27.4141 163.568 28.1302 162.578 28.5469C161.589 28.9375 159.909 28.9766 157.539 28.6641ZM198.008 49.0547C198.294 49.2891 198.229 49.7188 197.812 50.3438C197.422 50.9688 196.862 51.6458 196.133 52.375C195.43 53.1042 194.74 53.7812 194.062 54.4062C193.385 55.0052 192.917 55.4089 192.656 55.6172C190.573 57.2839 188.307 58.5859 185.859 59.5234C183.385 60.4349 180.885 60.9688 178.359 61.125C175.833 61.2812 173.333 61.1771 170.859 60.8125C170.729 60.8125 170.625 60.7604 170.547 60.6562C170.286 61.2292 170.039 61.8151 169.805 62.4141C169.544 63.3516 169.271 64.2891 168.984 65.2266C168.932 65.487 168.802 65.6823 168.594 65.8125C168.359 65.9427 168.125 65.9948 167.891 65.9688C167.422 65.7604 167.214 65.3958 167.266 64.875C167.318 64.3542 167.461 63.8073 167.695 63.2344C167.852 62.7917 167.956 62.401 168.008 62.0625C168.086 61.75 168.177 61.4375 168.281 61.125L171.797 48.8984C172.24 47.6745 172.695 46.9714 173.164 46.7891C173.659 46.6068 174.076 46.7109 174.414 47.1016C174.779 47.4661 174.844 47.9479 174.609 48.5469L172.656 52.9609C173.698 51.6328 174.818 50.3958 176.016 49.25C177.109 48.2344 178.19 47.2708 179.258 46.3594C179.674 45.9948 180.078 45.6432 180.469 45.3047C180.911 44.9141 181.354 44.7708 181.797 44.875C182.266 44.9792 182.617 45.2266 182.852 45.6172C183.086 46.0078 183.086 46.4635 182.852 46.9844C181.471 49.3802 179.87 51.6198 178.047 53.7031C176.224 55.7865 174.323 57.7917 172.344 59.7188C177.057 60.3177 181.602 59.7578 185.977 58.0391C190.352 56.3203 194.049 53.3776 197.07 49.2109C197.201 49.0547 197.344 48.9635 197.5 48.9375C197.682 48.9115 197.852 48.9505 198.008 49.0547ZM176.406 52.5703C174.583 54.3411 173.021 56.3073 171.719 58.4688C172.266 57.8177 172.826 57.1536 173.398 56.4766C174.44 55.2266 175.443 53.9245 176.406 52.5703ZM224.336 49.1328C224.44 48.9505 224.583 48.8724 224.766 48.8984C224.948 48.9245 225.091 49.0156 225.195 49.1719C225.299 49.3021 225.299 49.4583 225.195 49.6406C224.44 50.7083 223.568 51.6589 222.578 52.4922C221.589 53.2995 220.56 54.0677 219.492 54.7969C219.31 54.9271 219.141 55.0443 218.984 55.1484C216.406 56.9193 213.919 58.2865 211.523 59.25C209.128 60.1875 207.044 60.3698 205.273 59.7969C203.529 59.1979 202.305 57.4531 201.602 54.5625C199.883 57.1146 198.034 59.5755 196.055 61.9453C195.013 62.987 193.945 63.2865 192.852 62.8438C191.732 62.375 191.289 61.3854 191.523 59.875C192.591 55.1354 194.818 51.0208 198.203 47.5312C199.297 46.4115 200.638 45.513 202.227 44.8359C202.852 44.6016 203.359 44.6797 203.75 45.0703C204.167 45.4609 204.362 45.9427 204.336 46.5156C204.31 47.0625 203.984 47.4661 203.359 47.7266C201.406 48.7161 199.766 50.1224 198.438 51.9453C197.135 53.7422 196.12 55.6953 195.391 57.8047C197.526 55.0443 199.518 52.1797 201.367 49.2109C201.654 48.7682 202.031 48.5339 202.5 48.5078C202.995 48.4818 203.411 48.625 203.75 48.9375C204.115 49.25 204.284 49.6667 204.258 50.1875C203.737 51.776 203.594 53.4167 203.828 55.1094C204.089 56.776 205.078 57.9479 206.797 58.625C209.375 58.599 211.979 57.8698 214.609 56.4375C217.24 55.0052 219.583 53.4948 221.641 51.9062C222.708 51.125 223.607 50.2005 224.336 49.1328Z" fill="#F2CFBE"/>
</svg>
