<svg width="74" height="74" viewBox="0 0 74 74" fill="none" xmlns="http://www.w3.org/2000/svg">
<g clip-path="url(#clip0_90_795)">
<path d="M47.7477 39.3373C46.3807 39.3373 45.0643 38.8771 43.9631 37.9963L39.8999 34.762L41.2037 33.0003L45.2668 36.2345C46.1275 36.9313 47.2035 37.2337 48.292 37.0759C49.3806 36.9313 50.3426 36.3529 51.0008 35.4457L51.0768 35.3405L40.0012 26.5056L41.3049 24.7439L53.2286 34.2493C53.4564 34.4334 53.5957 34.6963 53.6336 34.9855C53.6716 35.2748 53.5957 35.5772 53.4185 35.8007L52.697 36.7867C51.6843 38.154 50.216 39.0349 48.5705 39.2584C48.3047 39.311 48.0262 39.3373 47.7477 39.3373Z" fill="#2C2B38"/>
<path d="M37.3431 15.7511C34.7356 15.7511 32.4825 13.7002 32.204 10.9787L31.799 6.90309C31.6597 5.49634 32.0521 4.12903 32.9129 3.02467C33.7863 1.92031 35.0267 1.22351 36.3938 1.09204L36.9887 1.0263C39.8114 0.737061 42.3429 2.8669 42.6341 5.77243L43.0391 9.84806C43.1784 11.2548 42.786 12.6221 41.9252 13.7265C41.0518 14.8308 39.8114 15.5276 38.4443 15.6591L37.8494 15.7248C37.6849 15.738 37.5077 15.7511 37.3431 15.7511ZM37.2039 3.23503L36.6089 3.30076C35.7988 3.37964 35.0774 3.78721 34.571 4.43142C34.0774 5.06248 33.8369 5.86446 33.9255 6.67959L34.3305 10.7552C34.4951 12.4512 35.9761 13.7002 37.6469 13.5293L38.2418 13.4635C39.0519 13.3847 39.7734 12.9771 40.2797 12.3329C40.7734 11.7018 41.0012 10.8998 40.9253 10.0847L40.5202 6.00908C40.343 4.31309 38.8494 3.06411 37.2039 3.23503Z" fill="#2C2B38"/>
<path d="M26.9382 67.3381L25.6598 65.5632C37.5835 56.3339 37.2164 49.0791 37.2038 48.9739L39.3176 48.6321C39.3809 49.1185 39.8745 57.3199 26.9382 67.3381Z" fill="#2C2B38"/>
<path d="M23 61L23.9034 62.8068C24.9609 64.9218 26.3524 66.8524 28.0244 68.5244L29 69.5" stroke="#2C2B38" stroke-width="2"/>
<path d="M23.5587 63.1705L22.2803 61.4088C31.5458 54.1252 31.4825 45.3191 31.4699 45.2008L33.5964 44.9641C33.6344 45.5031 33.8115 55.1113 23.5587 63.1705Z" fill="#2C2B38"/>
<path fill-rule="evenodd" clip-rule="evenodd" d="M43.2036 55.482L41.1151 73.0001L43.2669 72.8818L45.3555 55.3505C45.2036 53.0103 43.8618 50.9462 41.8492 49.9207L35.6469 45.7005C34.9001 45.1878 34.1153 44.7276 33.3558 44.2937L33.0647 44.1228C30.8816 42.857 29.4438 40.6511 29.1079 38.161L27.8622 41.4933C28.7352 43.3816 30.1639 44.9846 32.0141 46.0555L32.3052 46.2264C32.4297 46.2996 32.5531 46.3718 32.6755 46.4434C33.3001 46.8087 33.8982 47.1585 34.4697 47.5542L40.7227 51.8139L40.7227 51.814C40.7607 51.8402 40.7987 51.8665 40.8493 51.8928C42.2037 52.5502 43.115 53.9306 43.2036 55.482ZM27.4209 23.8777L28.8749 19.8662L29.837 20.5904C30.0615 19.3442 30.4837 18.3337 31.3433 17.2894L38.6848 22.8113C39.305 23.3108 39.6594 24.0865 39.6341 24.9017L39.2417 38.2855C39.2291 38.6142 39.3557 38.9166 39.5835 39.1401L47.1908 46.3579C47.1972 46.3644 47.2067 46.371 47.2162 46.3776C47.2257 46.3842 47.2351 46.3907 47.2415 46.3973C48.3427 47.3307 49.0136 48.6981 49.1022 50.1705L47.2415 72.9344L49.368 72.816L51.2413 50.0654C51.1148 47.9881 50.1654 46.0292 48.6085 44.7145L41.3809 37.8516L41.7606 24.9674C41.8113 23.4423 41.1404 21.983 39.9632 21.0364L31.8369 14.9229C31.4065 14.6074 30.8243 14.6469 30.4572 15.0281C27.8624 17.6576 27.5712 20.1161 27.4446 23.2977L27.4209 23.8777Z" fill="#2C2B38"/>
<path d="M26.5333 46.2C26.4067 46.2 26.2801 46.1737 26.1535 46.1342L25.0397 45.7004C23.4827 45.0956 22.2423 43.8861 21.5588 42.3215C20.8752 40.7439 20.8119 38.9953 21.4069 37.3782L27.8877 19.498L29.8876 20.2737L23.4068 38.1407C23.0271 39.2057 23.0524 40.3626 23.5081 41.3881C23.9637 42.4267 24.7738 43.2156 25.7991 43.61L25.9257 43.6626L33.4065 23.6263L35.3938 24.4282L27.5332 45.49C27.3687 45.9239 26.9636 46.2 26.5333 46.2Z" fill="#2C2B38"/>
<path d="M0.0512695 73H84.0513" stroke="#2C2B38" stroke-width="2"/>
<path d="M9.99655 70V66.75M9.99655 70H6.3981C5.23165 70 4.11298 69.5292 3.28817 68.6911C2.46337 67.8531 2 66.7164 2 65.5312C2 64.3461 2.46337 63.2094 3.28817 62.3714C4.11298 61.5333 5.23165 61.0625 6.3981 61.0625H7.59758M9.99655 70H13.595C14.728 70.0018 15.818 69.5593 16.6378 68.7646C17.4575 67.97 17.9439 66.8846 17.9954 65.7346C18.047 64.5846 17.6598 63.4587 16.9145 62.5917C16.1692 61.7246 14.3236 61.1653 13.1952 61.0625M9.99655 66.75V63.5M9.99655 66.75L13.1952 65.125M13.9948 61.0625C13.9948 59.9851 13.5736 58.9517 12.8238 58.1899C12.0739 57.428 11.057 57 9.99655 57C8.93614 57 7.91916 57.428 7.16934 58.1899C6.41952 58.9517 5.99827 59.9851 5.99827 61.0625" stroke="#2C2B38" stroke-width="2"/>
<path d="M61.5813 72V61.9563M61.5813 61.9563V55.876M61.5813 61.9563L65.0513 60M61.9214 68.561L66.8698 62.365C67.3124 61.8109 67.6557 61.1453 67.8771 60.4124C68.0985 59.6794 68.1929 58.8959 68.154 58.1138C68.1151 57.3317 67.9438 56.5689 67.6514 55.876C67.3591 55.1831 66.9524 54.576 66.4583 54.095C65.0639 52.7372 63.3478 52 61.5813 52C59.8148 52 58.0987 52.7372 56.7042 54.095C56.2102 54.576 55.8035 55.1831 55.5111 55.876C55.2188 56.5689 55.0475 57.3317 55.0085 58.1138C54.9696 58.8959 55.064 59.6794 55.2854 60.4124C55.5068 61.1453 55.8502 61.8109 56.2927 62.365L61.2412 68.561C61.3314 68.6739 61.4537 68.7373 61.5813 68.7373C61.7088 68.7373 61.8311 68.6739 61.9214 68.561Z" stroke="#2C2B38" stroke-width="2"/>
</g>
<defs>
<clipPath id="clip0_90_795">
<rect width="74" height="74" fill="white"/>
</clipPath>
</defs>
</svg>
