<svg width="74" height="74" viewBox="0 0 74 74" fill="none" xmlns="http://www.w3.org/2000/svg">
<path fill-rule="evenodd" clip-rule="evenodd" d="M29 60H43V74H41V62H31V74H29V60Z" fill="#2C2B38"/>
<path fill-rule="evenodd" clip-rule="evenodd" d="M22.9758 13.5875C23.3616 6.03976 29.4764 0 37 0C44.5235 0 50.6383 6.03962 51.0242 13.5873C58.4472 14.9068 64.087 21.5215 64.087 29.4786C64.087 31.7792 63.6035 33.9671 62.7547 35.9415C65.923 38.6403 68 42.6782 68 47.2278C68 55.3384 61.5215 62 53.5391 62H20.4609C12.4785 62 6 55.3384 6 47.2278C6 42.6783 8.07684 38.6406 11.245 35.9418C10.3355 33.8269 9.88065 31.5344 9.91453 29.2195C9.95235 26.6358 10.5979 24.0984 11.7977 21.8218C12.9976 19.5451 14.7171 17.5953 16.8125 16.1388C18.668 14.8491 20.7696 13.9803 22.9758 13.5875ZM37 2C30.3737 2 24.9565 7.50925 24.9565 14.3452V15.3388L24.0761 15.4448C21.8833 15.7089 19.7833 16.5096 17.954 17.7811C16.1245 19.0527 14.6191 20.7579 13.567 22.7543C12.5149 24.7507 11.9476 26.9784 11.9143 29.2488C11.8811 31.5191 12.3829 33.7634 13.3763 35.7914L13.7373 36.5283L13.085 37.0262C10.0292 39.3587 8 43.0493 8 47.2278C8 54.2772 13.6259 60 20.4609 60H53.5391C60.3741 60 66 54.2772 66 47.2278C66 43.0493 63.9708 39.3587 60.915 37.0262L60.2633 36.5288L60.6233 35.7922C61.5507 33.8944 62.087 31.7487 62.087 29.4786C62.087 22.207 56.7414 16.2639 49.9242 15.4448L49.0435 15.339V14.3452C49.0435 7.50925 43.6263 2 37 2Z" fill="#2C2B38"/>
</svg>
