<svg xmlns="http://www.w3.org/2000/svg" width="249" height="85" fill="none"><path fill="#2D2D39" fill-rule="evenodd" d="m30.714 71.947 7.628 11.095c1.192 1.734 3.752 1.734 4.944 0l7.62-11.082 73.853.04 93.488-.051 3.373-.142 2.822-.231 2.481-.335 2.244-.425 2.074-.515 1.903-.618 1.772-.708 1.654-.797 1.536-.901 1.417-.992 1.326-1.094 1.208-1.184 1.115-1.3 1.011-1.39.919-1.506.813-1.622.722-1.737.63-1.867.525-2.034.434-2.2.341-2.433.236-2.768.145-3.308.052-5.663-.052-5.65-.145-3.309-.236-2.767-.341-2.433-.434-2.2-.525-2.035-.63-1.866-.722-1.738-.813-1.621-.919-1.506-1.011-1.39-1.115-1.3-1.208-1.185-1.326-1.094-1.417-.99-1.536-.902-1.654-.798-1.772-.708-1.903-.618-2.074-.515-2.244-.424-2.481-.335-2.822-.232-3.373-.141L124.759.37 30.753.422 27.38.563l-2.822.232-2.48.335-2.245.424-2.074.515-1.903.618-1.772.708-1.654.798-1.536.901-1.417.991L8.15 7.18 6.943 8.363l-1.115 1.3-1.011 1.39-.919 1.506-.814 1.622-.721 1.738-.63 1.866-.525 2.034-.434 2.201-.34 2.433-.237 2.767-.145 3.308L0 36.192l.052 5.65.145 3.308.236 2.768.341 2.432.434 2.201.525 2.034.63 1.867.721 1.737.814 1.622.919 1.506 1.01 1.39 1.116 1.3 1.208 1.184 1.326 1.094 1.417.992 1.536.9 1.654.798 1.772.709 1.903.617 2.074.515 2.244.425 2.48.335 2.823.231 3.334.14Z" clip-rule="evenodd"/><path fill="#fff" d="M30.309 22.966v26.508h3.027V25.806h15.128v23.668h3.028V22.966H30.31ZM75.68 47.019c-3.28 0-5.888-.987-7.834-2.96-1.97-1.973-2.956-4.585-2.956-7.845 0-3.261.985-5.872 2.956-7.846 1.946-1.973 4.554-2.96 7.834-2.96 3.28 0 5.888.987 7.834 2.96 1.97 1.974 2.956 4.585 2.956 7.846 0 3.26-.985 5.872-2.956 7.845-1.946 1.973-4.554 2.96-7.834 2.96Zm0-24.438c-4.181 0-7.522 1.24-10.021 3.706-2.523 2.479-3.785 5.787-3.785 9.927 0 4.139 1.262 7.448 3.785 9.926 2.5 2.48 5.84 3.706 10.021 3.706 4.181 0 7.522-1.239 10.021-3.706 2.523-2.478 3.785-5.787 3.785-9.926 0-4.14-1.262-7.448-3.785-9.927-2.5-2.467-5.84-3.706-10.021-3.706ZM121.027 49.474l-12.1-27.266-12.1 27.266h3.208l8.892-20.034 8.892 20.034h3.208ZM147.497 36.406h-8.699c-1.61 0-2.896-.48-3.857-1.444-.961-.962-1.442-2.25-1.442-3.862s.481-2.9 1.442-3.862c.961-.963 2.247-1.444 3.857-1.444h8.699v10.612Zm-17.398 13.068h3.484l5.527-7.46c.805-1.083 1.61-1.83 2.428-2.239.733-.349 1.754-.529 3.064-.529h2.907v10.228h3.028V22.966H138.81c-2.523 0-4.542.746-6.056 2.238-1.514 1.456-2.271 3.43-2.271 5.908 0 2.479.757 4.44 2.271 5.908 1.514 1.492 3.533 2.238 6.056 2.238h1.394c-1.995.41-3.581 1.42-4.77 3.032l-5.335 7.184ZM181.538 22.966V34.71H166.41V22.966h-3.028v26.508h3.028V37.549h15.128v11.925h3.027V22.966h-3.027ZM218.654 49.474l-12.1-27.266-12.1 27.266h3.232l1.502-3.406c.853-1.937 2.235-3.597 4.014-4.74.012-.012.024-.012.036-.024 2.259-1.468 4.902-1.974 7.918-1.529l4.289 9.687h3.209v.012ZM201.88 39.98l4.674-10.577 4.314 9.735c-3.437-.53-6.441-.24-8.988.842Z"/></svg>